<?xml version="1.0" encoding="utf-8" standalone="no"?>
<!DOCTYPE svg PUBLIC "-//W3C//DTD SVG 1.1//EN"
  "http://www.w3.org/Graphics/SVG/1.1/DTD/svg11.dtd">
<svg xmlns:xlink="http://www.w3.org/1999/xlink" width="1036.90369pt" height="345.6pt" viewBox="0 0 1036.90369 345.6" xmlns="http://www.w3.org/2000/svg" version="1.1">
 <metadata>
  <rdf:RDF xmlns:dc="http://purl.org/dc/elements/1.1/" xmlns:cc="http://creativecommons.org/ns#" xmlns:rdf="http://www.w3.org/1999/02/22-rdf-syntax-ns#">
   <cc:Work>
    <dc:type rdf:resource="http://purl.org/dc/dcmitype/StillImage"/>
    <dc:date>2022-06-13T19:14:00.872165</dc:date>
    <dc:format>image/svg+xml</dc:format>
    <dc:creator>
     <cc:Agent>
      <dc:title>Matplotlib v3.5.2, https://matplotlib.org/</dc:title>
     </cc:Agent>
    </dc:creator>
   </cc:Work>
  </rdf:RDF>
 </metadata>
 <defs>
  <style type="text/css">*{stroke-linejoin: round; stroke-linecap: butt}</style>
 </defs>
 <g id="figure_1">
  <g id="patch_1">
   <path d="M 0 345.6 
L 1036.90369 345.6 
L 1036.90369 0 
L 0 0 
z
" style="fill: #ffffff"/>
  </g>
  <g id="axes_1">
   <g id="patch_2">
    <path d="M 33.64 317.72 
L 342.034563 317.72 
L 342.034563 26.88 
L 33.64 26.88 
z
" style="fill: #ffffff"/>
   </g>
   <g id="matplotlib.axis_1">
    <g id="xtick_1">
     <g id="line2d_1">
      <defs>
       <path id="m95b9957dad" d="M 0 0 
L 0 3.5 
" style="stroke: #000000; stroke-width: 0.8"/>
      </defs>
      <g>
       <use xlink:href="#m95b9957dad" x="33.64" y="317.72" style="stroke: #000000; stroke-width: 0.8"/>
      </g>
     </g>
     <g id="text_1">
      <!-- 0.0 -->
      <g transform="translate(25.688437 332.318437)scale(0.1 -0.1)">
       <defs>
        <path id="DejaVuSans-30" d="M 2034 4250 
Q 1547 4250 1301 3770 
Q 1056 3291 1056 2328 
Q 1056 1369 1301 889 
Q 1547 409 2034 409 
Q 2525 409 2770 889 
Q 3016 1369 3016 2328 
Q 3016 3291 2770 3770 
Q 2525 4250 2034 4250 
z
M 2034 4750 
Q 2819 4750 3233 4129 
Q 3647 3509 3647 2328 
Q 3647 1150 3233 529 
Q 2819 -91 2034 -91 
Q 1250 -91 836 529 
Q 422 1150 422 2328 
Q 422 3509 836 4129 
Q 1250 4750 2034 4750 
z
" transform="scale(0.015625)"/>
        <path id="DejaVuSans-2e" d="M 684 794 
L 1344 794 
L 1344 0 
L 684 0 
L 684 794 
z
" transform="scale(0.015625)"/>
       </defs>
       <use xlink:href="#DejaVuSans-30"/>
       <use xlink:href="#DejaVuSans-2e" x="63.623047"/>
       <use xlink:href="#DejaVuSans-30" x="95.410156"/>
      </g>
     </g>
    </g>
    <g id="xtick_2">
     <g id="line2d_2">
      <g>
       <use xlink:href="#m95b9957dad" x="89.711739" y="317.72" style="stroke: #000000; stroke-width: 0.8"/>
      </g>
     </g>
     <g id="text_2">
      <!-- 0.2 -->
      <g transform="translate(81.760176 332.318437)scale(0.1 -0.1)">
       <defs>
        <path id="DejaVuSans-32" d="M 1228 531 
L 3431 531 
L 3431 0 
L 469 0 
L 469 531 
Q 828 903 1448 1529 
Q 2069 2156 2228 2338 
Q 2531 2678 2651 2914 
Q 2772 3150 2772 3378 
Q 2772 3750 2511 3984 
Q 2250 4219 1831 4219 
Q 1534 4219 1204 4116 
Q 875 4013 500 3803 
L 500 4441 
Q 881 4594 1212 4672 
Q 1544 4750 1819 4750 
Q 2544 4750 2975 4387 
Q 3406 4025 3406 3419 
Q 3406 3131 3298 2873 
Q 3191 2616 2906 2266 
Q 2828 2175 2409 1742 
Q 1991 1309 1228 531 
z
" transform="scale(0.015625)"/>
       </defs>
       <use xlink:href="#DejaVuSans-30"/>
       <use xlink:href="#DejaVuSans-2e" x="63.623047"/>
       <use xlink:href="#DejaVuSans-32" x="95.410156"/>
      </g>
     </g>
    </g>
    <g id="xtick_3">
     <g id="line2d_3">
      <g>
       <use xlink:href="#m95b9957dad" x="145.783478" y="317.72" style="stroke: #000000; stroke-width: 0.8"/>
      </g>
     </g>
     <g id="text_3">
      <!-- 0.4 -->
      <g transform="translate(137.831915 332.318437)scale(0.1 -0.1)">
       <defs>
        <path id="DejaVuSans-34" d="M 2419 4116 
L 825 1625 
L 2419 1625 
L 2419 4116 
z
M 2253 4666 
L 3047 4666 
L 3047 1625 
L 3713 1625 
L 3713 1100 
L 3047 1100 
L 3047 0 
L 2419 0 
L 2419 1100 
L 313 1100 
L 313 1709 
L 2253 4666 
z
" transform="scale(0.015625)"/>
       </defs>
       <use xlink:href="#DejaVuSans-30"/>
       <use xlink:href="#DejaVuSans-2e" x="63.623047"/>
       <use xlink:href="#DejaVuSans-34" x="95.410156"/>
      </g>
     </g>
    </g>
    <g id="xtick_4">
     <g id="line2d_4">
      <g>
       <use xlink:href="#m95b9957dad" x="201.855216" y="317.72" style="stroke: #000000; stroke-width: 0.8"/>
      </g>
     </g>
     <g id="text_4">
      <!-- 0.6 -->
      <g transform="translate(193.903654 332.318437)scale(0.1 -0.1)">
       <defs>
        <path id="DejaVuSans-36" d="M 2113 2584 
Q 1688 2584 1439 2293 
Q 1191 2003 1191 1497 
Q 1191 994 1439 701 
Q 1688 409 2113 409 
Q 2538 409 2786 701 
Q 3034 994 3034 1497 
Q 3034 2003 2786 2293 
Q 2538 2584 2113 2584 
z
M 3366 4563 
L 3366 3988 
Q 3128 4100 2886 4159 
Q 2644 4219 2406 4219 
Q 1781 4219 1451 3797 
Q 1122 3375 1075 2522 
Q 1259 2794 1537 2939 
Q 1816 3084 2150 3084 
Q 2853 3084 3261 2657 
Q 3669 2231 3669 1497 
Q 3669 778 3244 343 
Q 2819 -91 2113 -91 
Q 1303 -91 875 529 
Q 447 1150 447 2328 
Q 447 3434 972 4092 
Q 1497 4750 2381 4750 
Q 2619 4750 2861 4703 
Q 3103 4656 3366 4563 
z
" transform="scale(0.015625)"/>
       </defs>
       <use xlink:href="#DejaVuSans-30"/>
       <use xlink:href="#DejaVuSans-2e" x="63.623047"/>
       <use xlink:href="#DejaVuSans-36" x="95.410156"/>
      </g>
     </g>
    </g>
    <g id="xtick_5">
     <g id="line2d_5">
      <g>
       <use xlink:href="#m95b9957dad" x="257.926955" y="317.72" style="stroke: #000000; stroke-width: 0.8"/>
      </g>
     </g>
     <g id="text_5">
      <!-- 0.8 -->
      <g transform="translate(249.975393 332.318437)scale(0.1 -0.1)">
       <defs>
        <path id="DejaVuSans-38" d="M 2034 2216 
Q 1584 2216 1326 1975 
Q 1069 1734 1069 1313 
Q 1069 891 1326 650 
Q 1584 409 2034 409 
Q 2484 409 2743 651 
Q 3003 894 3003 1313 
Q 3003 1734 2745 1975 
Q 2488 2216 2034 2216 
z
M 1403 2484 
Q 997 2584 770 2862 
Q 544 3141 544 3541 
Q 544 4100 942 4425 
Q 1341 4750 2034 4750 
Q 2731 4750 3128 4425 
Q 3525 4100 3525 3541 
Q 3525 3141 3298 2862 
Q 3072 2584 2669 2484 
Q 3125 2378 3379 2068 
Q 3634 1759 3634 1313 
Q 3634 634 3220 271 
Q 2806 -91 2034 -91 
Q 1263 -91 848 271 
Q 434 634 434 1313 
Q 434 1759 690 2068 
Q 947 2378 1403 2484 
z
M 1172 3481 
Q 1172 3119 1398 2916 
Q 1625 2713 2034 2713 
Q 2441 2713 2670 2916 
Q 2900 3119 2900 3481 
Q 2900 3844 2670 4047 
Q 2441 4250 2034 4250 
Q 1625 4250 1398 4047 
Q 1172 3844 1172 3481 
z
" transform="scale(0.015625)"/>
       </defs>
       <use xlink:href="#DejaVuSans-30"/>
       <use xlink:href="#DejaVuSans-2e" x="63.623047"/>
       <use xlink:href="#DejaVuSans-38" x="95.410156"/>
      </g>
     </g>
    </g>
    <g id="xtick_6">
     <g id="line2d_6">
      <g>
       <use xlink:href="#m95b9957dad" x="313.998694" y="317.72" style="stroke: #000000; stroke-width: 0.8"/>
      </g>
     </g>
     <g id="text_6">
      <!-- 1.0 -->
      <g transform="translate(306.047132 332.318437)scale(0.1 -0.1)">
       <defs>
        <path id="DejaVuSans-31" d="M 794 531 
L 1825 531 
L 1825 4091 
L 703 3866 
L 703 4441 
L 1819 4666 
L 2450 4666 
L 2450 531 
L 3481 531 
L 3481 0 
L 794 0 
L 794 531 
z
" transform="scale(0.015625)"/>
       </defs>
       <use xlink:href="#DejaVuSans-31"/>
       <use xlink:href="#DejaVuSans-2e" x="63.623047"/>
       <use xlink:href="#DejaVuSans-30" x="95.410156"/>
      </g>
     </g>
    </g>
   </g>
   <g id="matplotlib.axis_2">
    <g id="ytick_1">
     <g id="line2d_7">
      <defs>
       <path id="m1d3f36c1a0" d="M 0 0 
L -3.5 0 
" style="stroke: #000000; stroke-width: 0.8"/>
      </defs>
      <g>
       <use xlink:href="#m1d3f36c1a0" x="33.64" y="317.72" style="stroke: #000000; stroke-width: 0.8"/>
      </g>
     </g>
     <g id="text_7">
      <!-- 0.0 -->
      <g transform="translate(10.736875 321.519219)scale(0.1 -0.1)">
       <use xlink:href="#DejaVuSans-30"/>
       <use xlink:href="#DejaVuSans-2e" x="63.623047"/>
       <use xlink:href="#DejaVuSans-30" x="95.410156"/>
      </g>
     </g>
    </g>
    <g id="ytick_2">
     <g id="line2d_8">
      <g>
       <use xlink:href="#m1d3f36c1a0" x="33.64" y="264.84" style="stroke: #000000; stroke-width: 0.8"/>
      </g>
     </g>
     <g id="text_8">
      <!-- 0.2 -->
      <g transform="translate(10.736875 268.639219)scale(0.1 -0.1)">
       <use xlink:href="#DejaVuSans-30"/>
       <use xlink:href="#DejaVuSans-2e" x="63.623047"/>
       <use xlink:href="#DejaVuSans-32" x="95.410156"/>
      </g>
     </g>
    </g>
    <g id="ytick_3">
     <g id="line2d_9">
      <g>
       <use xlink:href="#m1d3f36c1a0" x="33.64" y="211.96" style="stroke: #000000; stroke-width: 0.8"/>
      </g>
     </g>
     <g id="text_9">
      <!-- 0.4 -->
      <g transform="translate(10.736875 215.759219)scale(0.1 -0.1)">
       <use xlink:href="#DejaVuSans-30"/>
       <use xlink:href="#DejaVuSans-2e" x="63.623047"/>
       <use xlink:href="#DejaVuSans-34" x="95.410156"/>
      </g>
     </g>
    </g>
    <g id="ytick_4">
     <g id="line2d_10">
      <g>
       <use xlink:href="#m1d3f36c1a0" x="33.64" y="159.08" style="stroke: #000000; stroke-width: 0.8"/>
      </g>
     </g>
     <g id="text_10">
      <!-- 0.6 -->
      <g transform="translate(10.736875 162.879219)scale(0.1 -0.1)">
       <use xlink:href="#DejaVuSans-30"/>
       <use xlink:href="#DejaVuSans-2e" x="63.623047"/>
       <use xlink:href="#DejaVuSans-36" x="95.410156"/>
      </g>
     </g>
    </g>
    <g id="ytick_5">
     <g id="line2d_11">
      <g>
       <use xlink:href="#m1d3f36c1a0" x="33.64" y="106.2" style="stroke: #000000; stroke-width: 0.8"/>
      </g>
     </g>
     <g id="text_11">
      <!-- 0.8 -->
      <g transform="translate(10.736875 109.999219)scale(0.1 -0.1)">
       <use xlink:href="#DejaVuSans-30"/>
       <use xlink:href="#DejaVuSans-2e" x="63.623047"/>
       <use xlink:href="#DejaVuSans-38" x="95.410156"/>
      </g>
     </g>
    </g>
    <g id="ytick_6">
     <g id="line2d_12">
      <g>
       <use xlink:href="#m1d3f36c1a0" x="33.64" y="53.32" style="stroke: #000000; stroke-width: 0.8"/>
      </g>
     </g>
     <g id="text_12">
      <!-- 1.0 -->
      <g transform="translate(10.736875 57.119219)scale(0.1 -0.1)">
       <use xlink:href="#DejaVuSans-31"/>
       <use xlink:href="#DejaVuSans-2e" x="63.623047"/>
       <use xlink:href="#DejaVuSans-30" x="95.410156"/>
      </g>
     </g>
    </g>
   </g>
   <g id="PathCollection_1"/>
   <g id="PathCollection_2">
    <path d="M 61.675869 317.72 
L 61.675869 314.782222 
L 61.675869 311.844444 
L 61.675869 308.906667 
L 61.675869 305.968889 
L 61.675869 303.031111 
L 61.675869 300.093333 
L 61.675869 297.155556 
L 61.675869 294.217778 
L 58.560773 291.28 
L 55.445676 291.28 
L 52.33058 291.28 
L 49.215483 291.28 
L 46.100386 291.28 
L 42.98529 291.28 
L 39.870193 291.28 
L 36.755097 291.28 
L 33.64 291.28 
" clip-path="url(#p30744c9129)" style="fill: none; stroke: #472d7b; stroke-width: 1.5"/>
   </g>
   <g id="PathCollection_3">
    <path d="M 117.747608 317.72 
L 117.747608 314.782222 
L 117.747608 311.844444 
L 117.747608 308.906667 
L 117.747608 305.968889 
L 117.747608 303.031111 
L 117.747608 300.093333 
L 117.747608 297.155556 
L 117.747608 294.217778 
L 117.747608 291.28 
L 117.747608 288.342222 
L 117.747608 287.830734 
" clip-path="url(#p30744c9129)" style="fill: none; stroke: #3b528b; stroke-width: 1.5"/>
    <path d="M 117.747608 253.600377 
L 117.747608 253.088889 
L 117.747608 250.151111 
L 117.747608 247.213333 
L 117.747608 244.275556 
L 117.747608 241.337778 
L 114.632512 238.4 
L 111.517415 238.4 
L 108.402318 238.4 
L 105.287222 238.4 
L 102.172125 238.4 
L 99.057029 238.4 
L 95.941932 238.4 
L 92.826835 238.4 
L 89.711739 238.4 
L 86.596642 238.4 
L 83.481546 238.4 
L 80.366449 238.4 
L 77.251352 238.4 
L 74.136256 238.4 
L 71.021159 238.4 
L 67.906063 238.4 
L 64.790966 238.4 
L 61.675869 238.4 
L 58.560773 238.4 
L 55.445676 238.4 
L 52.33058 238.4 
L 49.215483 238.4 
L 46.100386 238.4 
L 42.98529 238.4 
L 39.870193 238.4 
L 36.755097 238.4 
L 33.64 238.4 
" clip-path="url(#p30744c9129)" style="fill: none; stroke: #3b528b; stroke-width: 1.5"/>
   </g>
   <g id="PathCollection_4">
    <path d="M 173.819347 317.72 
L 173.819347 314.782222 
L 173.819347 311.844444 
L 173.819347 308.906667 
L 173.819347 305.968889 
L 173.819347 303.031111 
L 173.819347 300.883517 
" clip-path="url(#p30744c9129)" style="fill: none; stroke: #2c728e; stroke-width: 1.5"/>
    <path d="M 173.819347 275.800928 
L 173.819347 273.653333 
L 173.819347 270.715556 
L 173.819347 267.777778 
L 173.819347 264.84 
L 173.819347 261.902222 
L 173.819347 258.964444 
L 173.819347 256.026667 
L 173.819347 253.088889 
L 173.819347 250.151111 
L 173.819347 247.213333 
L 173.819347 244.275556 
L 173.819347 241.337778 
L 173.819347 238.4 
L 173.819347 235.462222 
L 173.819347 232.524444 
L 173.819347 229.586667 
L 173.819347 226.648889 
L 173.819347 223.711111 
L 173.819347 220.773333 
L 173.819347 217.835556 
L 173.819347 214.897778 
L 173.819347 211.96 
L 173.819347 209.022222 
L 173.819347 206.084444 
L 173.819347 203.146667 
L 173.819347 200.208889 
L 173.819347 197.271111 
L 173.819347 194.333333 
L 173.819347 191.395556 
L 173.819347 188.457778 
L 173.819347 185.52 
L 170.70425 185.52 
L 167.589154 185.52 
L 164.474057 185.52 
L 161.358961 185.52 
L 158.243864 185.52 
L 155.128767 185.52 
L 152.013671 185.52 
L 148.898574 185.52 
L 145.783478 185.52 
L 142.668381 185.52 
L 139.553284 185.52 
L 136.438188 185.52 
L 133.323091 185.52 
L 130.207995 185.52 
L 127.092898 185.52 
L 123.977801 185.52 
L 120.862705 185.52 
L 117.747608 185.52 
L 114.632512 185.52 
L 111.517415 185.52 
L 108.402318 185.52 
L 105.287222 185.52 
L 102.172125 185.52 
L 99.057029 185.52 
L 95.941932 185.52 
L 92.826835 185.52 
L 89.711739 185.52 
L 86.596642 185.52 
L 83.481546 185.52 
L 80.366449 185.52 
L 77.251352 185.52 
L 74.136256 185.52 
L 71.021159 185.52 
L 67.906063 185.52 
L 64.790966 185.52 
L 61.675869 185.52 
L 58.560773 185.52 
L 55.445676 185.52 
L 52.33058 185.52 
L 49.215483 185.52 
L 46.100386 185.52 
L 42.98529 185.52 
L 39.870193 185.52 
L 36.755097 185.52 
L 33.64 185.52 
" clip-path="url(#p30744c9129)" style="fill: none; stroke: #2c728e; stroke-width: 1.5"/>
   </g>
   <g id="PathCollection_5">
    <path d="M 229.891086 317.72 
L 229.891086 314.782222 
L 229.891086 311.844444 
L 229.891086 308.906667 
L 229.891086 305.968889 
L 229.891086 303.031111 
L 229.891086 300.883517 
" clip-path="url(#p30744c9129)" style="fill: none; stroke: #21918c; stroke-width: 1.5"/>
    <path d="M 229.891086 275.800928 
L 229.891086 273.653333 
L 229.891086 270.715556 
L 229.891086 267.777778 
L 229.891086 264.84 
L 229.891086 261.902222 
L 229.891086 258.964444 
L 229.891086 256.026667 
L 229.891086 253.088889 
L 229.891086 250.151111 
L 229.891086 247.213333 
L 229.891086 244.275556 
L 229.891086 241.337778 
L 229.891086 238.4 
L 229.891086 235.462222 
L 229.891086 232.524444 
L 229.891086 229.586667 
L 229.891086 226.648889 
L 229.891086 223.711111 
L 229.891086 220.773333 
L 229.891086 217.835556 
L 229.891086 214.897778 
L 229.891086 211.96 
L 229.891086 209.022222 
L 229.891086 206.084444 
L 229.891086 203.146667 
L 229.891086 200.208889 
L 229.891086 197.271111 
L 229.891086 194.333333 
L 229.891086 191.395556 
L 229.891086 188.457778 
L 229.891086 185.52 
L 229.804481 182.582222 
L 229.543778 179.644444 
L 229.106355 176.706667 
L 228.487979 173.768889 
L 227.682999 170.831111 
L 226.775989 168.158329 
L 226.683982 167.893333 
L 225.473892 164.955556 
L 224.046774 162.017778 
L 223.660893 161.319649 
L 222.372784 159.08 
L 220.545796 156.294666 
L 220.44075 156.142222 
L 218.195242 153.204444 
L 217.430699 152.299373 
L 215.600329 150.266667 
L 214.315603 148.960109 
L 212.585925 147.328889 
L 211.200506 146.117292 
L 209.045109 144.391111 
L 208.08541 143.670088 
L 204.970313 141.5524 
L 204.808668 141.453333 
L 201.855216 139.730342 
L 199.480386 138.515556 
L 198.74012 138.15164 
L 195.625023 136.805756 
L 192.509927 135.664548 
L 192.228937 135.577778 
L 189.39483 134.722398 
L 186.279733 133.963239 
L 183.164637 133.380062 
L 180.04954 132.967538 
L 176.934444 132.721675 
L 173.819347 132.64 
L 170.70425 132.64 
L 167.589154 132.64 
L 164.474057 132.64 
L 161.358961 132.64 
L 158.243864 132.64 
L 155.128767 132.64 
L 152.013671 132.64 
L 148.898574 132.64 
L 145.783478 132.64 
L 142.668381 132.64 
L 139.553284 132.64 
L 136.438188 132.64 
L 133.323091 132.64 
L 130.207995 132.64 
L 127.092898 132.64 
L 123.977801 132.64 
L 120.862705 132.64 
L 117.747608 132.64 
L 114.632512 132.64 
L 111.517415 132.64 
L 108.402318 132.64 
L 105.287222 132.64 
L 102.172125 132.64 
L 99.057029 132.64 
L 95.941932 132.64 
L 92.826835 132.64 
L 89.711739 132.64 
L 86.596642 132.64 
L 83.481546 132.64 
L 80.366449 132.64 
L 77.251352 132.64 
L 74.136256 132.64 
L 71.021159 132.64 
L 67.906063 132.64 
L 64.790966 132.64 
L 61.675869 132.64 
L 58.560773 132.64 
L 55.445676 132.64 
L 52.33058 132.64 
L 49.215483 132.64 
L 46.100386 132.64 
L 42.98529 132.64 
L 39.870193 132.64 
L 36.755097 132.64 
L 33.64 132.64 
" clip-path="url(#p30744c9129)" style="fill: none; stroke: #21918c; stroke-width: 1.5"/>
   </g>
   <g id="PathCollection_6">
    <path d="M 285.962825 317.72 
L 285.962825 314.782222 
L 285.962825 311.844444 
L 285.962825 308.906667 
L 285.962825 305.968889 
L 285.962825 303.031111 
L 285.962825 300.883517 
" clip-path="url(#p30744c9129)" style="fill: none; stroke: #28ae80; stroke-width: 1.5"/>
    <path d="M 285.962825 275.800928 
L 285.919551 182.582222 
L 285.572725 176.706667 
L 284.875734 170.831111 
L 283.822047 164.955556 
L 282.401453 159.08 
L 280.598637 153.204444 
L 278.394208 147.328889 
L 275.762759 141.453333 
L 272.669358 135.577778 
L 270.387342 131.762239 
L 267.063315 126.764444 
L 264.157148 122.864845 
L 261.042052 119.054931 
L 257.402497 115.013333 
L 254.509189 112.075556 
L 251.381614 109.137778 
L 247.989555 106.2 
L 244.296125 103.262222 
L 239.236376 99.621329 
L 235.803952 97.386667 
L 229.891086 93.930838 
L 223.660893 90.781173 
L 217.430699 88.085845 
L 211.200506 85.808789 
L 204.970313 83.922947 
L 198.74012 82.4046 
L 192.509927 81.239521 
L 186.279733 80.414956 
L 180.04954 79.923343 
L 173.819347 79.76 
L 33.64 79.76 
L 33.64 79.76 
" clip-path="url(#p30744c9129)" style="fill: none; stroke: #28ae80; stroke-width: 1.5"/>
   </g>
   <g id="PathCollection_7">
    <path d="M 342.034563 185.52 
L 342.005717 182.582222 
L 341.919148 179.644444 
L 341.774765 176.706667 
L 341.572413 173.768889 
L 341.311879 170.831111 
L 340.992893 167.893333 
L 340.615123 164.955556 
L 340.178185 162.017778 
L 339.681638 159.08 
L 339.124992 156.142222 
L 338.919467 155.161788 
L 338.507383 153.204444 
L 337.828183 150.266667 
L 337.086847 147.328889 
L 336.282651 144.391111 
L 335.80437 142.768461 
L 335.414257 141.453333 
L 334.48039 138.515556 
L 333.480777 135.577778 
L 332.689274 133.393742 
L 332.413896 132.64 
L 331.277212 129.702222 
L 330.071233 126.764444 
L 329.574177 125.615539 
L 328.792549 123.826667 
L 327.440184 120.888889 
L 326.45908 118.862654 
L 326.012697 117.951111 
L 324.506136 115.013333 
L 323.343984 112.852556 
L 322.920722 112.075556 
L 321.250955 109.137778 
L 320.228887 107.416211 
L 319.496487 106.2 
L 317.653241 103.262222 
L 317.113791 102.43469 
L 315.716307 100.324444 
L 313.998694 97.832874 
L 313.685858 97.386667 
L 311.552592 94.448889 
L 310.883597 93.559557 
L 309.313954 91.511111 
L 307.768501 89.563986 
L 306.966611 88.573333 
L 304.653404 85.809993 
L 304.504303 85.635556 
L 301.915957 82.697778 
L 301.538308 82.281852 
L 299.908592 80.52693 
" clip-path="url(#p30744c9129)" style="fill: none; stroke: #5ec962; stroke-width: 1.5"/>
    <path d="M 279.487051 62.088205 
L 276.617535 59.9518 
L 275.567088 59.195556 
L 273.502438 57.738073 
L 271.330352 56.257778 
L 270.387342 55.626864 
L 267.272245 53.615028 
L 266.799105 53.32 
L 264.157148 51.700158 
L 261.919532 50.382222 
L 261.042052 49.873479 
L 257.926955 48.135154 
L 256.637336 47.444444 
L 254.811859 46.480556 
L 251.696762 44.905835 
L 250.872864 44.506667 
L 248.581665 43.410667 
L 245.466569 41.989863 
L 244.500007 41.568889 
L 242.351472 40.643632 
L 239.236376 39.368247 
L 237.33953 38.631111 
L 236.121279 38.162349 
L 233.006182 37.025017 
L 229.891086 35.953036 
L 229.091849 35.693333 
L 226.775989 34.946884 
L 223.660893 34.004172 
L 220.545796 33.123463 
L 219.151289 32.755556 
L 217.430699 32.304499 
L 214.315603 31.546081 
L 211.200506 30.846943 
L 208.08541 30.206405 
L 206.009924 29.817778 
L 204.970313 29.623952 
L 201.855216 29.098991 
L 198.74012 28.630709 
L 195.625023 28.218642 
L 192.509927 27.862376 
L 189.39483 27.561547 
L 186.279733 27.315844 
L 183.164637 27.125011 
L 180.04954 26.988845 
L 176.934444 26.907204 
L 173.819347 26.88 
" clip-path="url(#p30744c9129)" style="fill: none; stroke: #5ec962; stroke-width: 1.5"/>
   </g>
   <g id="PathCollection_8">
    <path d="M 342.034563 45.616759 
L 340.990088 44.506667 
L 338.919467 42.353632 
L 338.151056 41.568889 
L 335.80437 39.222334 
L 335.201926 38.631111 
L 332.689274 36.214795 
L 332.136337 35.693333 
L 329.574177 33.323708 
L 328.947269 32.755556 
L 326.45908 30.542449 
L 325.626971 29.817778 
L 323.343984 27.865021 
L 322.166889 26.88 
" clip-path="url(#p30744c9129)" style="fill: none; stroke: #addc30; stroke-width: 1.5"/>
   </g>
   <g id="PathCollection_9"/>
   <g id="line2d_13">
    <path d="M 159.240695 307.4084 
L 159.240695 146.1244 
" clip-path="url(#p30744c9129)" style="fill: none; stroke: #000000; stroke-width: 0.5; stroke-linecap: square"/>
   </g>
   <g id="line2d_14">
    <path d="M 112.98151 249.2404 
L 276.430629 117.5692 
" clip-path="url(#p30744c9129)" style="fill: none; stroke: #000000; stroke-width: 0.5; stroke-linecap: square"/>
   </g>
   <g id="patch_3">
    <path d="M 33.64 317.72 
L 33.64 26.88 
" style="fill: none; stroke: #000000; stroke-width: 0.8; stroke-linejoin: miter; stroke-linecap: square"/>
   </g>
   <g id="patch_4">
    <path d="M 342.034563 317.72 
L 342.034563 26.88 
" style="fill: none; stroke: #000000; stroke-width: 0.8; stroke-linejoin: miter; stroke-linecap: square"/>
   </g>
   <g id="patch_5">
    <path d="M 33.64 317.72 
L 342.034563 317.72 
" style="fill: none; stroke: #000000; stroke-width: 0.8; stroke-linejoin: miter; stroke-linecap: square"/>
   </g>
   <g id="patch_6">
    <path d="M 33.64 26.88 
L 342.034563 26.88 
" style="fill: none; stroke: #000000; stroke-width: 0.8; stroke-linejoin: miter; stroke-linecap: square"/>
   </g>
   <g id="PathCollection_10">
    <defs>
     <path id="m3ad4c4df37" d="M 0 2.236068 
C 0.593012 2.236068 1.161816 2.000462 1.581139 1.581139 
C 2.000462 1.161816 2.236068 0.593012 2.236068 0 
C 2.236068 -0.593012 2.000462 -1.161816 1.581139 -1.581139 
C 1.161816 -2.000462 0.593012 -2.236068 0 -2.236068 
C -0.593012 -2.236068 -1.161816 -2.000462 -1.581139 -1.581139 
C -2.000462 -1.161816 -2.236068 -0.593012 -2.236068 0 
C -2.236068 0.593012 -2.000462 1.161816 -1.581139 1.581139 
C -1.161816 2.000462 -0.593012 2.236068 0 2.236068 
z
" style="stroke: #000000"/>
    </defs>
    <g clip-path="url(#p30744c9129)">
     <use xlink:href="#m3ad4c4df37" x="159.240695" y="307.4084" style="stroke: #000000"/>
     <use xlink:href="#m3ad4c4df37" x="159.240695" y="146.1244" style="stroke: #000000"/>
    </g>
   </g>
   <g id="PathCollection_11">
    <path d="M 159.240695 267.919254 
C 159.833707 267.919254 160.402511 267.683648 160.821834 267.264325 
C 161.241157 266.845002 161.476763 266.276198 161.476763 265.683186 
C 161.476763 265.090174 161.241157 264.52137 160.821834 264.102047 
C 160.402511 263.682724 159.833707 263.447118 159.240695 263.447118 
C 158.647683 263.447118 158.078879 263.682724 157.659556 264.102047 
C 157.240233 264.52137 157.004627 265.090174 157.004627 265.683186 
C 157.004627 266.276198 157.240233 266.845002 157.659556 267.264325 
C 158.078879 267.683648 158.647683 267.919254 159.240695 267.919254 
L 159.240695 267.919254 
z
" clip-path="url(#p30744c9129)" style="fill: none; stroke: #ff0000"/>
   </g>
   <g id="PathCollection_12">
    <g clip-path="url(#p30744c9129)">
     <use xlink:href="#m3ad4c4df37" x="112.98151" y="249.2404" style="stroke: #000000"/>
     <use xlink:href="#m3ad4c4df37" x="276.430629" y="117.5692" style="stroke: #000000"/>
    </g>
   </g>
   <g id="PathCollection_13">
    <path d="M 166.380237 208.459568 
C 166.973249 208.459568 167.542053 208.223962 167.961376 207.804639 
C 168.380699 207.385316 168.616305 206.816512 168.616305 206.2235 
C 168.616305 205.630488 168.380699 205.061684 167.961376 204.642361 
C 167.542053 204.223038 166.973249 203.987432 166.380237 203.987432 
C 165.787225 203.987432 165.218421 204.223038 164.799098 204.642361 
C 164.379775 205.061684 164.144169 205.630488 164.144169 206.2235 
C 164.144169 206.816512 164.379775 207.385316 164.799098 207.804639 
C 165.218421 208.223962 165.787225 208.459568 166.380237 208.459568 
L 166.380237 208.459568 
z
" clip-path="url(#p30744c9129)" style="fill: none; stroke: #ff0000"/>
   </g>
   <g id="text_13">
    <!-- Linear -->
    <g transform="translate(169.189469 20.88)scale(0.12 -0.12)">
     <defs>
      <path id="DejaVuSans-4c" d="M 628 4666 
L 1259 4666 
L 1259 531 
L 3531 531 
L 3531 0 
L 628 0 
L 628 4666 
z
" transform="scale(0.015625)"/>
      <path id="DejaVuSans-69" d="M 603 3500 
L 1178 3500 
L 1178 0 
L 603 0 
L 603 3500 
z
M 603 4863 
L 1178 4863 
L 1178 4134 
L 603 4134 
L 603 4863 
z
" transform="scale(0.015625)"/>
      <path id="DejaVuSans-6e" d="M 3513 2113 
L 3513 0 
L 2938 0 
L 2938 2094 
Q 2938 2591 2744 2837 
Q 2550 3084 2163 3084 
Q 1697 3084 1428 2787 
Q 1159 2491 1159 1978 
L 1159 0 
L 581 0 
L 581 3500 
L 1159 3500 
L 1159 2956 
Q 1366 3272 1645 3428 
Q 1925 3584 2291 3584 
Q 2894 3584 3203 3211 
Q 3513 2838 3513 2113 
z
" transform="scale(0.015625)"/>
      <path id="DejaVuSans-65" d="M 3597 1894 
L 3597 1613 
L 953 1613 
Q 991 1019 1311 708 
Q 1631 397 2203 397 
Q 2534 397 2845 478 
Q 3156 559 3463 722 
L 3463 178 
Q 3153 47 2828 -22 
Q 2503 -91 2169 -91 
Q 1331 -91 842 396 
Q 353 884 353 1716 
Q 353 2575 817 3079 
Q 1281 3584 2069 3584 
Q 2775 3584 3186 3129 
Q 3597 2675 3597 1894 
z
M 3022 2063 
Q 3016 2534 2758 2815 
Q 2500 3097 2075 3097 
Q 1594 3097 1305 2825 
Q 1016 2553 972 2059 
L 3022 2063 
z
" transform="scale(0.015625)"/>
      <path id="DejaVuSans-61" d="M 2194 1759 
Q 1497 1759 1228 1600 
Q 959 1441 959 1056 
Q 959 750 1161 570 
Q 1363 391 1709 391 
Q 2188 391 2477 730 
Q 2766 1069 2766 1631 
L 2766 1759 
L 2194 1759 
z
M 3341 1997 
L 3341 0 
L 2766 0 
L 2766 531 
Q 2569 213 2275 61 
Q 1981 -91 1556 -91 
Q 1019 -91 701 211 
Q 384 513 384 1019 
Q 384 1609 779 1909 
Q 1175 2209 1959 2209 
L 2766 2209 
L 2766 2266 
Q 2766 2663 2505 2880 
Q 2244 3097 1772 3097 
Q 1472 3097 1187 3025 
Q 903 2953 641 2809 
L 641 3341 
Q 956 3463 1253 3523 
Q 1550 3584 1831 3584 
Q 2591 3584 2966 3190 
Q 3341 2797 3341 1997 
z
" transform="scale(0.015625)"/>
      <path id="DejaVuSans-72" d="M 2631 2963 
Q 2534 3019 2420 3045 
Q 2306 3072 2169 3072 
Q 1681 3072 1420 2755 
Q 1159 2438 1159 1844 
L 1159 0 
L 581 0 
L 581 3500 
L 1159 3500 
L 1159 2956 
Q 1341 3275 1631 3429 
Q 1922 3584 2338 3584 
Q 2397 3584 2469 3576 
Q 2541 3569 2628 3553 
L 2631 2963 
z
" transform="scale(0.015625)"/>
     </defs>
     <use xlink:href="#DejaVuSans-4c"/>
     <use xlink:href="#DejaVuSans-69" x="55.712891"/>
     <use xlink:href="#DejaVuSans-6e" x="83.496094"/>
     <use xlink:href="#DejaVuSans-65" x="146.875"/>
     <use xlink:href="#DejaVuSans-61" x="208.398438"/>
     <use xlink:href="#DejaVuSans-72" x="269.677734"/>
    </g>
   </g>
   <g id="text_14">
    <g clip-path="url(#p30744c9129)">
     <!-- −0.2 -->
     <g style="fill: #3b528b" transform="translate(114.988233 258.574149)rotate(-270)scale(0.1 -0.1)">
      <defs>
       <path id="DejaVuSans-2212" d="M 678 2272 
L 4684 2272 
L 4684 1741 
L 678 1741 
L 678 2272 
z
" transform="scale(0.015625)"/>
      </defs>
      <use xlink:href="#DejaVuSans-2212"/>
      <use xlink:href="#DejaVuSans-30" x="83.789062"/>
      <use xlink:href="#DejaVuSans-2e" x="147.412109"/>
      <use xlink:href="#DejaVuSans-32" x="179.199219"/>
     </g>
    </g>
   </g>
   <g id="text_15">
    <g clip-path="url(#p30744c9129)">
     <!-- 0.0 -->
     <g style="fill: #2c728e" transform="translate(171.059972 280.39066)rotate(-270)scale(0.1 -0.1)">
      <use xlink:href="#DejaVuSans-30"/>
      <use xlink:href="#DejaVuSans-2e" x="63.623047"/>
      <use xlink:href="#DejaVuSans-30" x="95.410156"/>
     </g>
    </g>
   </g>
   <g id="text_16">
    <g clip-path="url(#p30744c9129)">
     <!-- 0.2 -->
     <g style="fill: #21918c" transform="translate(227.131711 280.39066)rotate(-270)scale(0.1 -0.1)">
      <use xlink:href="#DejaVuSans-30"/>
      <use xlink:href="#DejaVuSans-2e" x="63.623047"/>
      <use xlink:href="#DejaVuSans-32" x="95.410156"/>
     </g>
    </g>
   </g>
   <g id="text_17">
    <g clip-path="url(#p30744c9129)">
     <!-- 0.4 -->
     <g style="fill: #28ae80" transform="translate(283.20345 280.39066)rotate(-270)scale(0.1 -0.1)">
      <use xlink:href="#DejaVuSans-30"/>
      <use xlink:href="#DejaVuSans-2e" x="63.623047"/>
      <use xlink:href="#DejaVuSans-34" x="95.410156"/>
     </g>
    </g>
   </g>
   <g id="text_18">
    <g clip-path="url(#p30744c9129)">
     <!-- 0.6 -->
     <g style="fill: #5ec962" transform="translate(282.732731 66.991637)rotate(-312.834211)scale(0.1 -0.1)">
      <use xlink:href="#DejaVuSans-30"/>
      <use xlink:href="#DejaVuSans-2e" x="63.623047"/>
      <use xlink:href="#DejaVuSans-36" x="95.410156"/>
     </g>
    </g>
   </g>
  </g>
  <g id="axes_2">
   <g id="patch_7">
    <path d="M 375.674563 317.72 
L 684.069127 317.72 
L 684.069127 26.88 
L 375.674563 26.88 
z
" style="fill: #ffffff"/>
   </g>
   <g id="matplotlib.axis_3">
    <g id="xtick_7">
     <g id="line2d_15">
      <g>
       <use xlink:href="#m95b9957dad" x="375.674563" y="317.72" style="stroke: #000000; stroke-width: 0.8"/>
      </g>
     </g>
     <g id="text_19">
      <!-- 0.0 -->
      <g transform="translate(367.723001 332.318437)scale(0.1 -0.1)">
       <use xlink:href="#DejaVuSans-30"/>
       <use xlink:href="#DejaVuSans-2e" x="63.623047"/>
       <use xlink:href="#DejaVuSans-30" x="95.410156"/>
      </g>
     </g>
    </g>
    <g id="xtick_8">
     <g id="line2d_16">
      <g>
       <use xlink:href="#m95b9957dad" x="431.746302" y="317.72" style="stroke: #000000; stroke-width: 0.8"/>
      </g>
     </g>
     <g id="text_20">
      <!-- 0.2 -->
      <g transform="translate(423.79474 332.318437)scale(0.1 -0.1)">
       <use xlink:href="#DejaVuSans-30"/>
       <use xlink:href="#DejaVuSans-2e" x="63.623047"/>
       <use xlink:href="#DejaVuSans-32" x="95.410156"/>
      </g>
     </g>
    </g>
    <g id="xtick_9">
     <g id="line2d_17">
      <g>
       <use xlink:href="#m95b9957dad" x="487.818041" y="317.72" style="stroke: #000000; stroke-width: 0.8"/>
      </g>
     </g>
     <g id="text_21">
      <!-- 0.4 -->
      <g transform="translate(479.866479 332.318437)scale(0.1 -0.1)">
       <use xlink:href="#DejaVuSans-30"/>
       <use xlink:href="#DejaVuSans-2e" x="63.623047"/>
       <use xlink:href="#DejaVuSans-34" x="95.410156"/>
      </g>
     </g>
    </g>
    <g id="xtick_10">
     <g id="line2d_18">
      <g>
       <use xlink:href="#m95b9957dad" x="543.88978" y="317.72" style="stroke: #000000; stroke-width: 0.8"/>
      </g>
     </g>
     <g id="text_22">
      <!-- 0.6 -->
      <g transform="translate(535.938217 332.318437)scale(0.1 -0.1)">
       <use xlink:href="#DejaVuSans-30"/>
       <use xlink:href="#DejaVuSans-2e" x="63.623047"/>
       <use xlink:href="#DejaVuSans-36" x="95.410156"/>
      </g>
     </g>
    </g>
    <g id="xtick_11">
     <g id="line2d_19">
      <g>
       <use xlink:href="#m95b9957dad" x="599.961519" y="317.72" style="stroke: #000000; stroke-width: 0.8"/>
      </g>
     </g>
     <g id="text_23">
      <!-- 0.8 -->
      <g transform="translate(592.009956 332.318437)scale(0.1 -0.1)">
       <use xlink:href="#DejaVuSans-30"/>
       <use xlink:href="#DejaVuSans-2e" x="63.623047"/>
       <use xlink:href="#DejaVuSans-38" x="95.410156"/>
      </g>
     </g>
    </g>
    <g id="xtick_12">
     <g id="line2d_20">
      <g>
       <use xlink:href="#m95b9957dad" x="656.033258" y="317.72" style="stroke: #000000; stroke-width: 0.8"/>
      </g>
     </g>
     <g id="text_24">
      <!-- 1.0 -->
      <g transform="translate(648.081695 332.318437)scale(0.1 -0.1)">
       <use xlink:href="#DejaVuSans-31"/>
       <use xlink:href="#DejaVuSans-2e" x="63.623047"/>
       <use xlink:href="#DejaVuSans-30" x="95.410156"/>
      </g>
     </g>
    </g>
   </g>
   <g id="matplotlib.axis_4">
    <g id="ytick_7">
     <g id="line2d_21">
      <g>
       <use xlink:href="#m1d3f36c1a0" x="375.674563" y="317.72" style="stroke: #000000; stroke-width: 0.8"/>
      </g>
     </g>
     <g id="text_25">
      <!-- 0.0 -->
      <g transform="translate(352.771438 321.519219)scale(0.1 -0.1)">
       <use xlink:href="#DejaVuSans-30"/>
       <use xlink:href="#DejaVuSans-2e" x="63.623047"/>
       <use xlink:href="#DejaVuSans-30" x="95.410156"/>
      </g>
     </g>
    </g>
    <g id="ytick_8">
     <g id="line2d_22">
      <g>
       <use xlink:href="#m1d3f36c1a0" x="375.674563" y="264.84" style="stroke: #000000; stroke-width: 0.8"/>
      </g>
     </g>
     <g id="text_26">
      <!-- 0.2 -->
      <g transform="translate(352.771438 268.639219)scale(0.1 -0.1)">
       <use xlink:href="#DejaVuSans-30"/>
       <use xlink:href="#DejaVuSans-2e" x="63.623047"/>
       <use xlink:href="#DejaVuSans-32" x="95.410156"/>
      </g>
     </g>
    </g>
    <g id="ytick_9">
     <g id="line2d_23">
      <g>
       <use xlink:href="#m1d3f36c1a0" x="375.674563" y="211.96" style="stroke: #000000; stroke-width: 0.8"/>
      </g>
     </g>
     <g id="text_27">
      <!-- 0.4 -->
      <g transform="translate(352.771438 215.759219)scale(0.1 -0.1)">
       <use xlink:href="#DejaVuSans-30"/>
       <use xlink:href="#DejaVuSans-2e" x="63.623047"/>
       <use xlink:href="#DejaVuSans-34" x="95.410156"/>
      </g>
     </g>
    </g>
    <g id="ytick_10">
     <g id="line2d_24">
      <g>
       <use xlink:href="#m1d3f36c1a0" x="375.674563" y="159.08" style="stroke: #000000; stroke-width: 0.8"/>
      </g>
     </g>
     <g id="text_28">
      <!-- 0.6 -->
      <g transform="translate(352.771438 162.879219)scale(0.1 -0.1)">
       <use xlink:href="#DejaVuSans-30"/>
       <use xlink:href="#DejaVuSans-2e" x="63.623047"/>
       <use xlink:href="#DejaVuSans-36" x="95.410156"/>
      </g>
     </g>
    </g>
    <g id="ytick_11">
     <g id="line2d_25">
      <g>
       <use xlink:href="#m1d3f36c1a0" x="375.674563" y="106.2" style="stroke: #000000; stroke-width: 0.8"/>
      </g>
     </g>
     <g id="text_29">
      <!-- 0.8 -->
      <g transform="translate(352.771438 109.999219)scale(0.1 -0.1)">
       <use xlink:href="#DejaVuSans-30"/>
       <use xlink:href="#DejaVuSans-2e" x="63.623047"/>
       <use xlink:href="#DejaVuSans-38" x="95.410156"/>
      </g>
     </g>
    </g>
    <g id="ytick_12">
     <g id="line2d_26">
      <g>
       <use xlink:href="#m1d3f36c1a0" x="375.674563" y="53.32" style="stroke: #000000; stroke-width: 0.8"/>
      </g>
     </g>
     <g id="text_30">
      <!-- 1.0 -->
      <g transform="translate(352.771438 57.119219)scale(0.1 -0.1)">
       <use xlink:href="#DejaVuSans-31"/>
       <use xlink:href="#DejaVuSans-2e" x="63.623047"/>
       <use xlink:href="#DejaVuSans-30" x="95.410156"/>
      </g>
     </g>
    </g>
   </g>
   <g id="PathCollection_14"/>
   <g id="PathCollection_15">
    <path d="M 403.710433 317.72 
L 403.710433 314.782222 
L 403.710433 311.844444 
L 403.710433 308.906667 
L 403.710433 305.968889 
L 403.710433 303.031111 
L 403.710433 300.093333 
L 403.710433 297.155556 
L 403.710433 294.217778 
L 400.595336 291.28 
L 397.48024 291.28 
L 394.365143 291.28 
L 391.250046 291.28 
L 388.13495 291.28 
L 385.019853 291.28 
L 381.904757 291.28 
L 378.78966 291.28 
L 375.674563 291.28 
" clip-path="url(#p02b7e23b47)" style="fill: none; stroke: #472d7b; stroke-width: 1.5"/>
   </g>
   <g id="PathCollection_16">
    <path d="M 459.782172 317.72 
L 459.782172 314.782222 
L 459.782172 311.844444 
L 459.782172 308.906667 
L 459.782172 305.968889 
L 459.782172 303.031111 
L 459.782172 300.093333 
L 459.782172 297.155556 
L 459.782172 294.217778 
L 459.782172 291.28 
L 459.782172 288.342222 
L 459.782172 287.830734 
" clip-path="url(#p02b7e23b47)" style="fill: none; stroke: #3b528b; stroke-width: 1.5"/>
    <path d="M 459.782172 253.600377 
L 459.782172 253.088889 
L 459.782172 250.151111 
L 459.782172 247.213333 
L 459.782172 244.275556 
L 459.782172 241.337778 
L 456.667075 238.4 
L 453.551978 238.4 
L 450.436882 238.4 
L 447.321785 238.4 
L 444.206689 238.4 
L 441.091592 238.4 
L 437.976495 238.4 
L 434.861399 238.4 
L 431.746302 238.4 
L 428.631206 238.4 
L 425.516109 238.4 
L 422.401012 238.4 
L 419.285916 238.4 
L 416.170819 238.4 
L 413.055723 238.4 
L 409.940626 238.4 
L 406.825529 238.4 
L 403.710433 238.4 
L 400.595336 238.4 
L 397.48024 238.4 
L 394.365143 238.4 
L 391.250046 238.4 
L 388.13495 238.4 
L 385.019853 238.4 
L 381.904757 238.4 
L 378.78966 238.4 
L 375.674563 238.4 
" clip-path="url(#p02b7e23b47)" style="fill: none; stroke: #3b528b; stroke-width: 1.5"/>
   </g>
   <g id="PathCollection_17">
    <path d="M 515.85391 317.72 
L 515.85391 314.782222 
L 515.85391 311.844444 
L 515.85391 308.906667 
L 515.85391 305.968889 
L 515.85391 303.031111 
L 515.85391 300.883517 
" clip-path="url(#p02b7e23b47)" style="fill: none; stroke: #2c728e; stroke-width: 1.5"/>
    <path d="M 515.85391 275.800928 
L 515.85391 273.653333 
L 515.85391 270.715556 
L 515.85391 267.777778 
L 515.85391 264.84 
L 515.85391 261.902222 
L 515.85391 258.964444 
L 515.85391 256.026667 
L 515.85391 253.088889 
L 515.85391 250.151111 
L 515.85391 247.213333 
L 515.85391 244.275556 
L 515.85391 241.337778 
L 515.85391 238.4 
L 515.85391 235.462222 
L 515.85391 232.524444 
L 515.85391 229.586667 
L 515.85391 226.648889 
L 515.85391 223.711111 
L 515.85391 220.773333 
L 515.85391 217.835556 
L 515.85391 214.897778 
L 515.85391 211.96 
L 515.85391 209.022222 
L 515.85391 206.084444 
L 515.85391 203.146667 
L 515.85391 200.208889 
L 515.85391 197.271111 
L 515.85391 194.333333 
L 515.85391 191.395556 
L 515.85391 188.457778 
L 515.85391 185.52 
L 512.738814 185.52 
L 509.623717 185.52 
L 506.508621 185.52 
L 503.393524 185.52 
L 500.278427 185.52 
L 497.163331 185.52 
L 494.048234 185.52 
L 490.933138 185.52 
L 487.818041 185.52 
L 484.702944 185.52 
L 481.587848 185.52 
L 478.472751 185.52 
L 475.357655 185.52 
L 472.242558 185.52 
L 469.127461 185.52 
L 466.012365 185.52 
L 462.897268 185.52 
L 459.782172 185.52 
L 456.667075 185.52 
L 453.551978 185.52 
L 450.436882 185.52 
L 447.321785 185.52 
L 444.206689 185.52 
L 441.091592 185.52 
L 437.976495 185.52 
L 434.861399 185.52 
L 431.746302 185.52 
L 428.631206 185.52 
L 425.516109 185.52 
L 422.401012 185.52 
L 419.285916 185.52 
L 416.170819 185.52 
L 413.055723 185.52 
L 409.940626 185.52 
L 406.825529 185.52 
L 403.710433 185.52 
L 400.595336 185.52 
L 397.48024 185.52 
L 394.365143 185.52 
L 391.250046 185.52 
L 388.13495 185.52 
L 385.019853 185.52 
L 381.904757 185.52 
L 378.78966 185.52 
L 375.674563 185.52 
" clip-path="url(#p02b7e23b47)" style="fill: none; stroke: #2c728e; stroke-width: 1.5"/>
   </g>
   <g id="PathCollection_18">
    <path d="M 571.925649 317.72 
L 571.925649 314.782222 
L 571.925649 311.844444 
L 571.925649 308.906667 
L 571.925649 305.968889 
L 571.925649 303.031111 
L 571.925649 300.883517 
" clip-path="url(#p02b7e23b47)" style="fill: none; stroke: #21918c; stroke-width: 1.5"/>
    <path d="M 571.925649 275.800928 
L 571.925649 273.653333 
L 571.925649 270.715556 
L 571.925649 267.777778 
L 571.925649 264.84 
L 571.925649 261.902222 
L 571.925649 258.964444 
L 571.925649 256.026667 
L 571.925649 253.088889 
L 571.925649 250.151111 
L 571.925649 247.213333 
L 571.925649 244.275556 
L 571.925649 241.337778 
L 571.925649 238.4 
L 571.925649 235.462222 
L 571.925649 232.524444 
L 571.925649 229.586667 
L 571.925649 226.648889 
L 571.925649 223.711111 
L 571.925649 220.773333 
L 571.925649 217.835556 
L 571.925649 214.897778 
L 571.925649 211.96 
L 571.925649 209.022222 
L 571.925649 206.084444 
L 571.925649 203.146667 
L 571.925649 200.208889 
L 571.925649 197.271111 
L 571.925649 194.333333 
L 571.925649 191.395556 
L 571.925649 188.457778 
L 571.925649 185.52 
L 571.839044 182.582222 
L 571.578341 179.644444 
L 571.140918 176.706667 
L 570.522542 173.768889 
L 569.717562 170.831111 
L 568.810553 168.158329 
L 568.718545 167.893333 
L 567.508456 164.955556 
L 566.081337 162.017778 
L 565.695456 161.319649 
L 564.407347 159.08 
L 562.580359 156.294666 
L 562.475314 156.142222 
L 560.229806 153.204444 
L 559.465263 152.299373 
L 557.634893 150.266667 
L 556.350166 148.960109 
L 554.620488 147.328889 
L 553.23507 146.117292 
L 551.079673 144.391111 
L 550.119973 143.670088 
L 547.004876 141.5524 
L 546.843232 141.453333 
L 543.88978 139.730342 
L 541.51495 138.515556 
L 540.774683 138.15164 
L 537.659587 136.805756 
L 534.54449 135.664548 
L 534.2635 135.577778 
L 531.429393 134.722398 
L 528.314297 133.963239 
L 525.1992 133.380062 
L 522.084104 132.967538 
L 518.969007 132.721675 
L 515.85391 132.64 
L 512.738814 132.64 
L 509.623717 132.64 
L 506.508621 132.64 
L 503.393524 132.64 
L 500.278427 132.64 
L 497.163331 132.64 
L 494.048234 132.64 
L 490.933138 132.64 
L 487.818041 132.64 
L 484.702944 132.64 
L 481.587848 132.64 
L 478.472751 132.64 
L 475.357655 132.64 
L 472.242558 132.64 
L 469.127461 132.64 
L 466.012365 132.64 
L 462.897268 132.64 
L 459.782172 132.64 
L 456.667075 132.64 
L 453.551978 132.64 
L 450.436882 132.64 
L 447.321785 132.64 
L 444.206689 132.64 
L 441.091592 132.64 
L 437.976495 132.64 
L 434.861399 132.64 
L 431.746302 132.64 
L 428.631206 132.64 
L 425.516109 132.64 
L 422.401012 132.64 
L 419.285916 132.64 
L 416.170819 132.64 
L 413.055723 132.64 
L 409.940626 132.64 
L 406.825529 132.64 
L 403.710433 132.64 
L 400.595336 132.64 
L 397.48024 132.64 
L 394.365143 132.64 
L 391.250046 132.64 
L 388.13495 132.64 
L 385.019853 132.64 
L 381.904757 132.64 
L 378.78966 132.64 
L 375.674563 132.64 
" clip-path="url(#p02b7e23b47)" style="fill: none; stroke: #21918c; stroke-width: 1.5"/>
   </g>
   <g id="PathCollection_19">
    <path d="M 627.997388 317.72 
L 627.997388 314.782222 
L 627.997388 311.844444 
L 627.997388 308.906667 
L 627.997388 305.968889 
L 627.997388 303.031111 
L 627.997388 300.883517 
" clip-path="url(#p02b7e23b47)" style="fill: none; stroke: #28ae80; stroke-width: 1.5"/>
    <path d="M 627.997388 275.800928 
L 627.954114 182.582222 
L 627.607289 176.706667 
L 626.910297 170.831111 
L 625.85661 164.955556 
L 624.436016 159.08 
L 622.6332 153.204444 
L 620.428772 147.328889 
L 617.797322 141.453333 
L 614.703922 135.577778 
L 612.421905 131.762239 
L 609.097879 126.764444 
L 606.191712 122.864845 
L 603.076615 119.054931 
L 599.437061 115.013333 
L 596.543752 112.075556 
L 593.416177 109.137778 
L 590.024118 106.2 
L 586.330688 103.262222 
L 581.270939 99.621329 
L 577.838516 97.386667 
L 571.925649 93.930838 
L 565.695456 90.781173 
L 559.465263 88.085845 
L 553.23507 85.808789 
L 547.004876 83.922947 
L 540.774683 82.4046 
L 534.54449 81.239521 
L 528.314297 80.414956 
L 522.084104 79.923343 
L 515.85391 79.76 
L 375.674563 79.76 
L 375.674563 79.76 
" clip-path="url(#p02b7e23b47)" style="fill: none; stroke: #28ae80; stroke-width: 1.5"/>
   </g>
   <g id="PathCollection_20">
    <path d="M 684.069127 185.52 
L 684.040281 182.582222 
L 683.953712 179.644444 
L 683.809328 176.706667 
L 683.606976 173.768889 
L 683.346443 170.831111 
L 683.027456 167.893333 
L 682.649687 164.955556 
L 682.212749 162.017778 
L 681.716202 159.08 
L 681.159555 156.142222 
L 680.95403 155.161788 
L 680.541946 153.204444 
L 679.862747 150.266667 
L 679.12141 147.328889 
L 678.317215 144.391111 
L 677.838934 142.768461 
L 677.44882 141.453333 
L 676.514953 138.515556 
L 675.515341 135.577778 
L 674.723837 133.393742 
L 674.44846 132.64 
L 673.311776 129.702222 
L 672.105796 126.764444 
L 671.608741 125.615539 
L 670.827112 123.826667 
L 669.474747 120.888889 
L 668.493644 118.862654 
L 668.047261 117.951111 
L 666.540699 115.013333 
L 665.378547 112.852556 
L 664.955286 112.075556 
L 663.285518 109.137778 
L 662.263451 107.416211 
L 661.531051 106.2 
L 659.687804 103.262222 
L 659.148354 102.43469 
L 657.75087 100.324444 
L 656.033258 97.832874 
L 655.720422 97.386667 
L 653.587155 94.448889 
L 652.918161 93.559557 
L 651.348517 91.511111 
L 649.803064 89.563986 
L 649.001174 88.573333 
L 646.687968 85.809993 
L 646.538866 85.635556 
L 643.95052 82.697778 
L 643.572871 82.281852 
L 641.943155 80.52693 
" clip-path="url(#p02b7e23b47)" style="fill: none; stroke: #5ec962; stroke-width: 1.5"/>
    <path d="M 621.521614 62.088205 
L 618.652098 59.9518 
L 617.601652 59.195556 
L 615.537002 57.738073 
L 613.364915 56.257778 
L 612.421905 55.626864 
L 609.306808 53.615028 
L 608.833668 53.32 
L 606.191712 51.700158 
L 603.954096 50.382222 
L 603.076615 49.873479 
L 599.961519 48.135154 
L 598.671899 47.444444 
L 596.846422 46.480556 
L 593.731325 44.905835 
L 592.907427 44.506667 
L 590.616229 43.410667 
L 587.501132 41.989863 
L 586.534571 41.568889 
L 584.386036 40.643632 
L 581.270939 39.368247 
L 579.374094 38.631111 
L 578.155842 38.162349 
L 575.040746 37.025017 
L 571.925649 35.953036 
L 571.126413 35.693333 
L 568.810553 34.946884 
L 565.695456 34.004172 
L 562.580359 33.123463 
L 561.185853 32.755556 
L 559.465263 32.304499 
L 556.350166 31.546081 
L 553.23507 30.846943 
L 550.119973 30.206405 
L 548.044488 29.817778 
L 547.004876 29.623952 
L 543.88978 29.098991 
L 540.774683 28.630709 
L 537.659587 28.218642 
L 534.54449 27.862376 
L 531.429393 27.561547 
L 528.314297 27.315844 
L 525.1992 27.125011 
L 522.084104 26.988845 
L 518.969007 26.907204 
L 515.85391 26.88 
" clip-path="url(#p02b7e23b47)" style="fill: none; stroke: #5ec962; stroke-width: 1.5"/>
   </g>
   <g id="PathCollection_21">
    <path d="M 684.069127 45.616759 
L 683.024652 44.506667 
L 680.95403 42.353632 
L 680.185619 41.568889 
L 677.838934 39.222334 
L 677.236489 38.631111 
L 674.723837 36.214795 
L 674.170901 35.693333 
L 671.608741 33.323708 
L 670.981833 32.755556 
L 668.493644 30.542449 
L 667.661535 29.817778 
L 665.378547 27.865021 
L 664.201452 26.88 
" clip-path="url(#p02b7e23b47)" style="fill: none; stroke: #addc30; stroke-width: 1.5"/>
   </g>
   <g id="PathCollection_22"/>
   <g id="line2d_27">
    <path d="M 501.275258 307.4084 
L 501.275258 146.1244 
" clip-path="url(#p02b7e23b47)" style="fill: none; stroke: #000000; stroke-width: 0.5; stroke-linecap: square"/>
   </g>
   <g id="line2d_28">
    <path d="M 455.016074 249.2404 
L 618.465193 117.5692 
" clip-path="url(#p02b7e23b47)" style="fill: none; stroke: #000000; stroke-width: 0.5; stroke-linecap: square"/>
   </g>
   <g id="patch_8">
    <path d="M 375.674563 317.72 
L 375.674563 26.88 
" style="fill: none; stroke: #000000; stroke-width: 0.8; stroke-linejoin: miter; stroke-linecap: square"/>
   </g>
   <g id="patch_9">
    <path d="M 684.069127 317.72 
L 684.069127 26.88 
" style="fill: none; stroke: #000000; stroke-width: 0.8; stroke-linejoin: miter; stroke-linecap: square"/>
   </g>
   <g id="patch_10">
    <path d="M 375.674563 317.72 
L 684.069127 317.72 
" style="fill: none; stroke: #000000; stroke-width: 0.8; stroke-linejoin: miter; stroke-linecap: square"/>
   </g>
   <g id="patch_11">
    <path d="M 375.674563 26.88 
L 684.069127 26.88 
" style="fill: none; stroke: #000000; stroke-width: 0.8; stroke-linejoin: miter; stroke-linecap: square"/>
   </g>
   <g id="PathCollection_23">
    <g clip-path="url(#p02b7e23b47)">
     <use xlink:href="#m3ad4c4df37" x="501.275258" y="307.4084" style="stroke: #000000"/>
     <use xlink:href="#m3ad4c4df37" x="501.275258" y="146.1244" style="stroke: #000000"/>
    </g>
   </g>
   <g id="PathCollection_24">
    <path d="M 501.275258 267.919254 
C 501.868271 267.919254 502.437074 267.683648 502.856397 267.264325 
C 503.27572 266.845002 503.511326 266.276198 503.511326 265.683186 
C 503.511326 265.090174 503.27572 264.52137 502.856397 264.102047 
C 502.437074 263.682724 501.868271 263.447118 501.275258 263.447118 
C 500.682246 263.447118 500.113442 263.682724 499.69412 264.102047 
C 499.274797 264.52137 499.03919 265.090174 499.03919 265.683186 
C 499.03919 266.276198 499.274797 266.845002 499.69412 267.264325 
C 500.113442 267.683648 500.682246 267.919254 501.275258 267.919254 
L 501.275258 267.919254 
z
" clip-path="url(#p02b7e23b47)" style="fill: none; stroke: #ff0000"/>
   </g>
   <g id="PathCollection_25">
    <g clip-path="url(#p02b7e23b47)">
     <use xlink:href="#m3ad4c4df37" x="455.016074" y="249.2404" style="stroke: #000000"/>
     <use xlink:href="#m3ad4c4df37" x="618.465193" y="117.5692" style="stroke: #000000"/>
    </g>
   </g>
   <g id="PathCollection_26">
    <path d="M 515.85391 202.466776 
C 516.446923 202.466776 517.015726 202.23117 517.435049 201.811847 
C 517.854372 201.392524 518.089978 200.82372 518.089978 200.230708 
C 518.089978 199.637696 517.854372 199.068892 517.435049 198.649569 
C 517.015726 198.230246 516.446923 197.99464 515.85391 197.99464 
C 515.260898 197.99464 514.692095 198.230246 514.272772 198.649569 
C 513.853449 199.068892 513.617843 199.637696 513.617843 200.230708 
C 513.617843 200.82372 513.853449 201.392524 514.272772 201.811847 
C 514.692095 202.23117 515.260898 202.466776 515.85391 202.466776 
L 515.85391 202.466776 
z
" clip-path="url(#p02b7e23b47)" style="fill: none; stroke: #ff0000"/>
   </g>
   <g id="text_31">
    <!-- Directional Newton -->
    <g transform="translate(472.605595 20.88)scale(0.12 -0.12)">
     <defs>
      <path id="DejaVuSans-44" d="M 1259 4147 
L 1259 519 
L 2022 519 
Q 2988 519 3436 956 
Q 3884 1394 3884 2338 
Q 3884 3275 3436 3711 
Q 2988 4147 2022 4147 
L 1259 4147 
z
M 628 4666 
L 1925 4666 
Q 3281 4666 3915 4102 
Q 4550 3538 4550 2338 
Q 4550 1131 3912 565 
Q 3275 0 1925 0 
L 628 0 
L 628 4666 
z
" transform="scale(0.015625)"/>
      <path id="DejaVuSans-63" d="M 3122 3366 
L 3122 2828 
Q 2878 2963 2633 3030 
Q 2388 3097 2138 3097 
Q 1578 3097 1268 2742 
Q 959 2388 959 1747 
Q 959 1106 1268 751 
Q 1578 397 2138 397 
Q 2388 397 2633 464 
Q 2878 531 3122 666 
L 3122 134 
Q 2881 22 2623 -34 
Q 2366 -91 2075 -91 
Q 1284 -91 818 406 
Q 353 903 353 1747 
Q 353 2603 823 3093 
Q 1294 3584 2113 3584 
Q 2378 3584 2631 3529 
Q 2884 3475 3122 3366 
z
" transform="scale(0.015625)"/>
      <path id="DejaVuSans-74" d="M 1172 4494 
L 1172 3500 
L 2356 3500 
L 2356 3053 
L 1172 3053 
L 1172 1153 
Q 1172 725 1289 603 
Q 1406 481 1766 481 
L 2356 481 
L 2356 0 
L 1766 0 
Q 1100 0 847 248 
Q 594 497 594 1153 
L 594 3053 
L 172 3053 
L 172 3500 
L 594 3500 
L 594 4494 
L 1172 4494 
z
" transform="scale(0.015625)"/>
      <path id="DejaVuSans-6f" d="M 1959 3097 
Q 1497 3097 1228 2736 
Q 959 2375 959 1747 
Q 959 1119 1226 758 
Q 1494 397 1959 397 
Q 2419 397 2687 759 
Q 2956 1122 2956 1747 
Q 2956 2369 2687 2733 
Q 2419 3097 1959 3097 
z
M 1959 3584 
Q 2709 3584 3137 3096 
Q 3566 2609 3566 1747 
Q 3566 888 3137 398 
Q 2709 -91 1959 -91 
Q 1206 -91 779 398 
Q 353 888 353 1747 
Q 353 2609 779 3096 
Q 1206 3584 1959 3584 
z
" transform="scale(0.015625)"/>
      <path id="DejaVuSans-6c" d="M 603 4863 
L 1178 4863 
L 1178 0 
L 603 0 
L 603 4863 
z
" transform="scale(0.015625)"/>
      <path id="DejaVuSans-20" transform="scale(0.015625)"/>
      <path id="DejaVuSans-4e" d="M 628 4666 
L 1478 4666 
L 3547 763 
L 3547 4666 
L 4159 4666 
L 4159 0 
L 3309 0 
L 1241 3903 
L 1241 0 
L 628 0 
L 628 4666 
z
" transform="scale(0.015625)"/>
      <path id="DejaVuSans-77" d="M 269 3500 
L 844 3500 
L 1563 769 
L 2278 3500 
L 2956 3500 
L 3675 769 
L 4391 3500 
L 4966 3500 
L 4050 0 
L 3372 0 
L 2619 2869 
L 1863 0 
L 1184 0 
L 269 3500 
z
" transform="scale(0.015625)"/>
     </defs>
     <use xlink:href="#DejaVuSans-44"/>
     <use xlink:href="#DejaVuSans-69" x="77.001953"/>
     <use xlink:href="#DejaVuSans-72" x="104.785156"/>
     <use xlink:href="#DejaVuSans-65" x="143.648438"/>
     <use xlink:href="#DejaVuSans-63" x="205.171875"/>
     <use xlink:href="#DejaVuSans-74" x="260.152344"/>
     <use xlink:href="#DejaVuSans-69" x="299.361328"/>
     <use xlink:href="#DejaVuSans-6f" x="327.144531"/>
     <use xlink:href="#DejaVuSans-6e" x="388.326172"/>
     <use xlink:href="#DejaVuSans-61" x="451.705078"/>
     <use xlink:href="#DejaVuSans-6c" x="512.984375"/>
     <use xlink:href="#DejaVuSans-20" x="540.767578"/>
     <use xlink:href="#DejaVuSans-4e" x="572.554688"/>
     <use xlink:href="#DejaVuSans-65" x="647.359375"/>
     <use xlink:href="#DejaVuSans-77" x="708.882812"/>
     <use xlink:href="#DejaVuSans-74" x="790.669922"/>
     <use xlink:href="#DejaVuSans-6f" x="829.878906"/>
     <use xlink:href="#DejaVuSans-6e" x="891.060547"/>
    </g>
   </g>
   <g id="text_32">
    <g clip-path="url(#p02b7e23b47)">
     <!-- −0.2 -->
     <g style="fill: #3b528b" transform="translate(457.022797 258.574149)rotate(-270)scale(0.1 -0.1)">
      <use xlink:href="#DejaVuSans-2212"/>
      <use xlink:href="#DejaVuSans-30" x="83.789062"/>
      <use xlink:href="#DejaVuSans-2e" x="147.412109"/>
      <use xlink:href="#DejaVuSans-32" x="179.199219"/>
     </g>
    </g>
   </g>
   <g id="text_33">
    <g clip-path="url(#p02b7e23b47)">
     <!-- 0.0 -->
     <g style="fill: #2c728e" transform="translate(513.094535 280.39066)rotate(-270)scale(0.1 -0.1)">
      <use xlink:href="#DejaVuSans-30"/>
      <use xlink:href="#DejaVuSans-2e" x="63.623047"/>
      <use xlink:href="#DejaVuSans-30" x="95.410156"/>
     </g>
    </g>
   </g>
   <g id="text_34">
    <g clip-path="url(#p02b7e23b47)">
     <!-- 0.2 -->
     <g style="fill: #21918c" transform="translate(569.166274 280.39066)rotate(-270)scale(0.1 -0.1)">
      <use xlink:href="#DejaVuSans-30"/>
      <use xlink:href="#DejaVuSans-2e" x="63.623047"/>
      <use xlink:href="#DejaVuSans-32" x="95.410156"/>
     </g>
    </g>
   </g>
   <g id="text_35">
    <g clip-path="url(#p02b7e23b47)">
     <!-- 0.4 -->
     <g style="fill: #28ae80" transform="translate(625.238013 280.39066)rotate(-270)scale(0.1 -0.1)">
      <use xlink:href="#DejaVuSans-30"/>
      <use xlink:href="#DejaVuSans-2e" x="63.623047"/>
      <use xlink:href="#DejaVuSans-34" x="95.410156"/>
     </g>
    </g>
   </g>
   <g id="text_36">
    <g clip-path="url(#p02b7e23b47)">
     <!-- 0.6 -->
     <g style="fill: #5ec962" transform="translate(624.767294 66.991637)rotate(-312.834211)scale(0.1 -0.1)">
      <use xlink:href="#DejaVuSans-30"/>
      <use xlink:href="#DejaVuSans-2e" x="63.623047"/>
      <use xlink:href="#DejaVuSans-36" x="95.410156"/>
     </g>
    </g>
   </g>
  </g>
  <g id="axes_3">
   <g id="patch_12">
    <path d="M 717.709127 317.72 
L 1026.10369 317.72 
L 1026.10369 26.88 
L 717.709127 26.88 
z
" style="fill: #ffffff"/>
   </g>
   <g id="matplotlib.axis_5">
    <g id="xtick_13">
     <g id="line2d_29">
      <g>
       <use xlink:href="#m95b9957dad" x="717.709127" y="317.72" style="stroke: #000000; stroke-width: 0.8"/>
      </g>
     </g>
     <g id="text_37">
      <!-- 0.0 -->
      <g transform="translate(709.757564 332.318437)scale(0.1 -0.1)">
       <use xlink:href="#DejaVuSans-30"/>
       <use xlink:href="#DejaVuSans-2e" x="63.623047"/>
       <use xlink:href="#DejaVuSans-30" x="95.410156"/>
      </g>
     </g>
    </g>
    <g id="xtick_14">
     <g id="line2d_30">
      <g>
       <use xlink:href="#m95b9957dad" x="773.780866" y="317.72" style="stroke: #000000; stroke-width: 0.8"/>
      </g>
     </g>
     <g id="text_38">
      <!-- 0.2 -->
      <g transform="translate(765.829303 332.318437)scale(0.1 -0.1)">
       <use xlink:href="#DejaVuSans-30"/>
       <use xlink:href="#DejaVuSans-2e" x="63.623047"/>
       <use xlink:href="#DejaVuSans-32" x="95.410156"/>
      </g>
     </g>
    </g>
    <g id="xtick_15">
     <g id="line2d_31">
      <g>
       <use xlink:href="#m95b9957dad" x="829.852605" y="317.72" style="stroke: #000000; stroke-width: 0.8"/>
      </g>
     </g>
     <g id="text_39">
      <!-- 0.4 -->
      <g transform="translate(821.901042 332.318437)scale(0.1 -0.1)">
       <use xlink:href="#DejaVuSans-30"/>
       <use xlink:href="#DejaVuSans-2e" x="63.623047"/>
       <use xlink:href="#DejaVuSans-34" x="95.410156"/>
      </g>
     </g>
    </g>
    <g id="xtick_16">
     <g id="line2d_32">
      <g>
       <use xlink:href="#m95b9957dad" x="885.924343" y="317.72" style="stroke: #000000; stroke-width: 0.8"/>
      </g>
     </g>
     <g id="text_40">
      <!-- 0.6 -->
      <g transform="translate(877.972781 332.318437)scale(0.1 -0.1)">
       <use xlink:href="#DejaVuSans-30"/>
       <use xlink:href="#DejaVuSans-2e" x="63.623047"/>
       <use xlink:href="#DejaVuSans-36" x="95.410156"/>
      </g>
     </g>
    </g>
    <g id="xtick_17">
     <g id="line2d_33">
      <g>
       <use xlink:href="#m95b9957dad" x="941.996082" y="317.72" style="stroke: #000000; stroke-width: 0.8"/>
      </g>
     </g>
     <g id="text_41">
      <!-- 0.8 -->
      <g transform="translate(934.04452 332.318437)scale(0.1 -0.1)">
       <use xlink:href="#DejaVuSans-30"/>
       <use xlink:href="#DejaVuSans-2e" x="63.623047"/>
       <use xlink:href="#DejaVuSans-38" x="95.410156"/>
      </g>
     </g>
    </g>
    <g id="xtick_18">
     <g id="line2d_34">
      <g>
       <use xlink:href="#m95b9957dad" x="998.067821" y="317.72" style="stroke: #000000; stroke-width: 0.8"/>
      </g>
     </g>
     <g id="text_42">
      <!-- 1.0 -->
      <g transform="translate(990.116258 332.318437)scale(0.1 -0.1)">
       <use xlink:href="#DejaVuSans-31"/>
       <use xlink:href="#DejaVuSans-2e" x="63.623047"/>
       <use xlink:href="#DejaVuSans-30" x="95.410156"/>
      </g>
     </g>
    </g>
   </g>
   <g id="matplotlib.axis_6">
    <g id="ytick_13">
     <g id="line2d_35">
      <g>
       <use xlink:href="#m1d3f36c1a0" x="717.709127" y="317.72" style="stroke: #000000; stroke-width: 0.8"/>
      </g>
     </g>
     <g id="text_43">
      <!-- 0.0 -->
      <g transform="translate(694.806002 321.519219)scale(0.1 -0.1)">
       <use xlink:href="#DejaVuSans-30"/>
       <use xlink:href="#DejaVuSans-2e" x="63.623047"/>
       <use xlink:href="#DejaVuSans-30" x="95.410156"/>
      </g>
     </g>
    </g>
    <g id="ytick_14">
     <g id="line2d_36">
      <g>
       <use xlink:href="#m1d3f36c1a0" x="717.709127" y="264.84" style="stroke: #000000; stroke-width: 0.8"/>
      </g>
     </g>
     <g id="text_44">
      <!-- 0.2 -->
      <g transform="translate(694.806002 268.639219)scale(0.1 -0.1)">
       <use xlink:href="#DejaVuSans-30"/>
       <use xlink:href="#DejaVuSans-2e" x="63.623047"/>
       <use xlink:href="#DejaVuSans-32" x="95.410156"/>
      </g>
     </g>
    </g>
    <g id="ytick_15">
     <g id="line2d_37">
      <g>
       <use xlink:href="#m1d3f36c1a0" x="717.709127" y="211.96" style="stroke: #000000; stroke-width: 0.8"/>
      </g>
     </g>
     <g id="text_45">
      <!-- 0.4 -->
      <g transform="translate(694.806002 215.759219)scale(0.1 -0.1)">
       <use xlink:href="#DejaVuSans-30"/>
       <use xlink:href="#DejaVuSans-2e" x="63.623047"/>
       <use xlink:href="#DejaVuSans-34" x="95.410156"/>
      </g>
     </g>
    </g>
    <g id="ytick_16">
     <g id="line2d_38">
      <g>
       <use xlink:href="#m1d3f36c1a0" x="717.709127" y="159.08" style="stroke: #000000; stroke-width: 0.8"/>
      </g>
     </g>
     <g id="text_46">
      <!-- 0.6 -->
      <g transform="translate(694.806002 162.879219)scale(0.1 -0.1)">
       <use xlink:href="#DejaVuSans-30"/>
       <use xlink:href="#DejaVuSans-2e" x="63.623047"/>
       <use xlink:href="#DejaVuSans-36" x="95.410156"/>
      </g>
     </g>
    </g>
    <g id="ytick_17">
     <g id="line2d_39">
      <g>
       <use xlink:href="#m1d3f36c1a0" x="717.709127" y="106.2" style="stroke: #000000; stroke-width: 0.8"/>
      </g>
     </g>
     <g id="text_47">
      <!-- 0.8 -->
      <g transform="translate(694.806002 109.999219)scale(0.1 -0.1)">
       <use xlink:href="#DejaVuSans-30"/>
       <use xlink:href="#DejaVuSans-2e" x="63.623047"/>
       <use xlink:href="#DejaVuSans-38" x="95.410156"/>
      </g>
     </g>
    </g>
    <g id="ytick_18">
     <g id="line2d_40">
      <g>
       <use xlink:href="#m1d3f36c1a0" x="717.709127" y="53.32" style="stroke: #000000; stroke-width: 0.8"/>
      </g>
     </g>
     <g id="text_48">
      <!-- 1.0 -->
      <g transform="translate(694.806002 57.119219)scale(0.1 -0.1)">
       <use xlink:href="#DejaVuSans-31"/>
       <use xlink:href="#DejaVuSans-2e" x="63.623047"/>
       <use xlink:href="#DejaVuSans-30" x="95.410156"/>
      </g>
     </g>
    </g>
   </g>
   <g id="PathCollection_27"/>
   <g id="PathCollection_28">
    <path d="M 745.744996 317.72 
L 745.744996 314.782222 
L 745.744996 311.844444 
L 745.744996 308.906667 
L 745.744996 305.968889 
L 745.744996 303.031111 
L 745.744996 300.093333 
L 745.744996 297.155556 
L 745.744996 294.217778 
L 742.6299 291.28 
L 739.514803 291.28 
L 736.399707 291.28 
L 733.28461 291.28 
L 730.169513 291.28 
L 727.054417 291.28 
L 723.93932 291.28 
L 720.824224 291.28 
L 717.709127 291.28 
" clip-path="url(#p8c2ccefe0d)" style="fill: none; stroke: #472d7b; stroke-width: 1.5"/>
   </g>
   <g id="PathCollection_29">
    <path d="M 801.816735 317.72 
L 801.816735 314.782222 
L 801.816735 311.844444 
L 801.816735 308.906667 
L 801.816735 305.968889 
L 801.816735 303.031111 
L 801.816735 300.093333 
L 801.816735 297.155556 
L 801.816735 294.217778 
L 801.816735 291.28 
L 801.816735 288.342222 
L 801.816735 287.830734 
" clip-path="url(#p8c2ccefe0d)" style="fill: none; stroke: #3b528b; stroke-width: 1.5"/>
    <path d="M 801.816735 253.600377 
L 801.816735 253.088889 
L 801.816735 250.151111 
L 801.816735 247.213333 
L 801.816735 244.275556 
L 801.816735 241.337778 
L 798.701639 238.4 
L 795.586542 238.4 
L 792.471445 238.4 
L 789.356349 238.4 
L 786.241252 238.4 
L 783.126156 238.4 
L 780.011059 238.4 
L 776.895962 238.4 
L 773.780866 238.4 
L 770.665769 238.4 
L 767.550673 238.4 
L 764.435576 238.4 
L 761.320479 238.4 
L 758.205383 238.4 
L 755.090286 238.4 
L 751.97519 238.4 
L 748.860093 238.4 
L 745.744996 238.4 
L 742.6299 238.4 
L 739.514803 238.4 
L 736.399707 238.4 
L 733.28461 238.4 
L 730.169513 238.4 
L 727.054417 238.4 
L 723.93932 238.4 
L 720.824224 238.4 
L 717.709127 238.4 
" clip-path="url(#p8c2ccefe0d)" style="fill: none; stroke: #3b528b; stroke-width: 1.5"/>
   </g>
   <g id="PathCollection_30">
    <path d="M 857.888474 317.72 
L 857.888474 314.782222 
L 857.888474 311.844444 
L 857.888474 308.906667 
L 857.888474 305.968889 
L 857.888474 303.031111 
L 857.888474 300.883517 
" clip-path="url(#p8c2ccefe0d)" style="fill: none; stroke: #2c728e; stroke-width: 1.5"/>
    <path d="M 857.888474 275.800928 
L 857.888474 273.653333 
L 857.888474 270.715556 
L 857.888474 267.777778 
L 857.888474 264.84 
L 857.888474 261.902222 
L 857.888474 258.964444 
L 857.888474 256.026667 
L 857.888474 253.088889 
L 857.888474 250.151111 
L 857.888474 247.213333 
L 857.888474 244.275556 
L 857.888474 241.337778 
L 857.888474 238.4 
L 857.888474 235.462222 
L 857.888474 232.524444 
L 857.888474 229.586667 
L 857.888474 226.648889 
L 857.888474 223.711111 
L 857.888474 220.773333 
L 857.888474 217.835556 
L 857.888474 214.897778 
L 857.888474 211.96 
L 857.888474 209.022222 
L 857.888474 206.084444 
L 857.888474 203.146667 
L 857.888474 200.208889 
L 857.888474 197.271111 
L 857.888474 194.333333 
L 857.888474 191.395556 
L 857.888474 188.457778 
L 857.888474 185.52 
L 854.773377 185.52 
L 851.658281 185.52 
L 848.543184 185.52 
L 845.428088 185.52 
L 842.312991 185.52 
L 839.197894 185.52 
L 836.082798 185.52 
L 832.967701 185.52 
L 829.852605 185.52 
L 826.737508 185.52 
L 823.622411 185.52 
L 820.507315 185.52 
L 817.392218 185.52 
L 814.277122 185.52 
L 811.162025 185.52 
L 808.046928 185.52 
L 804.931832 185.52 
L 801.816735 185.52 
L 798.701639 185.52 
L 795.586542 185.52 
L 792.471445 185.52 
L 789.356349 185.52 
L 786.241252 185.52 
L 783.126156 185.52 
L 780.011059 185.52 
L 776.895962 185.52 
L 773.780866 185.52 
L 770.665769 185.52 
L 767.550673 185.52 
L 764.435576 185.52 
L 761.320479 185.52 
L 758.205383 185.52 
L 755.090286 185.52 
L 751.97519 185.52 
L 748.860093 185.52 
L 745.744996 185.52 
L 742.6299 185.52 
L 739.514803 185.52 
L 736.399707 185.52 
L 733.28461 185.52 
L 730.169513 185.52 
L 727.054417 185.52 
L 723.93932 185.52 
L 720.824224 185.52 
L 717.709127 185.52 
" clip-path="url(#p8c2ccefe0d)" style="fill: none; stroke: #2c728e; stroke-width: 1.5"/>
   </g>
   <g id="PathCollection_31">
    <path d="M 913.960213 317.72 
L 913.960213 314.782222 
L 913.960213 311.844444 
L 913.960213 308.906667 
L 913.960213 305.968889 
L 913.960213 303.031111 
L 913.960213 300.883517 
" clip-path="url(#p8c2ccefe0d)" style="fill: none; stroke: #21918c; stroke-width: 1.5"/>
    <path d="M 913.960213 275.800928 
L 913.960213 273.653333 
L 913.960213 270.715556 
L 913.960213 267.777778 
L 913.960213 264.84 
L 913.960213 261.902222 
L 913.960213 258.964444 
L 913.960213 256.026667 
L 913.960213 253.088889 
L 913.960213 250.151111 
L 913.960213 247.213333 
L 913.960213 244.275556 
L 913.960213 241.337778 
L 913.960213 238.4 
L 913.960213 235.462222 
L 913.960213 232.524444 
L 913.960213 229.586667 
L 913.960213 226.648889 
L 913.960213 223.711111 
L 913.960213 220.773333 
L 913.960213 217.835556 
L 913.960213 214.897778 
L 913.960213 211.96 
L 913.960213 209.022222 
L 913.960213 206.084444 
L 913.960213 203.146667 
L 913.960213 200.208889 
L 913.960213 197.271111 
L 913.960213 194.333333 
L 913.960213 191.395556 
L 913.960213 188.457778 
L 913.960213 185.52 
L 913.873608 182.582222 
L 913.612905 179.644444 
L 913.175481 176.706667 
L 912.557106 173.768889 
L 911.752126 170.831111 
L 910.845116 168.158329 
L 910.753109 167.893333 
L 909.543019 164.955556 
L 908.115901 162.017778 
L 907.73002 161.319649 
L 906.44191 159.08 
L 904.614923 156.294666 
L 904.509877 156.142222 
L 902.264369 153.204444 
L 901.499826 152.299373 
L 899.669456 150.266667 
L 898.38473 148.960109 
L 896.655052 147.328889 
L 895.269633 146.117292 
L 893.114236 144.391111 
L 892.154537 143.670088 
L 889.03944 141.5524 
L 888.877795 141.453333 
L 885.924343 139.730342 
L 883.549513 138.515556 
L 882.809247 138.15164 
L 879.69415 136.805756 
L 876.579054 135.664548 
L 876.298063 135.577778 
L 873.463957 134.722398 
L 870.34886 133.963239 
L 867.233764 133.380062 
L 864.118667 132.967538 
L 861.003571 132.721675 
L 857.888474 132.64 
L 854.773377 132.64 
L 851.658281 132.64 
L 848.543184 132.64 
L 845.428088 132.64 
L 842.312991 132.64 
L 839.197894 132.64 
L 836.082798 132.64 
L 832.967701 132.64 
L 829.852605 132.64 
L 826.737508 132.64 
L 823.622411 132.64 
L 820.507315 132.64 
L 817.392218 132.64 
L 814.277122 132.64 
L 811.162025 132.64 
L 808.046928 132.64 
L 804.931832 132.64 
L 801.816735 132.64 
L 798.701639 132.64 
L 795.586542 132.64 
L 792.471445 132.64 
L 789.356349 132.64 
L 786.241252 132.64 
L 783.126156 132.64 
L 780.011059 132.64 
L 776.895962 132.64 
L 773.780866 132.64 
L 770.665769 132.64 
L 767.550673 132.64 
L 764.435576 132.64 
L 761.320479 132.64 
L 758.205383 132.64 
L 755.090286 132.64 
L 751.97519 132.64 
L 748.860093 132.64 
L 745.744996 132.64 
L 742.6299 132.64 
L 739.514803 132.64 
L 736.399707 132.64 
L 733.28461 132.64 
L 730.169513 132.64 
L 727.054417 132.64 
L 723.93932 132.64 
L 720.824224 132.64 
L 717.709127 132.64 
" clip-path="url(#p8c2ccefe0d)" style="fill: none; stroke: #21918c; stroke-width: 1.5"/>
   </g>
   <g id="PathCollection_32">
    <path d="M 970.031952 317.72 
L 970.031952 314.782222 
L 970.031952 311.844444 
L 970.031952 308.906667 
L 970.031952 305.968889 
L 970.031952 303.031111 
L 970.031952 300.883517 
" clip-path="url(#p8c2ccefe0d)" style="fill: none; stroke: #28ae80; stroke-width: 1.5"/>
    <path d="M 970.031952 275.800928 
L 969.988678 182.582222 
L 969.641852 176.706667 
L 968.944861 170.831111 
L 967.891174 164.955556 
L 966.47058 159.08 
L 964.667764 153.204444 
L 962.463335 147.328889 
L 959.831886 141.453333 
L 956.738485 135.577778 
L 954.456469 131.762239 
L 951.132442 126.764444 
L 948.226275 122.864845 
L 945.111179 119.054931 
L 941.471624 115.013333 
L 938.578316 112.075556 
L 935.450741 109.137778 
L 932.058682 106.2 
L 928.365252 103.262222 
L 923.305503 99.621329 
L 919.873079 97.386667 
L 913.960213 93.930838 
L 907.73002 90.781173 
L 901.499826 88.085845 
L 895.269633 85.808789 
L 889.03944 83.922947 
L 882.809247 82.4046 
L 876.579054 81.239521 
L 870.34886 80.414956 
L 864.118667 79.923343 
L 857.888474 79.76 
L 717.709127 79.76 
L 717.709127 79.76 
" clip-path="url(#p8c2ccefe0d)" style="fill: none; stroke: #28ae80; stroke-width: 1.5"/>
   </g>
   <g id="PathCollection_33">
    <path d="M 1026.10369 185.52 
L 1026.074844 182.582222 
L 1025.988275 179.644444 
L 1025.843891 176.706667 
L 1025.641539 173.768889 
L 1025.381006 170.831111 
L 1025.06202 167.893333 
L 1024.68425 164.955556 
L 1024.247312 162.017778 
L 1023.750765 159.08 
L 1023.194119 156.142222 
L 1022.988594 155.161788 
L 1022.57651 153.204444 
L 1021.89731 150.266667 
L 1021.155974 147.328889 
L 1020.351778 144.391111 
L 1019.873497 142.768461 
L 1019.483384 141.453333 
L 1018.549517 138.515556 
L 1017.549904 135.577778 
L 1016.758401 133.393742 
L 1016.483023 132.64 
L 1015.346339 129.702222 
L 1014.14036 126.764444 
L 1013.643304 125.615539 
L 1012.861675 123.826667 
L 1011.509311 120.888889 
L 1010.528207 118.862654 
L 1010.081824 117.951111 
L 1008.575263 115.013333 
L 1007.413111 112.852556 
L 1006.989849 112.075556 
L 1005.320081 109.137778 
L 1004.298014 107.416211 
L 1003.565614 106.2 
L 1001.722368 103.262222 
L 1001.182918 102.43469 
L 999.785434 100.324444 
L 998.067821 97.832874 
L 997.754985 97.386667 
L 995.621719 94.448889 
L 994.952724 93.559557 
L 993.383081 91.511111 
L 991.837628 89.563986 
L 991.035738 88.573333 
L 988.722531 85.809993 
L 988.573429 85.635556 
L 985.985084 82.697778 
L 985.607435 82.281852 
L 983.977719 80.52693 
" clip-path="url(#p8c2ccefe0d)" style="fill: none; stroke: #5ec962; stroke-width: 1.5"/>
    <path d="M 963.556178 62.088205 
L 960.686662 59.9518 
L 959.636215 59.195556 
L 957.571565 57.738073 
L 955.399479 56.257778 
L 954.456469 55.626864 
L 951.341372 53.615028 
L 950.868232 53.32 
L 948.226275 51.700158 
L 945.988659 50.382222 
L 945.111179 49.873479 
L 941.996082 48.135154 
L 940.706463 47.444444 
L 938.880986 46.480556 
L 935.765889 44.905835 
L 934.941991 44.506667 
L 932.650792 43.410667 
L 929.535696 41.989863 
L 928.569134 41.568889 
L 926.420599 40.643632 
L 923.305503 39.368247 
L 921.408657 38.631111 
L 920.190406 38.162349 
L 917.075309 37.025017 
L 913.960213 35.953036 
L 913.160976 35.693333 
L 910.845116 34.946884 
L 907.73002 34.004172 
L 904.614923 33.123463 
L 903.220416 32.755556 
L 901.499826 32.304499 
L 898.38473 31.546081 
L 895.269633 30.846943 
L 892.154537 30.206405 
L 890.079051 29.817778 
L 889.03944 29.623952 
L 885.924343 29.098991 
L 882.809247 28.630709 
L 879.69415 28.218642 
L 876.579054 27.862376 
L 873.463957 27.561547 
L 870.34886 27.315844 
L 867.233764 27.125011 
L 864.118667 26.988845 
L 861.003571 26.907204 
L 857.888474 26.88 
" clip-path="url(#p8c2ccefe0d)" style="fill: none; stroke: #5ec962; stroke-width: 1.5"/>
   </g>
   <g id="PathCollection_34">
    <path d="M 1026.10369 45.616759 
L 1025.059215 44.506667 
L 1022.988594 42.353632 
L 1022.220183 41.568889 
L 1019.873497 39.222334 
L 1019.271053 38.631111 
L 1016.758401 36.214795 
L 1016.205464 35.693333 
L 1013.643304 33.323708 
L 1013.016396 32.755556 
L 1010.528207 30.542449 
L 1009.696098 29.817778 
L 1007.413111 27.865021 
L 1006.236016 26.88 
" clip-path="url(#p8c2ccefe0d)" style="fill: none; stroke: #addc30; stroke-width: 1.5"/>
   </g>
   <g id="PathCollection_35"/>
   <g id="line2d_41">
    <path d="M 843.309822 307.4084 
L 843.309822 146.1244 
" clip-path="url(#p8c2ccefe0d)" style="fill: none; stroke: #000000; stroke-width: 0.5; stroke-linecap: square"/>
   </g>
   <g id="line2d_42">
    <path d="M 797.050637 249.2404 
L 960.499756 117.5692 
" clip-path="url(#p8c2ccefe0d)" style="fill: none; stroke: #000000; stroke-width: 0.5; stroke-linecap: square"/>
   </g>
   <g id="patch_13">
    <path d="M 717.709127 317.72 
L 717.709127 26.88 
" style="fill: none; stroke: #000000; stroke-width: 0.8; stroke-linejoin: miter; stroke-linecap: square"/>
   </g>
   <g id="patch_14">
    <path d="M 1026.10369 317.72 
L 1026.10369 26.88 
" style="fill: none; stroke: #000000; stroke-width: 0.8; stroke-linejoin: miter; stroke-linecap: square"/>
   </g>
   <g id="patch_15">
    <path d="M 717.709127 317.72 
L 1026.10369 317.72 
" style="fill: none; stroke: #000000; stroke-width: 0.8; stroke-linejoin: miter; stroke-linecap: square"/>
   </g>
   <g id="patch_16">
    <path d="M 717.709127 26.88 
L 1026.10369 26.88 
" style="fill: none; stroke: #000000; stroke-width: 0.8; stroke-linejoin: miter; stroke-linecap: square"/>
   </g>
   <g id="PathCollection_36">
    <g clip-path="url(#p8c2ccefe0d)">
     <use xlink:href="#m3ad4c4df37" x="843.309822" y="307.4084" style="stroke: #000000"/>
     <use xlink:href="#m3ad4c4df37" x="843.309822" y="146.1244" style="stroke: #000000"/>
    </g>
   </g>
   <g id="PathCollection_37">
    <path d="M 843.309822 187.756138 
C 843.902834 187.756138 844.471638 187.520532 844.890961 187.101209 
C 845.310284 186.681886 845.54589 186.113082 845.54589 185.52007 
C 845.54589 184.927058 845.310284 184.358254 844.890961 183.938931 
C 844.471638 183.519608 843.902834 183.284002 843.309822 183.284002 
C 842.71681 183.284002 842.148006 183.519608 841.728683 183.938931 
C 841.30936 184.358254 841.073754 184.927058 841.073754 185.52007 
C 841.073754 186.113082 841.30936 186.681886 841.728683 187.101209 
C 842.148006 187.520532 842.71681 187.756138 843.309822 187.756138 
L 843.309822 187.756138 
z
" clip-path="url(#p8c2ccefe0d)" style="fill: none; stroke: #ff0000"/>
   </g>
   <g id="PathCollection_38">
    <g clip-path="url(#p8c2ccefe0d)">
     <use xlink:href="#m3ad4c4df37" x="797.050637" y="249.2404" style="stroke: #000000"/>
     <use xlink:href="#m3ad4c4df37" x="960.499756" y="117.5692" style="stroke: #000000"/>
    </g>
   </g>
   <g id="PathCollection_39">
    <path d="M 857.888483 202.466769 
C 858.481495 202.466769 859.050299 202.231162 859.469622 201.811839 
C 859.888945 201.392517 860.124551 200.823713 860.124551 200.230701 
C 860.124551 199.637688 859.888945 199.068885 859.469622 198.649562 
C 859.050299 198.230239 858.481495 197.994633 857.888483 197.994633 
C 857.295471 197.994633 856.726667 198.230239 856.307344 198.649562 
C 855.888021 199.068885 855.652415 199.637688 855.652415 200.230701 
C 855.652415 200.823713 855.888021 201.392517 856.307344 201.811839 
C 856.726667 202.231162 857.295471 202.466769 857.888483 202.466769 
L 857.888483 202.466769 
z
" clip-path="url(#p8c2ccefe0d)" style="fill: none; stroke: #ff0000"/>
   </g>
   <g id="text_49">
    <!-- Bisection -->
    <g transform="translate(844.513596 20.88)scale(0.12 -0.12)">
     <defs>
      <path id="DejaVuSans-42" d="M 1259 2228 
L 1259 519 
L 2272 519 
Q 2781 519 3026 730 
Q 3272 941 3272 1375 
Q 3272 1813 3026 2020 
Q 2781 2228 2272 2228 
L 1259 2228 
z
M 1259 4147 
L 1259 2741 
L 2194 2741 
Q 2656 2741 2882 2914 
Q 3109 3088 3109 3444 
Q 3109 3797 2882 3972 
Q 2656 4147 2194 4147 
L 1259 4147 
z
M 628 4666 
L 2241 4666 
Q 2963 4666 3353 4366 
Q 3744 4066 3744 3513 
Q 3744 3084 3544 2831 
Q 3344 2578 2956 2516 
Q 3422 2416 3680 2098 
Q 3938 1781 3938 1306 
Q 3938 681 3513 340 
Q 3088 0 2303 0 
L 628 0 
L 628 4666 
z
" transform="scale(0.015625)"/>
      <path id="DejaVuSans-73" d="M 2834 3397 
L 2834 2853 
Q 2591 2978 2328 3040 
Q 2066 3103 1784 3103 
Q 1356 3103 1142 2972 
Q 928 2841 928 2578 
Q 928 2378 1081 2264 
Q 1234 2150 1697 2047 
L 1894 2003 
Q 2506 1872 2764 1633 
Q 3022 1394 3022 966 
Q 3022 478 2636 193 
Q 2250 -91 1575 -91 
Q 1294 -91 989 -36 
Q 684 19 347 128 
L 347 722 
Q 666 556 975 473 
Q 1284 391 1588 391 
Q 1994 391 2212 530 
Q 2431 669 2431 922 
Q 2431 1156 2273 1281 
Q 2116 1406 1581 1522 
L 1381 1569 
Q 847 1681 609 1914 
Q 372 2147 372 2553 
Q 372 3047 722 3315 
Q 1072 3584 1716 3584 
Q 2034 3584 2315 3537 
Q 2597 3491 2834 3397 
z
" transform="scale(0.015625)"/>
     </defs>
     <use xlink:href="#DejaVuSans-42"/>
     <use xlink:href="#DejaVuSans-69" x="68.603516"/>
     <use xlink:href="#DejaVuSans-73" x="96.386719"/>
     <use xlink:href="#DejaVuSans-65" x="148.486328"/>
     <use xlink:href="#DejaVuSans-63" x="210.009766"/>
     <use xlink:href="#DejaVuSans-74" x="264.990234"/>
     <use xlink:href="#DejaVuSans-69" x="304.199219"/>
     <use xlink:href="#DejaVuSans-6f" x="331.982422"/>
     <use xlink:href="#DejaVuSans-6e" x="393.164062"/>
    </g>
   </g>
   <g id="text_50">
    <g clip-path="url(#p8c2ccefe0d)">
     <!-- −0.2 -->
     <g style="fill: #3b528b" transform="translate(799.05736 258.574149)rotate(-270)scale(0.1 -0.1)">
      <use xlink:href="#DejaVuSans-2212"/>
      <use xlink:href="#DejaVuSans-30" x="83.789062"/>
      <use xlink:href="#DejaVuSans-2e" x="147.412109"/>
      <use xlink:href="#DejaVuSans-32" x="179.199219"/>
     </g>
    </g>
   </g>
   <g id="text_51">
    <g clip-path="url(#p8c2ccefe0d)">
     <!-- 0.0 -->
     <g style="fill: #2c728e" transform="translate(855.129099 280.39066)rotate(-270)scale(0.1 -0.1)">
      <use xlink:href="#DejaVuSans-30"/>
      <use xlink:href="#DejaVuSans-2e" x="63.623047"/>
      <use xlink:href="#DejaVuSans-30" x="95.410156"/>
     </g>
    </g>
   </g>
   <g id="text_52">
    <g clip-path="url(#p8c2ccefe0d)">
     <!-- 0.2 -->
     <g style="fill: #21918c" transform="translate(911.200838 280.39066)rotate(-270)scale(0.1 -0.1)">
      <use xlink:href="#DejaVuSans-30"/>
      <use xlink:href="#DejaVuSans-2e" x="63.623047"/>
      <use xlink:href="#DejaVuSans-32" x="95.410156"/>
     </g>
    </g>
   </g>
   <g id="text_53">
    <g clip-path="url(#p8c2ccefe0d)">
     <!-- 0.4 -->
     <g style="fill: #28ae80" transform="translate(967.272577 280.39066)rotate(-270)scale(0.1 -0.1)">
      <use xlink:href="#DejaVuSans-30"/>
      <use xlink:href="#DejaVuSans-2e" x="63.623047"/>
      <use xlink:href="#DejaVuSans-34" x="95.410156"/>
     </g>
    </g>
   </g>
   <g id="text_54">
    <g clip-path="url(#p8c2ccefe0d)">
     <!-- 0.6 -->
     <g style="fill: #5ec962" transform="translate(966.801857 66.991637)rotate(-312.834211)scale(0.1 -0.1)">
      <use xlink:href="#DejaVuSans-30"/>
      <use xlink:href="#DejaVuSans-2e" x="63.623047"/>
      <use xlink:href="#DejaVuSans-36" x="95.410156"/>
     </g>
    </g>
   </g>
  </g>
 </g>
 <defs>
  <clipPath id="p30744c9129">
   <rect x="33.64" y="26.88" width="308.394563" height="290.84"/>
  </clipPath>
  <clipPath id="p02b7e23b47">
   <rect x="375.674563" y="26.88" width="308.394563" height="290.84"/>
  </clipPath>
  <clipPath id="p8c2ccefe0d">
   <rect x="717.709127" y="26.88" width="308.394563" height="290.84"/>
  </clipPath>
 </defs>
</svg>
