<?xml version="1.0" encoding="utf-8" standalone="no"?>
<!DOCTYPE svg PUBLIC "-//W3C//DTD SVG 1.1//EN"
  "http://www.w3.org/Graphics/SVG/1.1/DTD/svg11.dtd">
<svg xmlns:xlink="http://www.w3.org/1999/xlink" width="1036.90369pt" height="345.6pt" viewBox="0 0 1036.90369 345.6" xmlns="http://www.w3.org/2000/svg" version="1.1">
 <metadata>
  <rdf:RDF xmlns:dc="http://purl.org/dc/elements/1.1/" xmlns:cc="http://creativecommons.org/ns#" xmlns:rdf="http://www.w3.org/1999/02/22-rdf-syntax-ns#">
   <cc:Work>
    <dc:type rdf:resource="http://purl.org/dc/dcmitype/StillImage"/>
    <dc:date>2022-06-13T19:14:00.493178</dc:date>
    <dc:format>image/svg+xml</dc:format>
    <dc:creator>
     <cc:Agent>
      <dc:title>Matplotlib v3.5.2, https://matplotlib.org/</dc:title>
     </cc:Agent>
    </dc:creator>
   </cc:Work>
  </rdf:RDF>
 </metadata>
 <defs>
  <style type="text/css">*{stroke-linejoin: round; stroke-linecap: butt}</style>
 </defs>
 <g id="figure_1">
  <g id="patch_1">
   <path d="M 0 345.6 
L 1036.90369 345.6 
L 1036.90369 0 
L 0 0 
z
" style="fill: #ffffff"/>
  </g>
  <g id="axes_1">
   <g id="patch_2">
    <path d="M 33.64 317.72 
L 342.034563 317.72 
L 342.034563 26.88 
L 33.64 26.88 
z
" style="fill: #ffffff"/>
   </g>
   <g id="matplotlib.axis_1">
    <g id="xtick_1">
     <g id="line2d_1">
      <defs>
       <path id="mdb64a57d84" d="M 0 0 
L 0 3.5 
" style="stroke: #000000; stroke-width: 0.8"/>
      </defs>
      <g>
       <use xlink:href="#mdb64a57d84" x="33.64" y="317.72" style="stroke: #000000; stroke-width: 0.8"/>
      </g>
     </g>
     <g id="text_1">
      <!-- 0.0 -->
      <g transform="translate(25.688437 332.318437)scale(0.1 -0.1)">
       <defs>
        <path id="DejaVuSans-30" d="M 2034 4250 
Q 1547 4250 1301 3770 
Q 1056 3291 1056 2328 
Q 1056 1369 1301 889 
Q 1547 409 2034 409 
Q 2525 409 2770 889 
Q 3016 1369 3016 2328 
Q 3016 3291 2770 3770 
Q 2525 4250 2034 4250 
z
M 2034 4750 
Q 2819 4750 3233 4129 
Q 3647 3509 3647 2328 
Q 3647 1150 3233 529 
Q 2819 -91 2034 -91 
Q 1250 -91 836 529 
Q 422 1150 422 2328 
Q 422 3509 836 4129 
Q 1250 4750 2034 4750 
z
" transform="scale(0.015625)"/>
        <path id="DejaVuSans-2e" d="M 684 794 
L 1344 794 
L 1344 0 
L 684 0 
L 684 794 
z
" transform="scale(0.015625)"/>
       </defs>
       <use xlink:href="#DejaVuSans-30"/>
       <use xlink:href="#DejaVuSans-2e" x="63.623047"/>
       <use xlink:href="#DejaVuSans-30" x="95.410156"/>
      </g>
     </g>
    </g>
    <g id="xtick_2">
     <g id="line2d_2">
      <g>
       <use xlink:href="#mdb64a57d84" x="89.711739" y="317.72" style="stroke: #000000; stroke-width: 0.8"/>
      </g>
     </g>
     <g id="text_2">
      <!-- 0.2 -->
      <g transform="translate(81.760176 332.318437)scale(0.1 -0.1)">
       <defs>
        <path id="DejaVuSans-32" d="M 1228 531 
L 3431 531 
L 3431 0 
L 469 0 
L 469 531 
Q 828 903 1448 1529 
Q 2069 2156 2228 2338 
Q 2531 2678 2651 2914 
Q 2772 3150 2772 3378 
Q 2772 3750 2511 3984 
Q 2250 4219 1831 4219 
Q 1534 4219 1204 4116 
Q 875 4013 500 3803 
L 500 4441 
Q 881 4594 1212 4672 
Q 1544 4750 1819 4750 
Q 2544 4750 2975 4387 
Q 3406 4025 3406 3419 
Q 3406 3131 3298 2873 
Q 3191 2616 2906 2266 
Q 2828 2175 2409 1742 
Q 1991 1309 1228 531 
z
" transform="scale(0.015625)"/>
       </defs>
       <use xlink:href="#DejaVuSans-30"/>
       <use xlink:href="#DejaVuSans-2e" x="63.623047"/>
       <use xlink:href="#DejaVuSans-32" x="95.410156"/>
      </g>
     </g>
    </g>
    <g id="xtick_3">
     <g id="line2d_3">
      <g>
       <use xlink:href="#mdb64a57d84" x="145.783478" y="317.72" style="stroke: #000000; stroke-width: 0.8"/>
      </g>
     </g>
     <g id="text_3">
      <!-- 0.4 -->
      <g transform="translate(137.831915 332.318437)scale(0.1 -0.1)">
       <defs>
        <path id="DejaVuSans-34" d="M 2419 4116 
L 825 1625 
L 2419 1625 
L 2419 4116 
z
M 2253 4666 
L 3047 4666 
L 3047 1625 
L 3713 1625 
L 3713 1100 
L 3047 1100 
L 3047 0 
L 2419 0 
L 2419 1100 
L 313 1100 
L 313 1709 
L 2253 4666 
z
" transform="scale(0.015625)"/>
       </defs>
       <use xlink:href="#DejaVuSans-30"/>
       <use xlink:href="#DejaVuSans-2e" x="63.623047"/>
       <use xlink:href="#DejaVuSans-34" x="95.410156"/>
      </g>
     </g>
    </g>
    <g id="xtick_4">
     <g id="line2d_4">
      <g>
       <use xlink:href="#mdb64a57d84" x="201.855216" y="317.72" style="stroke: #000000; stroke-width: 0.8"/>
      </g>
     </g>
     <g id="text_4">
      <!-- 0.6 -->
      <g transform="translate(193.903654 332.318437)scale(0.1 -0.1)">
       <defs>
        <path id="DejaVuSans-36" d="M 2113 2584 
Q 1688 2584 1439 2293 
Q 1191 2003 1191 1497 
Q 1191 994 1439 701 
Q 1688 409 2113 409 
Q 2538 409 2786 701 
Q 3034 994 3034 1497 
Q 3034 2003 2786 2293 
Q 2538 2584 2113 2584 
z
M 3366 4563 
L 3366 3988 
Q 3128 4100 2886 4159 
Q 2644 4219 2406 4219 
Q 1781 4219 1451 3797 
Q 1122 3375 1075 2522 
Q 1259 2794 1537 2939 
Q 1816 3084 2150 3084 
Q 2853 3084 3261 2657 
Q 3669 2231 3669 1497 
Q 3669 778 3244 343 
Q 2819 -91 2113 -91 
Q 1303 -91 875 529 
Q 447 1150 447 2328 
Q 447 3434 972 4092 
Q 1497 4750 2381 4750 
Q 2619 4750 2861 4703 
Q 3103 4656 3366 4563 
z
" transform="scale(0.015625)"/>
       </defs>
       <use xlink:href="#DejaVuSans-30"/>
       <use xlink:href="#DejaVuSans-2e" x="63.623047"/>
       <use xlink:href="#DejaVuSans-36" x="95.410156"/>
      </g>
     </g>
    </g>
    <g id="xtick_5">
     <g id="line2d_5">
      <g>
       <use xlink:href="#mdb64a57d84" x="257.926955" y="317.72" style="stroke: #000000; stroke-width: 0.8"/>
      </g>
     </g>
     <g id="text_5">
      <!-- 0.8 -->
      <g transform="translate(249.975393 332.318437)scale(0.1 -0.1)">
       <defs>
        <path id="DejaVuSans-38" d="M 2034 2216 
Q 1584 2216 1326 1975 
Q 1069 1734 1069 1313 
Q 1069 891 1326 650 
Q 1584 409 2034 409 
Q 2484 409 2743 651 
Q 3003 894 3003 1313 
Q 3003 1734 2745 1975 
Q 2488 2216 2034 2216 
z
M 1403 2484 
Q 997 2584 770 2862 
Q 544 3141 544 3541 
Q 544 4100 942 4425 
Q 1341 4750 2034 4750 
Q 2731 4750 3128 4425 
Q 3525 4100 3525 3541 
Q 3525 3141 3298 2862 
Q 3072 2584 2669 2484 
Q 3125 2378 3379 2068 
Q 3634 1759 3634 1313 
Q 3634 634 3220 271 
Q 2806 -91 2034 -91 
Q 1263 -91 848 271 
Q 434 634 434 1313 
Q 434 1759 690 2068 
Q 947 2378 1403 2484 
z
M 1172 3481 
Q 1172 3119 1398 2916 
Q 1625 2713 2034 2713 
Q 2441 2713 2670 2916 
Q 2900 3119 2900 3481 
Q 2900 3844 2670 4047 
Q 2441 4250 2034 4250 
Q 1625 4250 1398 4047 
Q 1172 3844 1172 3481 
z
" transform="scale(0.015625)"/>
       </defs>
       <use xlink:href="#DejaVuSans-30"/>
       <use xlink:href="#DejaVuSans-2e" x="63.623047"/>
       <use xlink:href="#DejaVuSans-38" x="95.410156"/>
      </g>
     </g>
    </g>
    <g id="xtick_6">
     <g id="line2d_6">
      <g>
       <use xlink:href="#mdb64a57d84" x="313.998694" y="317.72" style="stroke: #000000; stroke-width: 0.8"/>
      </g>
     </g>
     <g id="text_6">
      <!-- 1.0 -->
      <g transform="translate(306.047132 332.318437)scale(0.1 -0.1)">
       <defs>
        <path id="DejaVuSans-31" d="M 794 531 
L 1825 531 
L 1825 4091 
L 703 3866 
L 703 4441 
L 1819 4666 
L 2450 4666 
L 2450 531 
L 3481 531 
L 3481 0 
L 794 0 
L 794 531 
z
" transform="scale(0.015625)"/>
       </defs>
       <use xlink:href="#DejaVuSans-31"/>
       <use xlink:href="#DejaVuSans-2e" x="63.623047"/>
       <use xlink:href="#DejaVuSans-30" x="95.410156"/>
      </g>
     </g>
    </g>
   </g>
   <g id="matplotlib.axis_2">
    <g id="ytick_1">
     <g id="line2d_7">
      <defs>
       <path id="mf00839e960" d="M 0 0 
L -3.5 0 
" style="stroke: #000000; stroke-width: 0.8"/>
      </defs>
      <g>
       <use xlink:href="#mf00839e960" x="33.64" y="317.72" style="stroke: #000000; stroke-width: 0.8"/>
      </g>
     </g>
     <g id="text_7">
      <!-- 0.0 -->
      <g transform="translate(10.736875 321.519219)scale(0.1 -0.1)">
       <use xlink:href="#DejaVuSans-30"/>
       <use xlink:href="#DejaVuSans-2e" x="63.623047"/>
       <use xlink:href="#DejaVuSans-30" x="95.410156"/>
      </g>
     </g>
    </g>
    <g id="ytick_2">
     <g id="line2d_8">
      <g>
       <use xlink:href="#mf00839e960" x="33.64" y="264.84" style="stroke: #000000; stroke-width: 0.8"/>
      </g>
     </g>
     <g id="text_8">
      <!-- 0.2 -->
      <g transform="translate(10.736875 268.639219)scale(0.1 -0.1)">
       <use xlink:href="#DejaVuSans-30"/>
       <use xlink:href="#DejaVuSans-2e" x="63.623047"/>
       <use xlink:href="#DejaVuSans-32" x="95.410156"/>
      </g>
     </g>
    </g>
    <g id="ytick_3">
     <g id="line2d_9">
      <g>
       <use xlink:href="#mf00839e960" x="33.64" y="211.96" style="stroke: #000000; stroke-width: 0.8"/>
      </g>
     </g>
     <g id="text_9">
      <!-- 0.4 -->
      <g transform="translate(10.736875 215.759219)scale(0.1 -0.1)">
       <use xlink:href="#DejaVuSans-30"/>
       <use xlink:href="#DejaVuSans-2e" x="63.623047"/>
       <use xlink:href="#DejaVuSans-34" x="95.410156"/>
      </g>
     </g>
    </g>
    <g id="ytick_4">
     <g id="line2d_10">
      <g>
       <use xlink:href="#mf00839e960" x="33.64" y="159.08" style="stroke: #000000; stroke-width: 0.8"/>
      </g>
     </g>
     <g id="text_10">
      <!-- 0.6 -->
      <g transform="translate(10.736875 162.879219)scale(0.1 -0.1)">
       <use xlink:href="#DejaVuSans-30"/>
       <use xlink:href="#DejaVuSans-2e" x="63.623047"/>
       <use xlink:href="#DejaVuSans-36" x="95.410156"/>
      </g>
     </g>
    </g>
    <g id="ytick_5">
     <g id="line2d_11">
      <g>
       <use xlink:href="#mf00839e960" x="33.64" y="106.2" style="stroke: #000000; stroke-width: 0.8"/>
      </g>
     </g>
     <g id="text_11">
      <!-- 0.8 -->
      <g transform="translate(10.736875 109.999219)scale(0.1 -0.1)">
       <use xlink:href="#DejaVuSans-30"/>
       <use xlink:href="#DejaVuSans-2e" x="63.623047"/>
       <use xlink:href="#DejaVuSans-38" x="95.410156"/>
      </g>
     </g>
    </g>
    <g id="ytick_6">
     <g id="line2d_12">
      <g>
       <use xlink:href="#mf00839e960" x="33.64" y="53.32" style="stroke: #000000; stroke-width: 0.8"/>
      </g>
     </g>
     <g id="text_12">
      <!-- 1.0 -->
      <g transform="translate(10.736875 57.119219)scale(0.1 -0.1)">
       <use xlink:href="#DejaVuSans-31"/>
       <use xlink:href="#DejaVuSans-2e" x="63.623047"/>
       <use xlink:href="#DejaVuSans-30" x="95.410156"/>
      </g>
     </g>
    </g>
   </g>
   <g id="PathCollection_1">
    <path d="M 33.64 317.72 
" clip-path="url(#pc6181a244b)" style="fill: none; stroke: #440154; stroke-width: 1.5"/>
   </g>
   <g id="PathCollection_2">
    <path d="M 89.711739 317.72 
L 89.625134 314.782222 
L 89.364431 311.844444 
L 88.927008 308.906667 
L 88.308632 305.968889 
L 87.503652 303.031111 
L 86.596642 300.358329 
L 86.504635 300.093333 
L 85.388097 297.382674 
" clip-path="url(#pc6181a244b)" style="fill: none; stroke: #472c7a; stroke-width: 1.5"/>
    <path d="M 60.156038 271.152909 
L 59.301039 270.715556 
L 58.560773 270.35164 
L 55.445676 269.005756 
L 52.33058 267.864548 
L 52.04959 267.777778 
L 49.215483 266.922398 
L 46.100386 266.163239 
L 42.98529 265.580062 
L 39.870193 265.167538 
L 36.755097 264.921675 
L 33.64 264.84 
" clip-path="url(#pc6181a244b)" style="fill: none; stroke: #472c7a; stroke-width: 1.5"/>
   </g>
   <g id="PathCollection_3">
    <path d="M 145.783478 317.72 
L 145.740204 314.782222 
L 145.610276 311.844444 
L 145.393378 308.906667 
L 145.08899 305.968889 
L 144.696387 303.031111 
L 144.214655 300.093333 
L 143.6427 297.155556 
L 142.979254 294.217778 
L 142.668381 293.005772 
L 142.222106 291.28 
L 141.369263 288.342222 
L 140.41929 285.404444 
L 139.553284 282.975706 
L 139.369595 282.466667 
L 138.214861 279.528889 
L 136.9551 276.591111 
L 136.438188 275.472918 
L 135.583412 273.653333 
L 134.097087 270.715556 
L 133.323091 269.286508 
L 132.490011 267.777778 
L 130.757314 264.84 
L 130.207995 263.962239 
L 128.889229 261.902222 
L 127.092898 259.263708 
L 126.883968 258.964444 
L 124.723356 256.026667 
L 123.977801 255.064845 
L 122.401487 253.088889 
L 120.862705 251.254931 
L 119.906944 250.151111 
L 117.747608 247.771739 
L 117.22315 247.213333 
L 114.632512 244.572765 
L 114.329842 244.275556 
L 111.517415 241.623219 
L 111.202267 241.337778 
L 108.402318 238.894605 
L 107.810208 238.4 
L 105.771368 236.754356 
" clip-path="url(#pc6181a244b)" style="fill: none; stroke: #3b528b; stroke-width: 1.5"/>
    <path d="M 71.572575 218.201558 
L 71.021159 218.008789 
L 70.481395 217.835556 
L 67.906063 217.018845 
L 64.790966 216.122947 
L 61.675869 215.31865 
L 59.845933 214.897778 
L 58.560773 214.6046 
L 55.445676 213.97892 
L 52.33058 213.439521 
L 49.215483 212.985211 
L 46.100386 212.614956 
L 42.98529 212.327894 
L 39.870193 212.123343 
L 36.755097 212.000811 
L 33.64 211.96 
" clip-path="url(#pc6181a244b)" style="fill: none; stroke: #3b528b; stroke-width: 1.5"/>
   </g>
   <g id="PathCollection_4">
    <path d="M 201.855216 317.72 
L 201.855216 317.72 
L 201.82637 314.782222 
L 201.739801 311.844444 
L 201.595418 308.906667 
L 201.393066 305.968889 
L 201.132532 303.031111 
L 200.813546 300.093333 
L 200.435776 297.155556 
L 199.998838 294.217778 
L 199.502291 291.28 
L 198.945645 288.342222 
L 198.74012 287.361788 
L 198.328036 285.404444 
L 197.648836 282.466667 
L 196.9075 279.528889 
L 196.103304 276.591111 
L 195.625023 274.968461 
L 195.23491 273.653333 
L 194.301043 270.715556 
L 193.30143 267.777778 
L 192.509927 265.593742 
L 192.234549 264.84 
L 191.097865 261.902222 
L 189.891886 258.964444 
L 189.39483 257.815539 
L 188.613202 256.026667 
L 187.260837 253.088889 
L 186.279733 251.062654 
L 185.83335 250.151111 
L 184.326789 247.213333 
L 183.164637 245.052556 
L 182.741375 244.275556 
L 181.071608 241.337778 
L 180.04954 239.616211 
L 179.31714 238.4 
L 177.473894 235.462222 
L 176.934444 234.63469 
L 175.53696 232.524444 
L 173.819347 230.032874 
L 173.506511 229.586667 
L 172.819854 228.641053 
" clip-path="url(#pc6181a244b)" style="fill: none; stroke: #2c728e; stroke-width: 1.5"/>
    <path d="M 148.094565 201.475126 
L 146.640796 200.208889 
L 145.783478 199.479731 
L 143.109412 197.271111 
L 142.668381 196.914959 
L 139.553284 194.473948 
L 139.368318 194.333333 
L 136.438188 192.1518 
L 135.387741 191.395556 
L 133.323091 189.938073 
L 131.151005 188.457778 
L 130.207995 187.826864 
L 127.092898 185.815028 
L 126.619758 185.52 
L 123.977801 183.900158 
L 121.740185 182.582222 
L 120.862705 182.073479 
L 117.747608 180.335154 
L 116.457989 179.644444 
L 114.632512 178.680556 
L 111.517415 177.105835 
L 110.693517 176.706667 
L 108.402318 175.610667 
L 105.287222 174.189863 
L 104.32066 173.768889 
L 102.172125 172.843632 
L 99.057029 171.568247 
L 97.160183 170.831111 
L 95.941932 170.362349 
L 92.826835 169.225017 
L 89.711739 168.153036 
L 88.912502 167.893333 
L 86.596642 167.146884 
L 83.481546 166.204172 
L 80.366449 165.323463 
L 78.971942 164.955556 
L 77.251352 164.504499 
L 74.136256 163.746081 
L 71.021159 163.046943 
L 67.906063 162.406405 
L 65.830577 162.017778 
L 64.790966 161.823952 
L 61.675869 161.298991 
L 58.560773 160.830709 
L 55.445676 160.418642 
L 52.33058 160.062376 
L 49.215483 159.761547 
L 46.100386 159.515844 
L 42.98529 159.325011 
L 39.870193 159.188845 
L 36.755097 159.107204 
L 33.64 159.08 
L 33.64 159.08 
" clip-path="url(#pc6181a244b)" style="fill: none; stroke: #2c728e; stroke-width: 1.5"/>
   </g>
   <g id="PathCollection_5">
    <path d="M 257.926955 317.72 
L 257.905322 314.782222 
L 257.840408 311.844444 
L 257.732175 308.906667 
L 257.580559 305.968889 
L 257.385471 303.031111 
L 257.146796 300.093333 
L 256.864394 297.155556 
L 256.538102 294.217778 
L 256.167731 291.28 
L 255.753071 288.342222 
L 255.293888 285.404444 
L 254.811859 282.59426 
L 254.789916 282.466667 
L 254.240643 279.528889 
L 253.645914 276.591111 
L 253.005391 273.653333 
L 252.31872 270.715556 
L 251.696762 268.222294 
L 251.585437 267.777778 
L 250.804624 264.84 
L 249.976289 261.902222 
L 249.099984 258.964444 
L 248.581665 257.314992 
L 248.174743 256.026667 
L 247.199739 253.088889 
L 246.175035 250.151111 
L 245.466569 248.211932 
L 245.099502 247.213333 
L 243.971772 244.275556 
L 242.792334 241.337778 
L 242.351472 240.282887 
L 241.558946 238.4 
L 240.271348 235.462222 
L 239.236376 233.19304 
L 238.929012 232.524444 
L 237.52913 229.586667 
L 236.121279 226.744935 
L 236.073281 226.648889 
L 234.556501 223.711111 
L 233.006182 220.81839 
L 232.981804 220.773333 
L 232.896257 220.619978 
" clip-path="url(#pc6181a244b)" style="fill: none; stroke: #21918c; stroke-width: 1.5"/>
    <path d="M 213.01728 190.753127 
L 211.200506 188.491405 
L 211.173089 188.457778 
L 208.722199 185.52 
L 208.08541 184.775055 
L 206.181015 182.582222 
L 204.970313 181.220621 
L 203.545437 179.644444 
L 201.855216 177.816759 
L 200.810741 176.706667 
L 198.74012 174.553632 
L 197.971709 173.768889 
L 195.625023 171.422334 
L 195.022579 170.831111 
L 192.509927 168.414795 
L 191.95699 167.893333 
L 189.39483 165.523708 
L 188.767922 164.955556 
L 186.279733 162.742449 
L 185.447624 162.017778 
L 183.164637 160.065021 
L 181.987542 159.08 
L 180.04954 157.485991 
L 178.378229 156.142222 
L 176.934444 155.000437 
L 174.609255 153.204444 
L 173.819347 152.603903 
L 170.70425 150.292524 
L 170.668594 150.266667 
L 167.589154 148.066639 
L 166.52923 147.328889 
L 164.474057 145.918637 
L 162.187073 144.391111 
L 161.358961 143.845461 
L 158.243864 141.846358 
L 157.61488 141.453333 
L 155.128767 139.919467 
L 152.784477 138.515556 
L 152.013671 138.059486 
L 148.898574 136.267275 
L 147.663698 135.577778 
L 145.783478 134.539648 
L 142.668381 132.873712 
L 142.218205 132.64 
L 139.553284 131.270732 
L 136.438188 129.725213 
L 136.390412 129.702222 
L 133.323091 128.240151 
L 130.207995 126.809711 
L 130.106152 126.764444 
L 127.092898 125.436732 
L 123.977801 124.116534 
L 123.268851 123.826667 
L 120.862705 122.850608 
L 117.747608 121.636303 
L 115.751074 120.888889 
L 114.632512 120.473122 
L 111.517415 119.36082 
L 108.402318 118.297284 
L 107.343447 117.951111 
L 105.287222 117.282972 
L 102.172125 116.316597 
L 99.057029 115.397093 
L 97.690943 115.013333 
L 95.941932 114.524519 
L 92.826835 113.698095 
L 89.711739 112.916911 
L 86.596642 112.180544 
L 86.125296 112.075556 
L 83.481546 111.489001 
L 80.366449 110.841417 
L 77.251352 110.237354 
L 74.136256 109.676478 
L 71.021159 109.158471 
L 70.885864 109.137778 
L 67.906063 108.683187 
L 64.790966 108.250141 
L 61.675869 107.859085 
L 58.560773 107.509797 
L 55.445676 107.202078 
L 52.33058 106.935751 
L 49.215483 106.710662 
L 46.100386 106.526678 
L 42.98529 106.383693 
L 39.870193 106.281621 
L 36.755097 106.220402 
L 33.64 106.2 
" clip-path="url(#pc6181a244b)" style="fill: none; stroke: #21918c; stroke-width: 1.5"/>
   </g>
   <g id="PathCollection_6">
    <path d="M 313.998694 317.72 
L 313.981387 314.782222 
L 313.929461 311.844444 
L 313.842895 308.906667 
L 313.721657 305.968889 
L 313.565701 303.031111 
L 313.374969 300.093333 
L 313.149388 297.155556 
L 312.888876 294.217778 
L 312.593335 291.28 
L 312.262657 288.342222 
L 311.896721 285.404444 
L 311.495393 282.466667 
L 311.058529 279.528889 
L 310.883597 278.440252 
L 310.585891 276.591111 
L 310.077306 273.653333 
L 309.532628 270.715556 
L 308.95166 267.777778 
L 308.334194 264.84 
L 307.768501 262.298827 
L 307.679967 261.902222 
L 306.988452 258.964444 
L 306.259658 256.026667 
L 305.493327 253.088889 
L 304.689194 250.151111 
L 304.653404 250.025926 
L 303.846328 247.213333 
L 302.964934 244.275556 
L 302.044733 241.337778 
L 301.538308 239.784547 
L 301.084944 238.4 
L 300.085047 235.462222 
L 299.045198 232.524444 
L 298.423211 230.830181 
L 297.964454 229.586667 
L 296.842075 226.648889 
L 295.678454 223.711111 
L 295.308114 222.805925 
L 294.471885 220.773333 
L 293.222488 217.835556 
L 292.193018 215.492835 
L 291.929944 214.897778 
L 290.592233 211.96 
L 289.210718 209.022222 
L 289.077921 208.747455 
L 287.782185 206.084444 
L 287.642471 205.805952 
" clip-path="url(#pc6181a244b)" style="fill: none; stroke: #28ae80; stroke-width: 1.5"/>
    <path d="M 274.935109 183.103265 
L 274.611202 182.582222 
L 273.502438 180.842788 
L 272.731507 179.644444 
L 270.79621 176.706667 
L 270.387342 176.099502 
L 268.802476 173.768889 
L 267.272245 171.571277 
L 266.751584 170.831111 
L 264.639866 167.893333 
L 264.157148 167.235708 
L 262.465362 164.955556 
L 261.042052 163.078773 
L 260.228384 162.017778 
L 257.926955 159.08 
L 255.554997 156.142222 
L 254.811859 155.240227 
L 253.114066 153.204444 
L 251.696762 151.538053 
L 250.601689 150.266667 
L 248.581665 147.965759 
L 248.015187 147.328889 
L 245.466569 144.516222 
L 245.35166 144.391111 
L 242.606263 141.453333 
L 242.351472 141.185359 
L 239.776901 138.515556 
L 239.236376 137.964523 
L 236.86071 135.577778 
L 236.121279 134.847099 
L 233.853811 132.64 
L 233.006182 131.828081 
L 230.75201 129.702222 
L 229.891086 128.902842 
L 227.55077 126.764444 
L 226.775989 126.067104 
L 224.245184 123.826667 
L 223.660893 123.31691 
L 220.829945 120.888889 
L 220.545796 120.648601 
L 217.430699 118.059479 
L 217.298037 117.951111 
L 214.315603 115.547566 
L 213.640293 115.013333 
L 211.200506 113.108295 
L 209.852382 112.075556 
L 208.08541 110.738928 
L 205.926751 109.137778 
L 204.970313 108.436941 
L 201.855216 106.2 
L 198.74012 104.029575 
L 197.615085 103.262222 
L 195.625023 101.91993 
L 193.207245 100.324444 
L 192.509927 99.869204 
L 189.39483 97.87769 
L 188.609989 97.386667 
L 186.279733 95.94354 
L 183.808449 94.448889 
L 183.164637 94.063295 
L 180.04954 92.238159 
L 178.778867 91.511111 
L 176.934444 90.465461 
L 173.819347 88.743142 
L 173.505117 88.573333 
L 170.70425 87.072819 
L 167.94806 85.635556 
L 167.589154 85.449944 
L 164.474057 83.876809 
L 162.073462 82.697778 
L 161.358961 82.34957 
L 158.243864 80.869631 
L 155.839871 79.76 
L 155.128767 79.434137 
L 152.013671 78.044202 
L 149.189926 76.822222 
L 148.898574 76.696984 
L 145.783478 75.394109 
L 142.668381 74.132544 
L 142.037407 73.884444 
L 139.553284 72.913574 
L 136.438188 71.735295 
L 134.282913 70.946667 
L 133.323091 70.597408 
L 130.207995 69.500023 
L 127.092898 68.441533 
L 125.774327 68.008889 
L 123.977801 67.422307 
L 120.862705 66.441648 
L 117.747608 65.498668 
L 116.279493 65.071111 
L 114.632512 64.593512 
L 111.517415 63.725692 
L 108.402318 62.894468 
L 105.419963 62.133333 
L 105.287222 62.09958 
L 102.172125 61.341221 
L 99.057029 60.618512 
L 95.941932 59.931202 
L 92.826835 59.279049 
L 92.406293 59.195556 
L 89.711739 58.662063 
L 86.596642 58.079745 
L 83.481546 57.531847 
L 80.366449 57.018173 
L 77.251352 56.538538 
L 75.290601 56.257778 
L 74.136256 56.092804 
L 71.021159 55.680807 
L 67.906063 55.302324 
L 64.790966 54.957217 
L 61.675869 54.645362 
L 58.560773 54.366644 
L 55.445676 54.120961 
L 52.33058 53.908222 
L 49.215483 53.728346 
L 46.100386 53.581268 
L 42.98529 53.466931 
L 39.870193 53.385292 
L 36.755097 53.336322 
L 33.64 53.32 
" clip-path="url(#pc6181a244b)" style="fill: none; stroke: #28ae80; stroke-width: 1.5"/>
   </g>
   <g id="PathCollection_7">
    <path d="M 342.034563 190.922071 
L 340.88331 188.457778 
L 339.474827 185.52 
L 338.919467 184.38873 
L 338.027545 182.582222 
L 336.541555 179.644444 
L 335.80437 178.220448 
L 335.015937 176.706667 
L 333.450241 173.768889 
L 332.689274 172.372632 
L 331.843716 170.831111 
L 330.195962 167.893333 
L 329.574177 166.807984 
L 328.505699 164.955556 
L 326.773376 162.017778 
L 326.45908 161.495134 
L 324.996264 159.08 
L 323.343984 156.41117 
L 323.176234 156.142222 
L 321.309334 153.204444 
L 320.228887 151.538822 
L 319.39719 150.266667 
L 317.438349 147.328889 
L 317.113791 146.850813 
L 315.430163 144.391111 
L 313.998694 142.34049 
L 313.374119 141.453333 
L 311.267743 138.515556 
L 310.883597 137.988964 
L 309.10895 135.577778 
L 307.768501 133.789732 
L 306.898633 132.64 
L 304.653404 129.725292 
L 304.635465 129.702222 
L 302.314734 126.764444 
L 301.538308 125.798319 
L 299.938069 123.826667 
L 298.423211 121.99135 
L 297.503939 120.888889 
L 295.308114 118.298402 
L 295.010631 117.951111 
L 292.455018 115.013333 
L 292.193018 114.716651 
L 289.835116 112.075556 
L 289.077921 111.240342 
L 287.150271 109.137778 
L 286.081335 107.989187 
" clip-path="url(#pc6181a244b)" style="fill: none; stroke: #5ec962; stroke-width: 1.5"/>
    <path d="M 266.683034 88.89013 
L 266.333544 88.573333 
L 264.157148 86.625076 
L 263.036283 85.635556 
L 261.042052 83.896335 
L 259.648024 82.697778 
L 257.926955 81.235478 
L 256.164804 79.76 
L 254.811859 78.640146 
L 252.582388 76.822222 
L 251.696762 76.108129 
L 248.896255 73.884444 
L 248.581665 73.637358 
L 245.466569 71.227217 
L 245.098316 70.946667 
L 242.351472 68.875834 
L 241.182468 68.008889 
L 239.236376 66.580261 
L 237.145718 65.071111 
L 236.121279 64.338881 
L 233.006182 62.150252 
L 232.981721 62.133333 
L 229.891086 60.015908 
L 228.671958 59.195556 
L 226.775989 57.931408 
L 224.219269 56.257778 
L 223.660893 55.895499 
L 220.545796 53.909023 
L 219.605092 53.32 
L 217.430699 51.970013 
L 214.822534 50.382222 
L 214.315603 50.076138 
L 211.200506 48.228799 
L 209.851566 47.444444 
L 208.08541 46.4255 
L 204.970313 44.664868 
L 204.685132 44.506667 
L 201.855216 42.948438 
L 199.29431 41.568889 
L 198.74012 41.272484 
L 195.625023 39.638769 
L 193.660786 38.631111 
L 192.509927 38.04472 
L 189.39483 36.49076 
L 187.760266 35.693333 
L 186.279733 34.975682 
L 183.164637 33.499109 
L 181.559487 32.755556 
L 180.04954 32.060333 
L 176.934444 30.658929 
L 175.018899 29.817778 
L 173.819347 29.29403 
L 170.70425 27.965722 
L 168.091217 26.88 
" clip-path="url(#pc6181a244b)" style="fill: none; stroke: #5ec962; stroke-width: 1.5"/>
   </g>
   <g id="PathCollection_8">
    <path d="M 342.034563 88.743521 
L 341.892672 88.573333 
L 339.410938 85.635556 
L 338.919467 85.061629 
L 337.931099 83.917829 
" clip-path="url(#pc6181a244b)" style="fill: none; stroke: #addc30; stroke-width: 1.5"/>
    <path d="M 319.551058 64.122436 
L 317.557465 62.133333 
L 317.113791 61.695841 
L 314.550719 59.195556 
L 313.998694 58.663221 
L 311.47664 56.257778 
L 310.883597 55.698492 
L 308.332966 53.32 
L 307.768501 52.799397 
L 305.117302 50.382222 
L 304.653404 49.963803 
L 301.82712 47.444444 
L 301.538308 47.189692 
L 298.459742 44.506667 
L 298.423211 44.475155 
L 295.308114 41.819571 
L 295.010373 41.568889 
L 292.193018 39.220368 
L 291.477038 38.631111 
L 289.077921 36.675749 
L 287.856724 35.693333 
L 285.962825 34.18416 
L 284.145991 32.755556 
L 282.847728 31.744133 
L 280.3412 29.817778 
L 279.732631 29.354282 
L 276.617535 27.013815 
L 276.437075 26.88 
" clip-path="url(#pc6181a244b)" style="fill: none; stroke: #addc30; stroke-width: 1.5"/>
   </g>
   <g id="PathCollection_9"/>
   <g id="line2d_13">
    <path d="M 208.023108 139.5144 
L 260.730542 118.6268 
" clip-path="url(#pc6181a244b)" style="fill: none; stroke: #000000; stroke-width: 0.5; stroke-linecap: square"/>
   </g>
   <g id="line2d_14">
    <path d="M 173.819347 264.84 
L 173.819347 54.642 
" clip-path="url(#pc6181a244b)" style="fill: none; stroke: #000000; stroke-width: 0.5; stroke-linecap: square"/>
   </g>
   <g id="patch_3">
    <path d="M 33.64 317.72 
L 33.64 26.88 
" style="fill: none; stroke: #000000; stroke-width: 0.8; stroke-linejoin: miter; stroke-linecap: square"/>
   </g>
   <g id="patch_4">
    <path d="M 342.034563 317.72 
L 342.034563 26.88 
" style="fill: none; stroke: #000000; stroke-width: 0.8; stroke-linejoin: miter; stroke-linecap: square"/>
   </g>
   <g id="patch_5">
    <path d="M 33.64 317.72 
L 342.034563 317.72 
" style="fill: none; stroke: #000000; stroke-width: 0.8; stroke-linejoin: miter; stroke-linecap: square"/>
   </g>
   <g id="patch_6">
    <path d="M 33.64 26.88 
L 342.034563 26.88 
" style="fill: none; stroke: #000000; stroke-width: 0.8; stroke-linejoin: miter; stroke-linecap: square"/>
   </g>
   <g id="PathCollection_10">
    <defs>
     <path id="m17cdf3839b" d="M 0 2.236068 
C 0.593012 2.236068 1.161816 2.000462 1.581139 1.581139 
C 2.000462 1.161816 2.236068 0.593012 2.236068 0 
C 2.236068 -0.593012 2.000462 -1.161816 1.581139 -1.581139 
C 1.161816 -2.000462 0.593012 -2.236068 0 -2.236068 
C -0.593012 -2.236068 -1.161816 -2.000462 -1.581139 -1.581139 
C -2.000462 -1.161816 -2.236068 -0.593012 -2.236068 0 
C -2.236068 0.593012 -2.000462 1.161816 -1.581139 1.581139 
C -1.161816 2.000462 -0.593012 2.236068 0 2.236068 
z
" style="stroke: #000000"/>
    </defs>
    <g clip-path="url(#pc6181a244b)">
     <use xlink:href="#m17cdf3839b" x="208.023108" y="139.5144" style="stroke: #000000"/>
     <use xlink:href="#m17cdf3839b" x="260.730542" y="118.6268" style="stroke: #000000"/>
    </g>
   </g>
   <g id="PathCollection_11">
    <path d="M 231.153664 132.583985 
C 231.746676 132.583985 232.315479 132.348379 232.734802 131.929056 
C 233.154125 131.509733 233.389732 130.940929 233.389732 130.347917 
C 233.389732 129.754905 233.154125 129.186101 232.734802 128.766778 
C 232.315479 128.347455 231.746676 128.111849 231.153664 128.111849 
C 230.560651 128.111849 229.991848 128.347455 229.572525 128.766778 
C 229.153202 129.186101 228.917596 129.754905 228.917596 130.347917 
C 228.917596 130.940929 229.153202 131.509733 229.572525 131.929056 
C 229.991848 132.348379 230.560651 132.583985 231.153664 132.583985 
L 231.153664 132.583985 
z
" clip-path="url(#pc6181a244b)" style="fill: none; stroke: #ff0000"/>
   </g>
   <g id="PathCollection_12">
    <g clip-path="url(#pc6181a244b)">
     <use xlink:href="#m17cdf3839b" x="173.819347" y="264.84" style="stroke: #000000"/>
     <use xlink:href="#m17cdf3839b" x="173.819347" y="54.642" style="stroke: #000000"/>
    </g>
   </g>
   <g id="PathCollection_13">
    <path d="M 173.819347 98.389319 
C 174.412359 98.389319 174.981163 98.153713 175.400486 97.73439 
C 175.819809 97.315067 176.055415 96.746264 176.055415 96.153251 
C 176.055415 95.560239 175.819809 94.991436 175.400486 94.572113 
C 174.981163 94.15279 174.412359 93.917183 173.819347 93.917183 
C 173.226335 93.917183 172.657531 94.15279 172.238208 94.572113 
C 171.818885 94.991436 171.583279 95.560239 171.583279 96.153251 
C 171.583279 96.746264 171.818885 97.315067 172.238208 97.73439 
C 172.657531 98.153713 173.226335 98.389319 173.819347 98.389319 
L 173.819347 98.389319 
z
" clip-path="url(#pc6181a244b)" style="fill: none; stroke: #ff0000"/>
   </g>
   <g id="text_13">
    <!-- Linear -->
    <g transform="translate(169.189469 20.88)scale(0.12 -0.12)">
     <defs>
      <path id="DejaVuSans-4c" d="M 628 4666 
L 1259 4666 
L 1259 531 
L 3531 531 
L 3531 0 
L 628 0 
L 628 4666 
z
" transform="scale(0.015625)"/>
      <path id="DejaVuSans-69" d="M 603 3500 
L 1178 3500 
L 1178 0 
L 603 0 
L 603 3500 
z
M 603 4863 
L 1178 4863 
L 1178 4134 
L 603 4134 
L 603 4863 
z
" transform="scale(0.015625)"/>
      <path id="DejaVuSans-6e" d="M 3513 2113 
L 3513 0 
L 2938 0 
L 2938 2094 
Q 2938 2591 2744 2837 
Q 2550 3084 2163 3084 
Q 1697 3084 1428 2787 
Q 1159 2491 1159 1978 
L 1159 0 
L 581 0 
L 581 3500 
L 1159 3500 
L 1159 2956 
Q 1366 3272 1645 3428 
Q 1925 3584 2291 3584 
Q 2894 3584 3203 3211 
Q 3513 2838 3513 2113 
z
" transform="scale(0.015625)"/>
      <path id="DejaVuSans-65" d="M 3597 1894 
L 3597 1613 
L 953 1613 
Q 991 1019 1311 708 
Q 1631 397 2203 397 
Q 2534 397 2845 478 
Q 3156 559 3463 722 
L 3463 178 
Q 3153 47 2828 -22 
Q 2503 -91 2169 -91 
Q 1331 -91 842 396 
Q 353 884 353 1716 
Q 353 2575 817 3079 
Q 1281 3584 2069 3584 
Q 2775 3584 3186 3129 
Q 3597 2675 3597 1894 
z
M 3022 2063 
Q 3016 2534 2758 2815 
Q 2500 3097 2075 3097 
Q 1594 3097 1305 2825 
Q 1016 2553 972 2059 
L 3022 2063 
z
" transform="scale(0.015625)"/>
      <path id="DejaVuSans-61" d="M 2194 1759 
Q 1497 1759 1228 1600 
Q 959 1441 959 1056 
Q 959 750 1161 570 
Q 1363 391 1709 391 
Q 2188 391 2477 730 
Q 2766 1069 2766 1631 
L 2766 1759 
L 2194 1759 
z
M 3341 1997 
L 3341 0 
L 2766 0 
L 2766 531 
Q 2569 213 2275 61 
Q 1981 -91 1556 -91 
Q 1019 -91 701 211 
Q 384 513 384 1019 
Q 384 1609 779 1909 
Q 1175 2209 1959 2209 
L 2766 2209 
L 2766 2266 
Q 2766 2663 2505 2880 
Q 2244 3097 1772 3097 
Q 1472 3097 1187 3025 
Q 903 2953 641 2809 
L 641 3341 
Q 956 3463 1253 3523 
Q 1550 3584 1831 3584 
Q 2591 3584 2966 3190 
Q 3341 2797 3341 1997 
z
" transform="scale(0.015625)"/>
      <path id="DejaVuSans-72" d="M 2631 2963 
Q 2534 3019 2420 3045 
Q 2306 3072 2169 3072 
Q 1681 3072 1420 2755 
Q 1159 2438 1159 1844 
L 1159 0 
L 581 0 
L 581 3500 
L 1159 3500 
L 1159 2956 
Q 1341 3275 1631 3429 
Q 1922 3584 2338 3584 
Q 2397 3584 2469 3576 
Q 2541 3569 2628 3553 
L 2631 2963 
z
" transform="scale(0.015625)"/>
     </defs>
     <use xlink:href="#DejaVuSans-4c"/>
     <use xlink:href="#DejaVuSans-69" x="55.712891"/>
     <use xlink:href="#DejaVuSans-6e" x="83.496094"/>
     <use xlink:href="#DejaVuSans-65" x="146.875"/>
     <use xlink:href="#DejaVuSans-61" x="208.398438"/>
     <use xlink:href="#DejaVuSans-72" x="269.677734"/>
    </g>
   </g>
   <g id="text_14">
    <g clip-path="url(#pc6181a244b)">
     <!-- −0.8 -->
     <g style="fill: #472c7a" transform="translate(65.674612 274.718366)rotate(-308.711423)scale(0.1 -0.1)">
      <defs>
       <path id="DejaVuSans-2212" d="M 678 2272 
L 4684 2272 
L 4684 1741 
L 678 1741 
L 678 2272 
z
" transform="scale(0.015625)"/>
      </defs>
      <use xlink:href="#DejaVuSans-2212"/>
      <use xlink:href="#DejaVuSans-30" x="83.789062"/>
      <use xlink:href="#DejaVuSans-2e" x="147.412109"/>
      <use xlink:href="#DejaVuSans-38" x="179.199219"/>
     </g>
    </g>
   </g>
   <g id="text_15">
    <g clip-path="url(#pc6181a244b)">
     <!-- −0.6 -->
     <g style="fill: #3b528b" transform="translate(78.022494 221.842546)rotate(-327.049932)scale(0.1 -0.1)">
      <use xlink:href="#DejaVuSans-2212"/>
      <use xlink:href="#DejaVuSans-30" x="83.789062"/>
      <use xlink:href="#DejaVuSans-2e" x="147.412109"/>
      <use xlink:href="#DejaVuSans-36" x="179.199219"/>
     </g>
    </g>
   </g>
   <g id="text_16">
    <g clip-path="url(#pc6181a244b)">
     <!-- −0.4 -->
     <g style="fill: #2c728e" transform="translate(151.805328 206.497116)rotate(-307.30769)scale(0.1 -0.1)">
      <use xlink:href="#DejaVuSans-2212"/>
      <use xlink:href="#DejaVuSans-30" x="83.789062"/>
      <use xlink:href="#DejaVuSans-2e" x="147.412109"/>
      <use xlink:href="#DejaVuSans-34" x="179.199219"/>
     </g>
    </g>
   </g>
   <g id="text_17">
    <g clip-path="url(#pc6181a244b)">
     <!-- −0.2 -->
     <g style="fill: #21918c" transform="translate(215.341703 196.093661)rotate(-299.120588)scale(0.1 -0.1)">
      <use xlink:href="#DejaVuSans-2212"/>
      <use xlink:href="#DejaVuSans-30" x="83.789062"/>
      <use xlink:href="#DejaVuSans-2e" x="147.412109"/>
      <use xlink:href="#DejaVuSans-32" x="179.199219"/>
     </g>
    </g>
   </g>
   <g id="text_18">
    <g clip-path="url(#pc6181a244b)">
     <!-- 0.0 -->
     <g style="fill: #28ae80" transform="translate(275.723973 188.304835)rotate(-295.116226)scale(0.1 -0.1)">
      <use xlink:href="#DejaVuSans-30"/>
      <use xlink:href="#DejaVuSans-2e" x="63.623047"/>
      <use xlink:href="#DejaVuSans-30" x="95.410156"/>
     </g>
    </g>
   </g>
   <g id="text_19">
    <g clip-path="url(#pc6181a244b)">
     <!-- 0.2 -->
     <g style="fill: #5ec962" transform="translate(269.363877 94.002749)rotate(-310.382846)scale(0.1 -0.1)">
      <use xlink:href="#DejaVuSans-30"/>
      <use xlink:href="#DejaVuSans-2e" x="63.623047"/>
      <use xlink:href="#DejaVuSans-32" x="95.410156"/>
     </g>
    </g>
   </g>
   <g id="text_20">
    <g clip-path="url(#pc6181a244b)">
     <!-- 0.4 -->
     <g style="fill: #addc30" transform="translate(321.889402 69.302023)rotate(-307.875545)scale(0.1 -0.1)">
      <use xlink:href="#DejaVuSans-30"/>
      <use xlink:href="#DejaVuSans-2e" x="63.623047"/>
      <use xlink:href="#DejaVuSans-34" x="95.410156"/>
     </g>
    </g>
   </g>
  </g>
  <g id="axes_2">
   <g id="patch_7">
    <path d="M 375.674563 317.72 
L 684.069127 317.72 
L 684.069127 26.88 
L 375.674563 26.88 
z
" style="fill: #ffffff"/>
   </g>
   <g id="matplotlib.axis_3">
    <g id="xtick_7">
     <g id="line2d_15">
      <g>
       <use xlink:href="#mdb64a57d84" x="375.674563" y="317.72" style="stroke: #000000; stroke-width: 0.8"/>
      </g>
     </g>
     <g id="text_21">
      <!-- 0.0 -->
      <g transform="translate(367.723001 332.318437)scale(0.1 -0.1)">
       <use xlink:href="#DejaVuSans-30"/>
       <use xlink:href="#DejaVuSans-2e" x="63.623047"/>
       <use xlink:href="#DejaVuSans-30" x="95.410156"/>
      </g>
     </g>
    </g>
    <g id="xtick_8">
     <g id="line2d_16">
      <g>
       <use xlink:href="#mdb64a57d84" x="431.746302" y="317.72" style="stroke: #000000; stroke-width: 0.8"/>
      </g>
     </g>
     <g id="text_22">
      <!-- 0.2 -->
      <g transform="translate(423.79474 332.318437)scale(0.1 -0.1)">
       <use xlink:href="#DejaVuSans-30"/>
       <use xlink:href="#DejaVuSans-2e" x="63.623047"/>
       <use xlink:href="#DejaVuSans-32" x="95.410156"/>
      </g>
     </g>
    </g>
    <g id="xtick_9">
     <g id="line2d_17">
      <g>
       <use xlink:href="#mdb64a57d84" x="487.818041" y="317.72" style="stroke: #000000; stroke-width: 0.8"/>
      </g>
     </g>
     <g id="text_23">
      <!-- 0.4 -->
      <g transform="translate(479.866479 332.318437)scale(0.1 -0.1)">
       <use xlink:href="#DejaVuSans-30"/>
       <use xlink:href="#DejaVuSans-2e" x="63.623047"/>
       <use xlink:href="#DejaVuSans-34" x="95.410156"/>
      </g>
     </g>
    </g>
    <g id="xtick_10">
     <g id="line2d_18">
      <g>
       <use xlink:href="#mdb64a57d84" x="543.88978" y="317.72" style="stroke: #000000; stroke-width: 0.8"/>
      </g>
     </g>
     <g id="text_24">
      <!-- 0.6 -->
      <g transform="translate(535.938217 332.318437)scale(0.1 -0.1)">
       <use xlink:href="#DejaVuSans-30"/>
       <use xlink:href="#DejaVuSans-2e" x="63.623047"/>
       <use xlink:href="#DejaVuSans-36" x="95.410156"/>
      </g>
     </g>
    </g>
    <g id="xtick_11">
     <g id="line2d_19">
      <g>
       <use xlink:href="#mdb64a57d84" x="599.961519" y="317.72" style="stroke: #000000; stroke-width: 0.8"/>
      </g>
     </g>
     <g id="text_25">
      <!-- 0.8 -->
      <g transform="translate(592.009956 332.318437)scale(0.1 -0.1)">
       <use xlink:href="#DejaVuSans-30"/>
       <use xlink:href="#DejaVuSans-2e" x="63.623047"/>
       <use xlink:href="#DejaVuSans-38" x="95.410156"/>
      </g>
     </g>
    </g>
    <g id="xtick_12">
     <g id="line2d_20">
      <g>
       <use xlink:href="#mdb64a57d84" x="656.033258" y="317.72" style="stroke: #000000; stroke-width: 0.8"/>
      </g>
     </g>
     <g id="text_26">
      <!-- 1.0 -->
      <g transform="translate(648.081695 332.318437)scale(0.1 -0.1)">
       <use xlink:href="#DejaVuSans-31"/>
       <use xlink:href="#DejaVuSans-2e" x="63.623047"/>
       <use xlink:href="#DejaVuSans-30" x="95.410156"/>
      </g>
     </g>
    </g>
   </g>
   <g id="matplotlib.axis_4">
    <g id="ytick_7">
     <g id="line2d_21">
      <g>
       <use xlink:href="#mf00839e960" x="375.674563" y="317.72" style="stroke: #000000; stroke-width: 0.8"/>
      </g>
     </g>
     <g id="text_27">
      <!-- 0.0 -->
      <g transform="translate(352.771438 321.519219)scale(0.1 -0.1)">
       <use xlink:href="#DejaVuSans-30"/>
       <use xlink:href="#DejaVuSans-2e" x="63.623047"/>
       <use xlink:href="#DejaVuSans-30" x="95.410156"/>
      </g>
     </g>
    </g>
    <g id="ytick_8">
     <g id="line2d_22">
      <g>
       <use xlink:href="#mf00839e960" x="375.674563" y="264.84" style="stroke: #000000; stroke-width: 0.8"/>
      </g>
     </g>
     <g id="text_28">
      <!-- 0.2 -->
      <g transform="translate(352.771438 268.639219)scale(0.1 -0.1)">
       <use xlink:href="#DejaVuSans-30"/>
       <use xlink:href="#DejaVuSans-2e" x="63.623047"/>
       <use xlink:href="#DejaVuSans-32" x="95.410156"/>
      </g>
     </g>
    </g>
    <g id="ytick_9">
     <g id="line2d_23">
      <g>
       <use xlink:href="#mf00839e960" x="375.674563" y="211.96" style="stroke: #000000; stroke-width: 0.8"/>
      </g>
     </g>
     <g id="text_29">
      <!-- 0.4 -->
      <g transform="translate(352.771438 215.759219)scale(0.1 -0.1)">
       <use xlink:href="#DejaVuSans-30"/>
       <use xlink:href="#DejaVuSans-2e" x="63.623047"/>
       <use xlink:href="#DejaVuSans-34" x="95.410156"/>
      </g>
     </g>
    </g>
    <g id="ytick_10">
     <g id="line2d_24">
      <g>
       <use xlink:href="#mf00839e960" x="375.674563" y="159.08" style="stroke: #000000; stroke-width: 0.8"/>
      </g>
     </g>
     <g id="text_30">
      <!-- 0.6 -->
      <g transform="translate(352.771438 162.879219)scale(0.1 -0.1)">
       <use xlink:href="#DejaVuSans-30"/>
       <use xlink:href="#DejaVuSans-2e" x="63.623047"/>
       <use xlink:href="#DejaVuSans-36" x="95.410156"/>
      </g>
     </g>
    </g>
    <g id="ytick_11">
     <g id="line2d_25">
      <g>
       <use xlink:href="#mf00839e960" x="375.674563" y="106.2" style="stroke: #000000; stroke-width: 0.8"/>
      </g>
     </g>
     <g id="text_31">
      <!-- 0.8 -->
      <g transform="translate(352.771438 109.999219)scale(0.1 -0.1)">
       <use xlink:href="#DejaVuSans-30"/>
       <use xlink:href="#DejaVuSans-2e" x="63.623047"/>
       <use xlink:href="#DejaVuSans-38" x="95.410156"/>
      </g>
     </g>
    </g>
    <g id="ytick_12">
     <g id="line2d_26">
      <g>
       <use xlink:href="#mf00839e960" x="375.674563" y="53.32" style="stroke: #000000; stroke-width: 0.8"/>
      </g>
     </g>
     <g id="text_32">
      <!-- 1.0 -->
      <g transform="translate(352.771438 57.119219)scale(0.1 -0.1)">
       <use xlink:href="#DejaVuSans-31"/>
       <use xlink:href="#DejaVuSans-2e" x="63.623047"/>
       <use xlink:href="#DejaVuSans-30" x="95.410156"/>
      </g>
     </g>
    </g>
   </g>
   <g id="PathCollection_14">
    <path d="M 375.674563 317.72 
" clip-path="url(#p704fe78d6f)" style="fill: none; stroke: #440154; stroke-width: 1.5"/>
   </g>
   <g id="PathCollection_15">
    <path d="M 431.746302 317.72 
L 431.659697 314.782222 
L 431.398994 311.844444 
L 430.961571 308.906667 
L 430.343195 305.968889 
L 429.538215 303.031111 
L 428.631206 300.358329 
L 428.539198 300.093333 
L 427.42266 297.382674 
" clip-path="url(#p704fe78d6f)" style="fill: none; stroke: #472c7a; stroke-width: 1.5"/>
    <path d="M 402.190601 271.152909 
L 401.335603 270.715556 
L 400.595336 270.35164 
L 397.48024 269.005756 
L 394.365143 267.864548 
L 394.084153 267.777778 
L 391.250046 266.922398 
L 388.13495 266.163239 
L 385.019853 265.580062 
L 381.904757 265.167538 
L 378.78966 264.921675 
L 375.674563 264.84 
" clip-path="url(#p704fe78d6f)" style="fill: none; stroke: #472c7a; stroke-width: 1.5"/>
   </g>
   <g id="PathCollection_16">
    <path d="M 487.818041 317.72 
L 487.774767 314.782222 
L 487.644839 311.844444 
L 487.427942 308.906667 
L 487.123553 305.968889 
L 486.73095 303.031111 
L 486.249219 300.093333 
L 485.677263 297.155556 
L 485.013818 294.217778 
L 484.702944 293.005772 
L 484.256669 291.28 
L 483.403826 288.342222 
L 482.453853 285.404444 
L 481.587848 282.975706 
L 481.404158 282.466667 
L 480.249424 279.528889 
L 478.989663 276.591111 
L 478.472751 275.472918 
L 477.617975 273.653333 
L 476.131651 270.715556 
L 475.357655 269.286508 
L 474.524575 267.777778 
L 472.791878 264.84 
L 472.242558 263.962239 
L 470.923793 261.902222 
L 469.127461 259.263708 
L 468.918532 258.964444 
L 466.757919 256.026667 
L 466.012365 255.064845 
L 464.436051 253.088889 
L 462.897268 251.254931 
L 461.941507 250.151111 
L 459.782172 247.771739 
L 459.257714 247.213333 
L 456.667075 244.572765 
L 456.364405 244.275556 
L 453.551978 241.623219 
L 453.23683 241.337778 
L 450.436882 238.894605 
L 449.844771 238.4 
L 447.805932 236.754356 
" clip-path="url(#p704fe78d6f)" style="fill: none; stroke: #3b528b; stroke-width: 1.5"/>
    <path d="M 413.607139 218.201558 
L 413.055723 218.008789 
L 412.515958 217.835556 
L 409.940626 217.018845 
L 406.825529 216.122947 
L 403.710433 215.31865 
L 401.880496 214.897778 
L 400.595336 214.6046 
L 397.48024 213.97892 
L 394.365143 213.439521 
L 391.250046 212.985211 
L 388.13495 212.614956 
L 385.019853 212.327894 
L 381.904757 212.123343 
L 378.78966 212.000811 
L 375.674563 211.96 
" clip-path="url(#p704fe78d6f)" style="fill: none; stroke: #3b528b; stroke-width: 1.5"/>
   </g>
   <g id="PathCollection_17">
    <path d="M 543.88978 317.72 
L 543.88978 317.72 
L 543.860934 314.782222 
L 543.774365 311.844444 
L 543.629981 308.906667 
L 543.427629 305.968889 
L 543.167096 303.031111 
L 542.848109 300.093333 
L 542.47034 297.155556 
L 542.033402 294.217778 
L 541.536855 291.28 
L 540.980208 288.342222 
L 540.774683 287.361788 
L 540.362599 285.404444 
L 539.6834 282.466667 
L 538.942063 279.528889 
L 538.137868 276.591111 
L 537.659587 274.968461 
L 537.269473 273.653333 
L 536.335606 270.715556 
L 535.335994 267.777778 
L 534.54449 265.593742 
L 534.269113 264.84 
L 533.132429 261.902222 
L 531.926449 258.964444 
L 531.429393 257.815539 
L 530.647765 256.026667 
L 529.2954 253.088889 
L 528.314297 251.062654 
L 527.867914 250.151111 
L 526.361352 247.213333 
L 525.1992 245.052556 
L 524.775939 244.275556 
L 523.106171 241.337778 
L 522.084104 239.616211 
L 521.351704 238.4 
L 519.508457 235.462222 
L 518.969007 234.63469 
L 517.571523 232.524444 
L 515.85391 230.032874 
L 515.541075 229.586667 
L 514.854418 228.641053 
" clip-path="url(#p704fe78d6f)" style="fill: none; stroke: #2c728e; stroke-width: 1.5"/>
    <path d="M 490.129128 201.475126 
L 488.675359 200.208889 
L 487.818041 199.479731 
L 485.143975 197.271111 
L 484.702944 196.914959 
L 481.587848 194.473948 
L 481.402882 194.333333 
L 478.472751 192.1518 
L 477.422305 191.395556 
L 475.357655 189.938073 
L 473.185568 188.457778 
L 472.242558 187.826864 
L 469.127461 185.815028 
L 468.654321 185.52 
L 466.012365 183.900158 
L 463.774748 182.582222 
L 462.897268 182.073479 
L 459.782172 180.335154 
L 458.492552 179.644444 
L 456.667075 178.680556 
L 453.551978 177.105835 
L 452.72808 176.706667 
L 450.436882 175.610667 
L 447.321785 174.189863 
L 446.355224 173.768889 
L 444.206689 172.843632 
L 441.091592 171.568247 
L 439.194746 170.831111 
L 437.976495 170.362349 
L 434.861399 169.225017 
L 431.746302 168.153036 
L 430.947066 167.893333 
L 428.631206 167.146884 
L 425.516109 166.204172 
L 422.401012 165.323463 
L 421.006506 164.955556 
L 419.285916 164.504499 
L 416.170819 163.746081 
L 413.055723 163.046943 
L 409.940626 162.406405 
L 407.865141 162.017778 
L 406.825529 161.823952 
L 403.710433 161.298991 
L 400.595336 160.830709 
L 397.48024 160.418642 
L 394.365143 160.062376 
L 391.250046 159.761547 
L 388.13495 159.515844 
L 385.019853 159.325011 
L 381.904757 159.188845 
L 378.78966 159.107204 
L 375.674563 159.08 
L 375.674563 159.08 
" clip-path="url(#p704fe78d6f)" style="fill: none; stroke: #2c728e; stroke-width: 1.5"/>
   </g>
   <g id="PathCollection_18">
    <path d="M 599.961519 317.72 
L 599.939885 314.782222 
L 599.874971 311.844444 
L 599.766738 308.906667 
L 599.615123 305.968889 
L 599.420035 303.031111 
L 599.181359 300.093333 
L 598.898957 297.155556 
L 598.572665 294.217778 
L 598.202295 291.28 
L 597.787635 288.342222 
L 597.328451 285.404444 
L 596.846422 282.59426 
L 596.824479 282.466667 
L 596.275207 279.528889 
L 595.680477 276.591111 
L 595.039955 273.653333 
L 594.353284 270.715556 
L 593.731325 268.222294 
L 593.62 267.777778 
L 592.839187 264.84 
L 592.010852 261.902222 
L 591.134547 258.964444 
L 590.616229 257.314992 
L 590.209307 256.026667 
L 589.234303 253.088889 
L 588.209599 250.151111 
L 587.501132 248.211932 
L 587.134065 247.213333 
L 586.006336 244.275556 
L 584.826898 241.337778 
L 584.386036 240.282887 
L 583.593509 238.4 
L 582.305911 235.462222 
L 581.270939 233.19304 
L 580.963576 232.524444 
L 579.563693 229.586667 
L 578.155842 226.744935 
L 578.107844 226.648889 
L 576.591065 223.711111 
L 575.040746 220.81839 
L 575.016368 220.773333 
L 574.93082 220.619978 
" clip-path="url(#p704fe78d6f)" style="fill: none; stroke: #21918c; stroke-width: 1.5"/>
    <path d="M 555.051844 190.753127 
L 553.23507 188.491405 
L 553.207652 188.457778 
L 550.756762 185.52 
L 550.119973 184.775055 
L 548.215578 182.582222 
L 547.004876 181.220621 
L 545.580001 179.644444 
L 543.88978 177.816759 
L 542.845305 176.706667 
L 540.774683 174.553632 
L 540.006272 173.768889 
L 537.659587 171.422334 
L 537.057142 170.831111 
L 534.54449 168.414795 
L 533.991554 167.893333 
L 531.429393 165.523708 
L 530.802485 164.955556 
L 528.314297 162.742449 
L 527.482188 162.017778 
L 525.1992 160.065021 
L 524.022105 159.08 
L 522.084104 157.485991 
L 520.412792 156.142222 
L 518.969007 155.000437 
L 516.643819 153.204444 
L 515.85391 152.603903 
L 512.738814 150.292524 
L 512.703157 150.266667 
L 509.623717 148.066639 
L 508.563794 147.328889 
L 506.508621 145.918637 
L 504.221637 144.391111 
L 503.393524 143.845461 
L 500.278427 141.846358 
L 499.649443 141.453333 
L 497.163331 139.919467 
L 494.81904 138.515556 
L 494.048234 138.059486 
L 490.933138 136.267275 
L 489.698261 135.577778 
L 487.818041 134.539648 
L 484.702944 132.873712 
L 484.252769 132.64 
L 481.587848 131.270732 
L 478.472751 129.725213 
L 478.424975 129.702222 
L 475.357655 128.240151 
L 472.242558 126.809711 
L 472.140715 126.764444 
L 469.127461 125.436732 
L 466.012365 124.116534 
L 465.303414 123.826667 
L 462.897268 122.850608 
L 459.782172 121.636303 
L 457.785638 120.888889 
L 456.667075 120.473122 
L 453.551978 119.36082 
L 450.436882 118.297284 
L 449.37801 117.951111 
L 447.321785 117.282972 
L 444.206689 116.316597 
L 441.091592 115.397093 
L 439.725506 115.013333 
L 437.976495 114.524519 
L 434.861399 113.698095 
L 431.746302 112.916911 
L 428.631206 112.180544 
L 428.159859 112.075556 
L 425.516109 111.489001 
L 422.401012 110.841417 
L 419.285916 110.237354 
L 416.170819 109.676478 
L 413.055723 109.158471 
L 412.920428 109.137778 
L 409.940626 108.683187 
L 406.825529 108.250141 
L 403.710433 107.859085 
L 400.595336 107.509797 
L 397.48024 107.202078 
L 394.365143 106.935751 
L 391.250046 106.710662 
L 388.13495 106.526678 
L 385.019853 106.383693 
L 381.904757 106.281621 
L 378.78966 106.220402 
L 375.674563 106.2 
" clip-path="url(#p704fe78d6f)" style="fill: none; stroke: #21918c; stroke-width: 1.5"/>
   </g>
   <g id="PathCollection_19">
    <path d="M 656.033258 317.72 
L 656.015951 314.782222 
L 655.964024 311.844444 
L 655.877458 308.906667 
L 655.75622 305.968889 
L 655.600264 303.031111 
L 655.409532 300.093333 
L 655.183952 297.155556 
L 654.92344 294.217778 
L 654.627899 291.28 
L 654.297221 288.342222 
L 653.931284 285.404444 
L 653.529956 282.466667 
L 653.093092 279.528889 
L 652.918161 278.440252 
L 652.620455 276.591111 
L 652.11187 273.653333 
L 651.567192 270.715556 
L 650.986223 267.777778 
L 650.368757 264.84 
L 649.803064 262.298827 
L 649.714531 261.902222 
L 649.023015 258.964444 
L 648.294221 256.026667 
L 647.527891 253.088889 
L 646.723758 250.151111 
L 646.687968 250.025926 
L 645.880892 247.213333 
L 644.999497 244.275556 
L 644.079297 241.337778 
L 643.572871 239.784547 
L 643.119508 238.4 
L 642.119611 235.462222 
L 641.079761 232.524444 
L 640.457775 230.830181 
L 639.999017 229.586667 
L 638.876638 226.648889 
L 637.713017 223.711111 
L 637.342678 222.805925 
L 636.506449 220.773333 
L 635.257052 217.835556 
L 634.227581 215.492835 
L 633.964507 214.897778 
L 632.626796 211.96 
L 631.245282 209.022222 
L 631.112485 208.747455 
L 629.816749 206.084444 
L 629.677034 205.805952 
" clip-path="url(#p704fe78d6f)" style="fill: none; stroke: #28ae80; stroke-width: 1.5"/>
    <path d="M 616.969672 183.103265 
L 616.645765 182.582222 
L 615.537002 180.842788 
L 614.76607 179.644444 
L 612.830773 176.706667 
L 612.421905 176.099502 
L 610.83704 173.768889 
L 609.306808 171.571277 
L 608.786148 170.831111 
L 606.67443 167.893333 
L 606.191712 167.235708 
L 604.499926 164.955556 
L 603.076615 163.078773 
L 602.262947 162.017778 
L 599.961519 159.08 
L 597.58956 156.142222 
L 596.846422 155.240227 
L 595.148629 153.204444 
L 593.731325 151.538053 
L 592.636252 150.266667 
L 590.616229 147.965759 
L 590.049751 147.328889 
L 587.501132 144.516222 
L 587.386223 144.391111 
L 584.640826 141.453333 
L 584.386036 141.185359 
L 581.811464 138.515556 
L 581.270939 137.964523 
L 578.895273 135.577778 
L 578.155842 134.847099 
L 575.888375 132.64 
L 575.040746 131.828081 
L 572.786574 129.702222 
L 571.925649 128.902842 
L 569.585334 126.764444 
L 568.810553 126.067104 
L 566.279747 123.826667 
L 565.695456 123.31691 
L 562.864509 120.888889 
L 562.580359 120.648601 
L 559.465263 118.059479 
L 559.332601 117.951111 
L 556.350166 115.547566 
L 555.674856 115.013333 
L 553.23507 113.108295 
L 551.886945 112.075556 
L 550.119973 110.738928 
L 547.961315 109.137778 
L 547.004876 108.436941 
L 543.88978 106.2 
L 540.774683 104.029575 
L 539.649648 103.262222 
L 537.659587 101.91993 
L 535.241809 100.324444 
L 534.54449 99.869204 
L 531.429393 97.87769 
L 530.644552 97.386667 
L 528.314297 95.94354 
L 525.843012 94.448889 
L 525.1992 94.063295 
L 522.084104 92.238159 
L 520.81343 91.511111 
L 518.969007 90.465461 
L 515.85391 88.743142 
L 515.53968 88.573333 
L 512.738814 87.072819 
L 509.982624 85.635556 
L 509.623717 85.449944 
L 506.508621 83.876809 
L 504.108025 82.697778 
L 503.393524 82.34957 
L 500.278427 80.869631 
L 497.874434 79.76 
L 497.163331 79.434137 
L 494.048234 78.044202 
L 491.224489 76.822222 
L 490.933138 76.696984 
L 487.818041 75.394109 
L 484.702944 74.132544 
L 484.07197 73.884444 
L 481.587848 72.913574 
L 478.472751 71.735295 
L 476.317476 70.946667 
L 475.357655 70.597408 
L 472.242558 69.500023 
L 469.127461 68.441533 
L 467.808891 68.008889 
L 466.012365 67.422307 
L 462.897268 66.441648 
L 459.782172 65.498668 
L 458.314056 65.071111 
L 456.667075 64.593512 
L 453.551978 63.725692 
L 450.436882 62.894468 
L 447.454526 62.133333 
L 447.321785 62.09958 
L 444.206689 61.341221 
L 441.091592 60.618512 
L 437.976495 59.931202 
L 434.861399 59.279049 
L 434.440856 59.195556 
L 431.746302 58.662063 
L 428.631206 58.079745 
L 425.516109 57.531847 
L 422.401012 57.018173 
L 419.285916 56.538538 
L 417.325164 56.257778 
L 416.170819 56.092804 
L 413.055723 55.680807 
L 409.940626 55.302324 
L 406.825529 54.957217 
L 403.710433 54.645362 
L 400.595336 54.366644 
L 397.48024 54.120961 
L 394.365143 53.908222 
L 391.250046 53.728346 
L 388.13495 53.581268 
L 385.019853 53.466931 
L 381.904757 53.385292 
L 378.78966 53.336322 
L 375.674563 53.32 
" clip-path="url(#p704fe78d6f)" style="fill: none; stroke: #28ae80; stroke-width: 1.5"/>
   </g>
   <g id="PathCollection_20">
    <path d="M 684.069127 190.922071 
L 682.917873 188.457778 
L 681.50939 185.52 
L 680.95403 184.38873 
L 680.062108 182.582222 
L 678.576119 179.644444 
L 677.838934 178.220448 
L 677.0505 176.706667 
L 675.484805 173.768889 
L 674.723837 172.372632 
L 673.878279 170.831111 
L 672.230525 167.893333 
L 671.608741 166.807984 
L 670.540262 164.955556 
L 668.807939 162.017778 
L 668.493644 161.495134 
L 667.030827 159.08 
L 665.378547 156.41117 
L 665.210798 156.142222 
L 663.343897 153.204444 
L 662.263451 151.538822 
L 661.431754 150.266667 
L 659.472913 147.328889 
L 659.148354 146.850813 
L 657.464727 144.391111 
L 656.033258 142.34049 
L 655.408682 141.453333 
L 653.302307 138.515556 
L 652.918161 137.988964 
L 651.143514 135.577778 
L 649.803064 133.789732 
L 648.933197 132.64 
L 646.687968 129.725292 
L 646.670028 129.702222 
L 644.349297 126.764444 
L 643.572871 125.798319 
L 641.972632 123.826667 
L 640.457775 121.99135 
L 639.538502 120.888889 
L 637.342678 118.298402 
L 637.045194 117.951111 
L 634.489581 115.013333 
L 634.227581 114.716651 
L 631.869679 112.075556 
L 631.112485 111.240342 
L 629.184834 109.137778 
L 628.115898 107.989187 
" clip-path="url(#p704fe78d6f)" style="fill: none; stroke: #5ec962; stroke-width: 1.5"/>
    <path d="M 608.717598 88.89013 
L 608.368107 88.573333 
L 606.191712 86.625076 
L 605.070847 85.635556 
L 603.076615 83.896335 
L 601.682588 82.697778 
L 599.961519 81.235478 
L 598.199367 79.76 
L 596.846422 78.640146 
L 594.616951 76.822222 
L 593.731325 76.108129 
L 590.930818 73.884444 
L 590.616229 73.637358 
L 587.501132 71.227217 
L 587.132879 70.946667 
L 584.386036 68.875834 
L 583.217032 68.008889 
L 581.270939 66.580261 
L 579.180282 65.071111 
L 578.155842 64.338881 
L 575.040746 62.150252 
L 575.016284 62.133333 
L 571.925649 60.015908 
L 570.706522 59.195556 
L 568.810553 57.931408 
L 566.253832 56.257778 
L 565.695456 55.895499 
L 562.580359 53.909023 
L 561.639656 53.32 
L 559.465263 51.970013 
L 556.857097 50.382222 
L 556.350166 50.076138 
L 553.23507 48.228799 
L 551.886129 47.444444 
L 550.119973 46.4255 
L 547.004876 44.664868 
L 546.719695 44.506667 
L 543.88978 42.948438 
L 541.328873 41.568889 
L 540.774683 41.272484 
L 537.659587 39.638769 
L 535.695349 38.631111 
L 534.54449 38.04472 
L 531.429393 36.49076 
L 529.794829 35.693333 
L 528.314297 34.975682 
L 525.1992 33.499109 
L 523.59405 32.755556 
L 522.084104 32.060333 
L 518.969007 30.658929 
L 517.053462 29.817778 
L 515.85391 29.29403 
L 512.738814 27.965722 
L 510.125781 26.88 
" clip-path="url(#p704fe78d6f)" style="fill: none; stroke: #5ec962; stroke-width: 1.5"/>
   </g>
   <g id="PathCollection_21">
    <path d="M 684.069127 88.743521 
L 683.927235 88.573333 
L 681.445502 85.635556 
L 680.95403 85.061629 
L 679.965662 83.917829 
" clip-path="url(#p704fe78d6f)" style="fill: none; stroke: #addc30; stroke-width: 1.5"/>
    <path d="M 661.585621 64.122436 
L 659.592028 62.133333 
L 659.148354 61.695841 
L 656.585283 59.195556 
L 656.033258 58.663221 
L 653.511204 56.257778 
L 652.918161 55.698492 
L 650.367529 53.32 
L 649.803064 52.799397 
L 647.151866 50.382222 
L 646.687968 49.963803 
L 643.861683 47.444444 
L 643.572871 47.189692 
L 640.494305 44.506667 
L 640.457775 44.475155 
L 637.342678 41.819571 
L 637.044937 41.568889 
L 634.227581 39.220368 
L 633.511602 38.631111 
L 631.112485 36.675749 
L 629.891287 35.693333 
L 627.997388 34.18416 
L 626.180554 32.755556 
L 624.882292 31.744133 
L 622.375763 29.817778 
L 621.767195 29.354282 
L 618.652098 27.013815 
L 618.471638 26.88 
" clip-path="url(#p704fe78d6f)" style="fill: none; stroke: #addc30; stroke-width: 1.5"/>
   </g>
   <g id="PathCollection_22"/>
   <g id="line2d_27">
    <path d="M 550.057671 139.5144 
L 602.765106 118.6268 
" clip-path="url(#p704fe78d6f)" style="fill: none; stroke: #000000; stroke-width: 0.5; stroke-linecap: square"/>
   </g>
   <g id="line2d_28">
    <path d="M 515.85391 264.84 
L 515.85391 54.642 
" clip-path="url(#p704fe78d6f)" style="fill: none; stroke: #000000; stroke-width: 0.5; stroke-linecap: square"/>
   </g>
   <g id="patch_8">
    <path d="M 375.674563 317.72 
L 375.674563 26.88 
" style="fill: none; stroke: #000000; stroke-width: 0.8; stroke-linejoin: miter; stroke-linecap: square"/>
   </g>
   <g id="patch_9">
    <path d="M 684.069127 317.72 
L 684.069127 26.88 
" style="fill: none; stroke: #000000; stroke-width: 0.8; stroke-linejoin: miter; stroke-linecap: square"/>
   </g>
   <g id="patch_10">
    <path d="M 375.674563 317.72 
L 684.069127 317.72 
" style="fill: none; stroke: #000000; stroke-width: 0.8; stroke-linejoin: miter; stroke-linecap: square"/>
   </g>
   <g id="patch_11">
    <path d="M 375.674563 26.88 
L 684.069127 26.88 
" style="fill: none; stroke: #000000; stroke-width: 0.8; stroke-linejoin: miter; stroke-linecap: square"/>
   </g>
   <g id="PathCollection_23">
    <g clip-path="url(#p704fe78d6f)">
     <use xlink:href="#m17cdf3839b" x="550.057671" y="139.5144" style="stroke: #000000"/>
     <use xlink:href="#m17cdf3839b" x="602.765106" y="118.6268" style="stroke: #000000"/>
    </g>
   </g>
   <g id="PathCollection_24">
    <path d="M 573.392774 132.502924 
C 573.985787 132.502924 574.55459 132.267318 574.973913 131.847995 
C 575.393236 131.428672 575.628842 130.859868 575.628842 130.266856 
C 575.628842 129.673844 575.393236 129.10504 574.973913 128.685717 
C 574.55459 128.266395 573.985787 128.030788 573.392774 128.030788 
C 572.799762 128.030788 572.230959 128.266395 571.811636 128.685717 
C 571.392313 129.10504 571.156706 129.673844 571.156706 130.266856 
C 571.156706 130.859868 571.392313 131.428672 571.811636 131.847995 
C 572.230959 132.267318 572.799762 132.502924 573.392774 132.502924 
L 573.392774 132.502924 
z
" clip-path="url(#p704fe78d6f)" style="fill: none; stroke: #ff0000"/>
   </g>
   <g id="PathCollection_25">
    <g clip-path="url(#p704fe78d6f)">
     <use xlink:href="#m17cdf3839b" x="515.85391" y="264.84" style="stroke: #000000"/>
     <use xlink:href="#m17cdf3839b" x="515.85391" y="54.642" style="stroke: #000000"/>
    </g>
   </g>
   <g id="PathCollection_26">
    <path d="M 515.85391 90.978951 
C 516.446923 90.978951 517.015726 90.743344 517.435049 90.324022 
C 517.854372 89.904699 518.089978 89.335895 518.089978 88.742883 
C 518.089978 88.149871 517.854372 87.581067 517.435049 87.161744 
C 517.015726 86.742421 516.446923 86.506815 515.85391 86.506815 
C 515.260898 86.506815 514.692095 86.742421 514.272772 87.161744 
C 513.853449 87.581067 513.617843 88.149871 513.617843 88.742883 
C 513.617843 89.335895 513.853449 89.904699 514.272772 90.324022 
C 514.692095 90.743344 515.260898 90.978951 515.85391 90.978951 
L 515.85391 90.978951 
z
" clip-path="url(#p704fe78d6f)" style="fill: none; stroke: #ff0000"/>
   </g>
   <g id="text_33">
    <!-- Directional Newton -->
    <g transform="translate(472.605595 20.88)scale(0.12 -0.12)">
     <defs>
      <path id="DejaVuSans-44" d="M 1259 4147 
L 1259 519 
L 2022 519 
Q 2988 519 3436 956 
Q 3884 1394 3884 2338 
Q 3884 3275 3436 3711 
Q 2988 4147 2022 4147 
L 1259 4147 
z
M 628 4666 
L 1925 4666 
Q 3281 4666 3915 4102 
Q 4550 3538 4550 2338 
Q 4550 1131 3912 565 
Q 3275 0 1925 0 
L 628 0 
L 628 4666 
z
" transform="scale(0.015625)"/>
      <path id="DejaVuSans-63" d="M 3122 3366 
L 3122 2828 
Q 2878 2963 2633 3030 
Q 2388 3097 2138 3097 
Q 1578 3097 1268 2742 
Q 959 2388 959 1747 
Q 959 1106 1268 751 
Q 1578 397 2138 397 
Q 2388 397 2633 464 
Q 2878 531 3122 666 
L 3122 134 
Q 2881 22 2623 -34 
Q 2366 -91 2075 -91 
Q 1284 -91 818 406 
Q 353 903 353 1747 
Q 353 2603 823 3093 
Q 1294 3584 2113 3584 
Q 2378 3584 2631 3529 
Q 2884 3475 3122 3366 
z
" transform="scale(0.015625)"/>
      <path id="DejaVuSans-74" d="M 1172 4494 
L 1172 3500 
L 2356 3500 
L 2356 3053 
L 1172 3053 
L 1172 1153 
Q 1172 725 1289 603 
Q 1406 481 1766 481 
L 2356 481 
L 2356 0 
L 1766 0 
Q 1100 0 847 248 
Q 594 497 594 1153 
L 594 3053 
L 172 3053 
L 172 3500 
L 594 3500 
L 594 4494 
L 1172 4494 
z
" transform="scale(0.015625)"/>
      <path id="DejaVuSans-6f" d="M 1959 3097 
Q 1497 3097 1228 2736 
Q 959 2375 959 1747 
Q 959 1119 1226 758 
Q 1494 397 1959 397 
Q 2419 397 2687 759 
Q 2956 1122 2956 1747 
Q 2956 2369 2687 2733 
Q 2419 3097 1959 3097 
z
M 1959 3584 
Q 2709 3584 3137 3096 
Q 3566 2609 3566 1747 
Q 3566 888 3137 398 
Q 2709 -91 1959 -91 
Q 1206 -91 779 398 
Q 353 888 353 1747 
Q 353 2609 779 3096 
Q 1206 3584 1959 3584 
z
" transform="scale(0.015625)"/>
      <path id="DejaVuSans-6c" d="M 603 4863 
L 1178 4863 
L 1178 0 
L 603 0 
L 603 4863 
z
" transform="scale(0.015625)"/>
      <path id="DejaVuSans-20" transform="scale(0.015625)"/>
      <path id="DejaVuSans-4e" d="M 628 4666 
L 1478 4666 
L 3547 763 
L 3547 4666 
L 4159 4666 
L 4159 0 
L 3309 0 
L 1241 3903 
L 1241 0 
L 628 0 
L 628 4666 
z
" transform="scale(0.015625)"/>
      <path id="DejaVuSans-77" d="M 269 3500 
L 844 3500 
L 1563 769 
L 2278 3500 
L 2956 3500 
L 3675 769 
L 4391 3500 
L 4966 3500 
L 4050 0 
L 3372 0 
L 2619 2869 
L 1863 0 
L 1184 0 
L 269 3500 
z
" transform="scale(0.015625)"/>
     </defs>
     <use xlink:href="#DejaVuSans-44"/>
     <use xlink:href="#DejaVuSans-69" x="77.001953"/>
     <use xlink:href="#DejaVuSans-72" x="104.785156"/>
     <use xlink:href="#DejaVuSans-65" x="143.648438"/>
     <use xlink:href="#DejaVuSans-63" x="205.171875"/>
     <use xlink:href="#DejaVuSans-74" x="260.152344"/>
     <use xlink:href="#DejaVuSans-69" x="299.361328"/>
     <use xlink:href="#DejaVuSans-6f" x="327.144531"/>
     <use xlink:href="#DejaVuSans-6e" x="388.326172"/>
     <use xlink:href="#DejaVuSans-61" x="451.705078"/>
     <use xlink:href="#DejaVuSans-6c" x="512.984375"/>
     <use xlink:href="#DejaVuSans-20" x="540.767578"/>
     <use xlink:href="#DejaVuSans-4e" x="572.554688"/>
     <use xlink:href="#DejaVuSans-65" x="647.359375"/>
     <use xlink:href="#DejaVuSans-77" x="708.882812"/>
     <use xlink:href="#DejaVuSans-74" x="790.669922"/>
     <use xlink:href="#DejaVuSans-6f" x="829.878906"/>
     <use xlink:href="#DejaVuSans-6e" x="891.060547"/>
    </g>
   </g>
   <g id="text_34">
    <g clip-path="url(#p704fe78d6f)">
     <!-- −0.8 -->
     <g style="fill: #472c7a" transform="translate(407.709175 274.718366)rotate(-308.711423)scale(0.1 -0.1)">
      <use xlink:href="#DejaVuSans-2212"/>
      <use xlink:href="#DejaVuSans-30" x="83.789062"/>
      <use xlink:href="#DejaVuSans-2e" x="147.412109"/>
      <use xlink:href="#DejaVuSans-38" x="179.199219"/>
     </g>
    </g>
   </g>
   <g id="text_35">
    <g clip-path="url(#p704fe78d6f)">
     <!-- −0.6 -->
     <g style="fill: #3b528b" transform="translate(420.057057 221.842546)rotate(-327.049932)scale(0.1 -0.1)">
      <use xlink:href="#DejaVuSans-2212"/>
      <use xlink:href="#DejaVuSans-30" x="83.789062"/>
      <use xlink:href="#DejaVuSans-2e" x="147.412109"/>
      <use xlink:href="#DejaVuSans-36" x="179.199219"/>
     </g>
    </g>
   </g>
   <g id="text_36">
    <g clip-path="url(#p704fe78d6f)">
     <!-- −0.4 -->
     <g style="fill: #2c728e" transform="translate(493.839891 206.497116)rotate(-307.30769)scale(0.1 -0.1)">
      <use xlink:href="#DejaVuSans-2212"/>
      <use xlink:href="#DejaVuSans-30" x="83.789062"/>
      <use xlink:href="#DejaVuSans-2e" x="147.412109"/>
      <use xlink:href="#DejaVuSans-34" x="179.199219"/>
     </g>
    </g>
   </g>
   <g id="text_37">
    <g clip-path="url(#p704fe78d6f)">
     <!-- −0.2 -->
     <g style="fill: #21918c" transform="translate(557.376266 196.093661)rotate(-299.120588)scale(0.1 -0.1)">
      <use xlink:href="#DejaVuSans-2212"/>
      <use xlink:href="#DejaVuSans-30" x="83.789062"/>
      <use xlink:href="#DejaVuSans-2e" x="147.412109"/>
      <use xlink:href="#DejaVuSans-32" x="179.199219"/>
     </g>
    </g>
   </g>
   <g id="text_38">
    <g clip-path="url(#p704fe78d6f)">
     <!-- 0.0 -->
     <g style="fill: #28ae80" transform="translate(617.758537 188.304835)rotate(-295.116226)scale(0.1 -0.1)">
      <use xlink:href="#DejaVuSans-30"/>
      <use xlink:href="#DejaVuSans-2e" x="63.623047"/>
      <use xlink:href="#DejaVuSans-30" x="95.410156"/>
     </g>
    </g>
   </g>
   <g id="text_39">
    <g clip-path="url(#p704fe78d6f)">
     <!-- 0.2 -->
     <g style="fill: #5ec962" transform="translate(611.39844 94.002749)rotate(-310.382846)scale(0.1 -0.1)">
      <use xlink:href="#DejaVuSans-30"/>
      <use xlink:href="#DejaVuSans-2e" x="63.623047"/>
      <use xlink:href="#DejaVuSans-32" x="95.410156"/>
     </g>
    </g>
   </g>
   <g id="text_40">
    <g clip-path="url(#p704fe78d6f)">
     <!-- 0.4 -->
     <g style="fill: #addc30" transform="translate(663.923966 69.302023)rotate(-307.875545)scale(0.1 -0.1)">
      <use xlink:href="#DejaVuSans-30"/>
      <use xlink:href="#DejaVuSans-2e" x="63.623047"/>
      <use xlink:href="#DejaVuSans-34" x="95.410156"/>
     </g>
    </g>
   </g>
  </g>
  <g id="axes_3">
   <g id="patch_12">
    <path d="M 717.709127 317.72 
L 1026.10369 317.72 
L 1026.10369 26.88 
L 717.709127 26.88 
z
" style="fill: #ffffff"/>
   </g>
   <g id="matplotlib.axis_5">
    <g id="xtick_13">
     <g id="line2d_29">
      <g>
       <use xlink:href="#mdb64a57d84" x="717.709127" y="317.72" style="stroke: #000000; stroke-width: 0.8"/>
      </g>
     </g>
     <g id="text_41">
      <!-- 0.0 -->
      <g transform="translate(709.757564 332.318437)scale(0.1 -0.1)">
       <use xlink:href="#DejaVuSans-30"/>
       <use xlink:href="#DejaVuSans-2e" x="63.623047"/>
       <use xlink:href="#DejaVuSans-30" x="95.410156"/>
      </g>
     </g>
    </g>
    <g id="xtick_14">
     <g id="line2d_30">
      <g>
       <use xlink:href="#mdb64a57d84" x="773.780866" y="317.72" style="stroke: #000000; stroke-width: 0.8"/>
      </g>
     </g>
     <g id="text_42">
      <!-- 0.2 -->
      <g transform="translate(765.829303 332.318437)scale(0.1 -0.1)">
       <use xlink:href="#DejaVuSans-30"/>
       <use xlink:href="#DejaVuSans-2e" x="63.623047"/>
       <use xlink:href="#DejaVuSans-32" x="95.410156"/>
      </g>
     </g>
    </g>
    <g id="xtick_15">
     <g id="line2d_31">
      <g>
       <use xlink:href="#mdb64a57d84" x="829.852605" y="317.72" style="stroke: #000000; stroke-width: 0.8"/>
      </g>
     </g>
     <g id="text_43">
      <!-- 0.4 -->
      <g transform="translate(821.901042 332.318437)scale(0.1 -0.1)">
       <use xlink:href="#DejaVuSans-30"/>
       <use xlink:href="#DejaVuSans-2e" x="63.623047"/>
       <use xlink:href="#DejaVuSans-34" x="95.410156"/>
      </g>
     </g>
    </g>
    <g id="xtick_16">
     <g id="line2d_32">
      <g>
       <use xlink:href="#mdb64a57d84" x="885.924343" y="317.72" style="stroke: #000000; stroke-width: 0.8"/>
      </g>
     </g>
     <g id="text_44">
      <!-- 0.6 -->
      <g transform="translate(877.972781 332.318437)scale(0.1 -0.1)">
       <use xlink:href="#DejaVuSans-30"/>
       <use xlink:href="#DejaVuSans-2e" x="63.623047"/>
       <use xlink:href="#DejaVuSans-36" x="95.410156"/>
      </g>
     </g>
    </g>
    <g id="xtick_17">
     <g id="line2d_33">
      <g>
       <use xlink:href="#mdb64a57d84" x="941.996082" y="317.72" style="stroke: #000000; stroke-width: 0.8"/>
      </g>
     </g>
     <g id="text_45">
      <!-- 0.8 -->
      <g transform="translate(934.04452 332.318437)scale(0.1 -0.1)">
       <use xlink:href="#DejaVuSans-30"/>
       <use xlink:href="#DejaVuSans-2e" x="63.623047"/>
       <use xlink:href="#DejaVuSans-38" x="95.410156"/>
      </g>
     </g>
    </g>
    <g id="xtick_18">
     <g id="line2d_34">
      <g>
       <use xlink:href="#mdb64a57d84" x="998.067821" y="317.72" style="stroke: #000000; stroke-width: 0.8"/>
      </g>
     </g>
     <g id="text_46">
      <!-- 1.0 -->
      <g transform="translate(990.116258 332.318437)scale(0.1 -0.1)">
       <use xlink:href="#DejaVuSans-31"/>
       <use xlink:href="#DejaVuSans-2e" x="63.623047"/>
       <use xlink:href="#DejaVuSans-30" x="95.410156"/>
      </g>
     </g>
    </g>
   </g>
   <g id="matplotlib.axis_6">
    <g id="ytick_13">
     <g id="line2d_35">
      <g>
       <use xlink:href="#mf00839e960" x="717.709127" y="317.72" style="stroke: #000000; stroke-width: 0.8"/>
      </g>
     </g>
     <g id="text_47">
      <!-- 0.0 -->
      <g transform="translate(694.806002 321.519219)scale(0.1 -0.1)">
       <use xlink:href="#DejaVuSans-30"/>
       <use xlink:href="#DejaVuSans-2e" x="63.623047"/>
       <use xlink:href="#DejaVuSans-30" x="95.410156"/>
      </g>
     </g>
    </g>
    <g id="ytick_14">
     <g id="line2d_36">
      <g>
       <use xlink:href="#mf00839e960" x="717.709127" y="264.84" style="stroke: #000000; stroke-width: 0.8"/>
      </g>
     </g>
     <g id="text_48">
      <!-- 0.2 -->
      <g transform="translate(694.806002 268.639219)scale(0.1 -0.1)">
       <use xlink:href="#DejaVuSans-30"/>
       <use xlink:href="#DejaVuSans-2e" x="63.623047"/>
       <use xlink:href="#DejaVuSans-32" x="95.410156"/>
      </g>
     </g>
    </g>
    <g id="ytick_15">
     <g id="line2d_37">
      <g>
       <use xlink:href="#mf00839e960" x="717.709127" y="211.96" style="stroke: #000000; stroke-width: 0.8"/>
      </g>
     </g>
     <g id="text_49">
      <!-- 0.4 -->
      <g transform="translate(694.806002 215.759219)scale(0.1 -0.1)">
       <use xlink:href="#DejaVuSans-30"/>
       <use xlink:href="#DejaVuSans-2e" x="63.623047"/>
       <use xlink:href="#DejaVuSans-34" x="95.410156"/>
      </g>
     </g>
    </g>
    <g id="ytick_16">
     <g id="line2d_38">
      <g>
       <use xlink:href="#mf00839e960" x="717.709127" y="159.08" style="stroke: #000000; stroke-width: 0.8"/>
      </g>
     </g>
     <g id="text_50">
      <!-- 0.6 -->
      <g transform="translate(694.806002 162.879219)scale(0.1 -0.1)">
       <use xlink:href="#DejaVuSans-30"/>
       <use xlink:href="#DejaVuSans-2e" x="63.623047"/>
       <use xlink:href="#DejaVuSans-36" x="95.410156"/>
      </g>
     </g>
    </g>
    <g id="ytick_17">
     <g id="line2d_39">
      <g>
       <use xlink:href="#mf00839e960" x="717.709127" y="106.2" style="stroke: #000000; stroke-width: 0.8"/>
      </g>
     </g>
     <g id="text_51">
      <!-- 0.8 -->
      <g transform="translate(694.806002 109.999219)scale(0.1 -0.1)">
       <use xlink:href="#DejaVuSans-30"/>
       <use xlink:href="#DejaVuSans-2e" x="63.623047"/>
       <use xlink:href="#DejaVuSans-38" x="95.410156"/>
      </g>
     </g>
    </g>
    <g id="ytick_18">
     <g id="line2d_40">
      <g>
       <use xlink:href="#mf00839e960" x="717.709127" y="53.32" style="stroke: #000000; stroke-width: 0.8"/>
      </g>
     </g>
     <g id="text_52">
      <!-- 1.0 -->
      <g transform="translate(694.806002 57.119219)scale(0.1 -0.1)">
       <use xlink:href="#DejaVuSans-31"/>
       <use xlink:href="#DejaVuSans-2e" x="63.623047"/>
       <use xlink:href="#DejaVuSans-30" x="95.410156"/>
      </g>
     </g>
    </g>
   </g>
   <g id="PathCollection_27">
    <path d="M 717.709127 317.72 
" clip-path="url(#p0e66a76bca)" style="fill: none; stroke: #440154; stroke-width: 1.5"/>
   </g>
   <g id="PathCollection_28">
    <path d="M 773.780866 317.72 
L 773.694261 314.782222 
L 773.433558 311.844444 
L 772.996134 308.906667 
L 772.377759 305.968889 
L 771.572779 303.031111 
L 770.665769 300.358329 
L 770.573762 300.093333 
L 769.457224 297.382674 
" clip-path="url(#p0e66a76bca)" style="fill: none; stroke: #472c7a; stroke-width: 1.5"/>
    <path d="M 744.225165 271.152909 
L 743.370166 270.715556 
L 742.6299 270.35164 
L 739.514803 269.005756 
L 736.399707 267.864548 
L 736.118716 267.777778 
L 733.28461 266.922398 
L 730.169513 266.163239 
L 727.054417 265.580062 
L 723.93932 265.167538 
L 720.824224 264.921675 
L 717.709127 264.84 
" clip-path="url(#p0e66a76bca)" style="fill: none; stroke: #472c7a; stroke-width: 1.5"/>
   </g>
   <g id="PathCollection_29">
    <path d="M 829.852605 317.72 
L 829.80933 314.782222 
L 829.679403 311.844444 
L 829.462505 308.906667 
L 829.158116 305.968889 
L 828.765514 303.031111 
L 828.283782 300.093333 
L 827.711827 297.155556 
L 827.048381 294.217778 
L 826.737508 293.005772 
L 826.291233 291.28 
L 825.438389 288.342222 
L 824.488417 285.404444 
L 823.622411 282.975706 
L 823.438722 282.466667 
L 822.283988 279.528889 
L 821.024226 276.591111 
L 820.507315 275.472918 
L 819.652539 273.653333 
L 818.166214 270.715556 
L 817.392218 269.286508 
L 816.559138 267.777778 
L 814.826441 264.84 
L 814.277122 263.962239 
L 812.958356 261.902222 
L 811.162025 259.263708 
L 810.953095 258.964444 
L 808.792483 256.026667 
L 808.046928 255.064845 
L 806.470614 253.088889 
L 804.931832 251.254931 
L 803.976071 250.151111 
L 801.816735 247.771739 
L 801.292277 247.213333 
L 798.701639 244.572765 
L 798.398969 244.275556 
L 795.586542 241.623219 
L 795.271394 241.337778 
L 792.471445 238.894605 
L 791.879335 238.4 
L 789.840495 236.754356 
" clip-path="url(#p0e66a76bca)" style="fill: none; stroke: #3b528b; stroke-width: 1.5"/>
    <path d="M 755.641702 218.201558 
L 755.090286 218.008789 
L 754.550522 217.835556 
L 751.97519 217.018845 
L 748.860093 216.122947 
L 745.744996 215.31865 
L 743.915059 214.897778 
L 742.6299 214.6046 
L 739.514803 213.97892 
L 736.399707 213.439521 
L 733.28461 212.985211 
L 730.169513 212.614956 
L 727.054417 212.327894 
L 723.93932 212.123343 
L 720.824224 212.000811 
L 717.709127 211.96 
" clip-path="url(#p0e66a76bca)" style="fill: none; stroke: #3b528b; stroke-width: 1.5"/>
   </g>
   <g id="PathCollection_30">
    <path d="M 885.924343 317.72 
L 885.924343 317.72 
L 885.895497 314.782222 
L 885.808928 311.844444 
L 885.664544 308.906667 
L 885.462192 305.968889 
L 885.201659 303.031111 
L 884.882673 300.093333 
L 884.504903 297.155556 
L 884.067965 294.217778 
L 883.571418 291.28 
L 883.014772 288.342222 
L 882.809247 287.361788 
L 882.397163 285.404444 
L 881.717963 282.466667 
L 880.976627 279.528889 
L 880.172431 276.591111 
L 879.69415 274.968461 
L 879.304037 273.653333 
L 878.37017 270.715556 
L 877.370557 267.777778 
L 876.579054 265.593742 
L 876.303676 264.84 
L 875.166992 261.902222 
L 873.961013 258.964444 
L 873.463957 257.815539 
L 872.682328 256.026667 
L 871.329964 253.088889 
L 870.34886 251.062654 
L 869.902477 250.151111 
L 868.395916 247.213333 
L 867.233764 245.052556 
L 866.810502 244.275556 
L 865.140734 241.337778 
L 864.118667 239.616211 
L 863.386267 238.4 
L 861.543021 235.462222 
L 861.003571 234.63469 
L 859.606087 232.524444 
L 857.888474 230.032874 
L 857.575638 229.586667 
L 856.888981 228.641053 
" clip-path="url(#p0e66a76bca)" style="fill: none; stroke: #2c728e; stroke-width: 1.5"/>
    <path d="M 832.163692 201.475126 
L 830.709923 200.208889 
L 829.852605 199.479731 
L 827.178539 197.271111 
L 826.737508 196.914959 
L 823.622411 194.473948 
L 823.437445 194.333333 
L 820.507315 192.1518 
L 819.456868 191.395556 
L 817.392218 189.938073 
L 815.220132 188.457778 
L 814.277122 187.826864 
L 811.162025 185.815028 
L 810.688885 185.52 
L 808.046928 183.900158 
L 805.809312 182.582222 
L 804.931832 182.073479 
L 801.816735 180.335154 
L 800.527115 179.644444 
L 798.701639 178.680556 
L 795.586542 177.105835 
L 794.762644 176.706667 
L 792.471445 175.610667 
L 789.356349 174.189863 
L 788.389787 173.768889 
L 786.241252 172.843632 
L 783.126156 171.568247 
L 781.22931 170.831111 
L 780.011059 170.362349 
L 776.895962 169.225017 
L 773.780866 168.153036 
L 772.981629 167.893333 
L 770.665769 167.146884 
L 767.550673 166.204172 
L 764.435576 165.323463 
L 763.041069 164.955556 
L 761.320479 164.504499 
L 758.205383 163.746081 
L 755.090286 163.046943 
L 751.97519 162.406405 
L 749.899704 162.017778 
L 748.860093 161.823952 
L 745.744996 161.298991 
L 742.6299 160.830709 
L 739.514803 160.418642 
L 736.399707 160.062376 
L 733.28461 159.761547 
L 730.169513 159.515844 
L 727.054417 159.325011 
L 723.93932 159.188845 
L 720.824224 159.107204 
L 717.709127 159.08 
L 717.709127 159.08 
" clip-path="url(#p0e66a76bca)" style="fill: none; stroke: #2c728e; stroke-width: 1.5"/>
   </g>
   <g id="PathCollection_31">
    <path d="M 941.996082 317.72 
L 941.974448 314.782222 
L 941.909535 311.844444 
L 941.801302 308.906667 
L 941.649686 305.968889 
L 941.454598 303.031111 
L 941.215923 300.093333 
L 940.933521 297.155556 
L 940.607229 294.217778 
L 940.236858 291.28 
L 939.822198 288.342222 
L 939.363015 285.404444 
L 938.880986 282.59426 
L 938.859043 282.466667 
L 938.30977 279.528889 
L 937.71504 276.591111 
L 937.074518 273.653333 
L 936.387847 270.715556 
L 935.765889 268.222294 
L 935.654564 267.777778 
L 934.87375 264.84 
L 934.045416 261.902222 
L 933.169111 258.964444 
L 932.650792 257.314992 
L 932.24387 256.026667 
L 931.268866 253.088889 
L 930.244162 250.151111 
L 929.535696 248.211932 
L 929.168629 247.213333 
L 928.040899 244.275556 
L 926.861461 241.337778 
L 926.420599 240.282887 
L 925.628073 238.4 
L 924.340475 235.462222 
L 923.305503 233.19304 
L 922.998139 232.524444 
L 921.598257 229.586667 
L 920.190406 226.744935 
L 920.142407 226.648889 
L 918.625628 223.711111 
L 917.075309 220.81839 
L 917.050931 220.773333 
L 916.965383 220.619978 
" clip-path="url(#p0e66a76bca)" style="fill: none; stroke: #21918c; stroke-width: 1.5"/>
    <path d="M 897.086407 190.753127 
L 895.269633 188.491405 
L 895.242216 188.457778 
L 892.791326 185.52 
L 892.154537 184.775055 
L 890.250142 182.582222 
L 889.03944 181.220621 
L 887.614564 179.644444 
L 885.924343 177.816759 
L 884.879868 176.706667 
L 882.809247 174.553632 
L 882.040836 173.768889 
L 879.69415 171.422334 
L 879.091706 170.831111 
L 876.579054 168.414795 
L 876.026117 167.893333 
L 873.463957 165.523708 
L 872.837049 164.955556 
L 870.34886 162.742449 
L 869.516751 162.017778 
L 867.233764 160.065021 
L 866.056669 159.08 
L 864.118667 157.485991 
L 862.447356 156.142222 
L 861.003571 155.000437 
L 858.678382 153.204444 
L 857.888474 152.603903 
L 854.773377 150.292524 
L 854.737721 150.266667 
L 851.658281 148.066639 
L 850.598357 147.328889 
L 848.543184 145.918637 
L 846.2562 144.391111 
L 845.428088 143.845461 
L 842.312991 141.846358 
L 841.684006 141.453333 
L 839.197894 139.919467 
L 836.853604 138.515556 
L 836.082798 138.059486 
L 832.967701 136.267275 
L 831.732825 135.577778 
L 829.852605 134.539648 
L 826.737508 132.873712 
L 826.287332 132.64 
L 823.622411 131.270732 
L 820.507315 129.725213 
L 820.459539 129.702222 
L 817.392218 128.240151 
L 814.277122 126.809711 
L 814.175279 126.764444 
L 811.162025 125.436732 
L 808.046928 124.116534 
L 807.337978 123.826667 
L 804.931832 122.850608 
L 801.816735 121.636303 
L 799.820201 120.888889 
L 798.701639 120.473122 
L 795.586542 119.36082 
L 792.471445 118.297284 
L 791.412573 117.951111 
L 789.356349 117.282972 
L 786.241252 116.316597 
L 783.126156 115.397093 
L 781.760069 115.013333 
L 780.011059 114.524519 
L 776.895962 113.698095 
L 773.780866 112.916911 
L 770.665769 112.180544 
L 770.194423 112.075556 
L 767.550673 111.489001 
L 764.435576 110.841417 
L 761.320479 110.237354 
L 758.205383 109.676478 
L 755.090286 109.158471 
L 754.954991 109.137778 
L 751.97519 108.683187 
L 748.860093 108.250141 
L 745.744996 107.859085 
L 742.6299 107.509797 
L 739.514803 107.202078 
L 736.399707 106.935751 
L 733.28461 106.710662 
L 730.169513 106.526678 
L 727.054417 106.383693 
L 723.93932 106.281621 
L 720.824224 106.220402 
L 717.709127 106.2 
" clip-path="url(#p0e66a76bca)" style="fill: none; stroke: #21918c; stroke-width: 1.5"/>
   </g>
   <g id="PathCollection_32">
    <path d="M 998.067821 317.72 
L 998.050514 314.782222 
L 997.998588 311.844444 
L 997.912022 308.906667 
L 997.790784 305.968889 
L 997.634828 303.031111 
L 997.444095 300.093333 
L 997.218515 297.155556 
L 996.958003 294.217778 
L 996.662462 291.28 
L 996.331784 288.342222 
L 995.965848 285.404444 
L 995.56452 282.466667 
L 995.127655 279.528889 
L 994.952724 278.440252 
L 994.655018 276.591111 
L 994.146433 273.653333 
L 993.601755 270.715556 
L 993.020787 267.777778 
L 992.403321 264.84 
L 991.837628 262.298827 
L 991.749094 261.902222 
L 991.057579 258.964444 
L 990.328784 256.026667 
L 989.562454 253.088889 
L 988.758321 250.151111 
L 988.722531 250.025926 
L 987.915455 247.213333 
L 987.034061 244.275556 
L 986.11386 241.337778 
L 985.607435 239.784547 
L 985.154071 238.4 
L 984.154174 235.462222 
L 983.114325 232.524444 
L 982.492338 230.830181 
L 982.033581 229.586667 
L 980.911201 226.648889 
L 979.747581 223.711111 
L 979.377241 222.805925 
L 978.541012 220.773333 
L 977.291615 217.835556 
L 976.262145 215.492835 
L 975.999071 214.897778 
L 974.66136 211.96 
L 973.279845 209.022222 
L 973.147048 208.747455 
L 971.851312 206.084444 
L 971.711598 205.805952 
" clip-path="url(#p0e66a76bca)" style="fill: none; stroke: #28ae80; stroke-width: 1.5"/>
    <path d="M 959.004236 183.103265 
L 958.680329 182.582222 
L 957.571565 180.842788 
L 956.800634 179.644444 
L 954.865336 176.706667 
L 954.456469 176.099502 
L 952.871603 173.768889 
L 951.341372 171.571277 
L 950.820711 170.831111 
L 948.708993 167.893333 
L 948.226275 167.235708 
L 946.534489 164.955556 
L 945.111179 163.078773 
L 944.29751 162.017778 
L 941.996082 159.08 
L 939.624124 156.142222 
L 938.880986 155.240227 
L 937.183193 153.204444 
L 935.765889 151.538053 
L 934.670816 150.266667 
L 932.650792 147.965759 
L 932.084314 147.328889 
L 929.535696 144.516222 
L 929.420787 144.391111 
L 926.67539 141.453333 
L 926.420599 141.185359 
L 923.846028 138.515556 
L 923.305503 137.964523 
L 920.929837 135.577778 
L 920.190406 134.847099 
L 917.922938 132.64 
L 917.075309 131.828081 
L 914.821137 129.702222 
L 913.960213 128.902842 
L 911.619897 126.764444 
L 910.845116 126.067104 
L 908.314311 123.826667 
L 907.73002 123.31691 
L 904.899072 120.888889 
L 904.614923 120.648601 
L 901.499826 118.059479 
L 901.367164 117.951111 
L 898.38473 115.547566 
L 897.70942 115.013333 
L 895.269633 113.108295 
L 893.921509 112.075556 
L 892.154537 110.738928 
L 889.995878 109.137778 
L 889.03944 108.436941 
L 885.924343 106.2 
L 882.809247 104.029575 
L 881.684212 103.262222 
L 879.69415 101.91993 
L 877.276372 100.324444 
L 876.579054 99.869204 
L 873.463957 97.87769 
L 872.679116 97.386667 
L 870.34886 95.94354 
L 867.877575 94.448889 
L 867.233764 94.063295 
L 864.118667 92.238159 
L 862.847994 91.511111 
L 861.003571 90.465461 
L 857.888474 88.743142 
L 857.574244 88.573333 
L 854.773377 87.072819 
L 852.017187 85.635556 
L 851.658281 85.449944 
L 848.543184 83.876809 
L 846.142589 82.697778 
L 845.428088 82.34957 
L 842.312991 80.869631 
L 839.908998 79.76 
L 839.197894 79.434137 
L 836.082798 78.044202 
L 833.259053 76.822222 
L 832.967701 76.696984 
L 829.852605 75.394109 
L 826.737508 74.132544 
L 826.106534 73.884444 
L 823.622411 72.913574 
L 820.507315 71.735295 
L 818.35204 70.946667 
L 817.392218 70.597408 
L 814.277122 69.500023 
L 811.162025 68.441533 
L 809.843454 68.008889 
L 808.046928 67.422307 
L 804.931832 66.441648 
L 801.816735 65.498668 
L 800.34862 65.071111 
L 798.701639 64.593512 
L 795.586542 63.725692 
L 792.471445 62.894468 
L 789.48909 62.133333 
L 789.356349 62.09958 
L 786.241252 61.341221 
L 783.126156 60.618512 
L 780.011059 59.931202 
L 776.895962 59.279049 
L 776.475419 59.195556 
L 773.780866 58.662063 
L 770.665769 58.079745 
L 767.550673 57.531847 
L 764.435576 57.018173 
L 761.320479 56.538538 
L 759.359727 56.257778 
L 758.205383 56.092804 
L 755.090286 55.680807 
L 751.97519 55.302324 
L 748.860093 54.957217 
L 745.744996 54.645362 
L 742.6299 54.366644 
L 739.514803 54.120961 
L 736.399707 53.908222 
L 733.28461 53.728346 
L 730.169513 53.581268 
L 727.054417 53.466931 
L 723.93932 53.385292 
L 720.824224 53.336322 
L 717.709127 53.32 
" clip-path="url(#p0e66a76bca)" style="fill: none; stroke: #28ae80; stroke-width: 1.5"/>
   </g>
   <g id="PathCollection_33">
    <path d="M 1026.10369 190.922071 
L 1024.952437 188.457778 
L 1023.543954 185.52 
L 1022.988594 184.38873 
L 1022.096672 182.582222 
L 1020.610682 179.644444 
L 1019.873497 178.220448 
L 1019.085064 176.706667 
L 1017.519368 173.768889 
L 1016.758401 172.372632 
L 1015.912843 170.831111 
L 1014.265089 167.893333 
L 1013.643304 166.807984 
L 1012.574825 164.955556 
L 1010.842503 162.017778 
L 1010.528207 161.495134 
L 1009.065391 159.08 
L 1007.413111 156.41117 
L 1007.245361 156.142222 
L 1005.378461 153.204444 
L 1004.298014 151.538822 
L 1003.466317 150.266667 
L 1001.507476 147.328889 
L 1001.182918 146.850813 
L 999.49929 144.391111 
L 998.067821 142.34049 
L 997.443246 141.453333 
L 995.33687 138.515556 
L 994.952724 137.988964 
L 993.178077 135.577778 
L 991.837628 133.789732 
L 990.96776 132.64 
L 988.722531 129.725292 
L 988.704591 129.702222 
L 986.383861 126.764444 
L 985.607435 125.798319 
L 984.007195 123.826667 
L 982.492338 121.99135 
L 981.573066 120.888889 
L 979.377241 118.298402 
L 979.079758 117.951111 
L 976.524144 115.013333 
L 976.262145 114.716651 
L 973.904243 112.075556 
L 973.147048 111.240342 
L 971.219398 109.137778 
L 970.150462 107.989187 
" clip-path="url(#p0e66a76bca)" style="fill: none; stroke: #5ec962; stroke-width: 1.5"/>
    <path d="M 950.752161 88.89013 
L 950.402671 88.573333 
L 948.226275 86.625076 
L 947.10541 85.635556 
L 945.111179 83.896335 
L 943.717151 82.697778 
L 941.996082 81.235478 
L 940.233931 79.76 
L 938.880986 78.640146 
L 936.651515 76.822222 
L 935.765889 76.108129 
L 932.965382 73.884444 
L 932.650792 73.637358 
L 929.535696 71.227217 
L 929.167443 70.946667 
L 926.420599 68.875834 
L 925.251595 68.008889 
L 923.305503 66.580261 
L 921.214845 65.071111 
L 920.190406 64.338881 
L 917.075309 62.150252 
L 917.050847 62.133333 
L 913.960213 60.015908 
L 912.741085 59.195556 
L 910.845116 57.931408 
L 908.288395 56.257778 
L 907.73002 55.895499 
L 904.614923 53.909023 
L 903.674219 53.32 
L 901.499826 51.970013 
L 898.891661 50.382222 
L 898.38473 50.076138 
L 895.269633 48.228799 
L 893.920693 47.444444 
L 892.154537 46.4255 
L 889.03944 44.664868 
L 888.754259 44.506667 
L 885.924343 42.948438 
L 883.363437 41.568889 
L 882.809247 41.272484 
L 879.69415 39.638769 
L 877.729913 38.631111 
L 876.579054 38.04472 
L 873.463957 36.49076 
L 871.829393 35.693333 
L 870.34886 34.975682 
L 867.233764 33.499109 
L 865.628614 32.755556 
L 864.118667 32.060333 
L 861.003571 30.658929 
L 859.088025 29.817778 
L 857.888474 29.29403 
L 854.773377 27.965722 
L 852.160344 26.88 
" clip-path="url(#p0e66a76bca)" style="fill: none; stroke: #5ec962; stroke-width: 1.5"/>
   </g>
   <g id="PathCollection_34">
    <path d="M 1026.10369 88.743521 
L 1025.961799 88.573333 
L 1023.480065 85.635556 
L 1022.988594 85.061629 
L 1022.000226 83.917829 
" clip-path="url(#p0e66a76bca)" style="fill: none; stroke: #addc30; stroke-width: 1.5"/>
    <path d="M 1003.620185 64.122436 
L 1001.626592 62.133333 
L 1001.182918 61.695841 
L 998.619846 59.195556 
L 998.067821 58.663221 
L 995.545767 56.257778 
L 994.952724 55.698492 
L 992.402093 53.32 
L 991.837628 52.799397 
L 989.186429 50.382222 
L 988.722531 49.963803 
L 985.896247 47.444444 
L 985.607435 47.189692 
L 982.528869 44.506667 
L 982.492338 44.475155 
L 979.377241 41.819571 
L 979.0795 41.568889 
L 976.262145 39.220368 
L 975.546165 38.631111 
L 973.147048 36.675749 
L 971.925851 35.693333 
L 970.031952 34.18416 
L 968.215118 32.755556 
L 966.916855 31.744133 
L 964.410327 29.817778 
L 963.801758 29.354282 
L 960.686662 27.013815 
L 960.506202 26.88 
" clip-path="url(#p0e66a76bca)" style="fill: none; stroke: #addc30; stroke-width: 1.5"/>
   </g>
   <g id="PathCollection_35"/>
   <g id="line2d_41">
    <path d="M 892.092235 139.5144 
L 944.799669 118.6268 
" clip-path="url(#p0e66a76bca)" style="fill: none; stroke: #000000; stroke-width: 0.5; stroke-linecap: square"/>
   </g>
   <g id="line2d_42">
    <path d="M 857.888474 264.84 
L 857.888474 54.642 
" clip-path="url(#p0e66a76bca)" style="fill: none; stroke: #000000; stroke-width: 0.5; stroke-linecap: square"/>
   </g>
   <g id="patch_13">
    <path d="M 717.709127 317.72 
L 717.709127 26.88 
" style="fill: none; stroke: #000000; stroke-width: 0.8; stroke-linejoin: miter; stroke-linecap: square"/>
   </g>
   <g id="patch_14">
    <path d="M 1026.10369 317.72 
L 1026.10369 26.88 
" style="fill: none; stroke: #000000; stroke-width: 0.8; stroke-linejoin: miter; stroke-linecap: square"/>
   </g>
   <g id="patch_15">
    <path d="M 717.709127 317.72 
L 1026.10369 317.72 
" style="fill: none; stroke: #000000; stroke-width: 0.8; stroke-linejoin: miter; stroke-linecap: square"/>
   </g>
   <g id="patch_16">
    <path d="M 717.709127 26.88 
L 1026.10369 26.88 
" style="fill: none; stroke: #000000; stroke-width: 0.8; stroke-linejoin: miter; stroke-linecap: square"/>
   </g>
   <g id="PathCollection_36">
    <g clip-path="url(#p0e66a76bca)">
     <use xlink:href="#m17cdf3839b" x="892.092235" y="139.5144" style="stroke: #000000"/>
     <use xlink:href="#m17cdf3839b" x="944.799669" y="118.6268" style="stroke: #000000"/>
    </g>
   </g>
   <g id="PathCollection_37">
    <path d="M 915.427317 132.502932 
C 916.020329 132.502932 916.589133 132.267326 917.008456 131.848003 
C 917.427779 131.42868 917.663385 130.859877 917.663385 130.266864 
C 917.663385 129.673852 917.427779 129.105049 917.008456 128.685726 
C 916.589133 128.266403 916.020329 128.030796 915.427317 128.030796 
C 914.834305 128.030796 914.265501 128.266403 913.846178 128.685726 
C 913.426856 129.105049 913.191249 129.673852 913.191249 130.266864 
C 913.191249 130.859877 913.426856 131.42868 913.846178 131.848003 
C 914.265501 132.267326 914.834305 132.502932 915.427317 132.502932 
L 915.427317 132.502932 
z
" clip-path="url(#p0e66a76bca)" style="fill: none; stroke: #ff0000"/>
   </g>
   <g id="PathCollection_38">
    <g clip-path="url(#p0e66a76bca)">
     <use xlink:href="#m17cdf3839b" x="857.888474" y="264.84" style="stroke: #000000"/>
     <use xlink:href="#m17cdf3839b" x="857.888474" y="54.642" style="stroke: #000000"/>
    </g>
   </g>
   <g id="PathCollection_39">
    <path d="M 857.888474 90.97892 
C 858.481486 90.97892 859.05029 90.743314 859.469613 90.323991 
C 859.888936 89.904668 860.124542 89.335865 860.124542 88.742852 
C 860.124542 88.14984 859.888936 87.581036 859.469613 87.161714 
C 859.05029 86.742391 858.481486 86.506784 857.888474 86.506784 
C 857.295462 86.506784 856.726658 86.742391 856.307335 87.161714 
C 855.888012 87.581036 855.652406 88.14984 855.652406 88.742852 
C 855.652406 89.335865 855.888012 89.904668 856.307335 90.323991 
C 856.726658 90.743314 857.295462 90.97892 857.888474 90.97892 
L 857.888474 90.97892 
z
" clip-path="url(#p0e66a76bca)" style="fill: none; stroke: #ff0000"/>
   </g>
   <g id="text_53">
    <!-- Bisection -->
    <g transform="translate(844.513596 20.88)scale(0.12 -0.12)">
     <defs>
      <path id="DejaVuSans-42" d="M 1259 2228 
L 1259 519 
L 2272 519 
Q 2781 519 3026 730 
Q 3272 941 3272 1375 
Q 3272 1813 3026 2020 
Q 2781 2228 2272 2228 
L 1259 2228 
z
M 1259 4147 
L 1259 2741 
L 2194 2741 
Q 2656 2741 2882 2914 
Q 3109 3088 3109 3444 
Q 3109 3797 2882 3972 
Q 2656 4147 2194 4147 
L 1259 4147 
z
M 628 4666 
L 2241 4666 
Q 2963 4666 3353 4366 
Q 3744 4066 3744 3513 
Q 3744 3084 3544 2831 
Q 3344 2578 2956 2516 
Q 3422 2416 3680 2098 
Q 3938 1781 3938 1306 
Q 3938 681 3513 340 
Q 3088 0 2303 0 
L 628 0 
L 628 4666 
z
" transform="scale(0.015625)"/>
      <path id="DejaVuSans-73" d="M 2834 3397 
L 2834 2853 
Q 2591 2978 2328 3040 
Q 2066 3103 1784 3103 
Q 1356 3103 1142 2972 
Q 928 2841 928 2578 
Q 928 2378 1081 2264 
Q 1234 2150 1697 2047 
L 1894 2003 
Q 2506 1872 2764 1633 
Q 3022 1394 3022 966 
Q 3022 478 2636 193 
Q 2250 -91 1575 -91 
Q 1294 -91 989 -36 
Q 684 19 347 128 
L 347 722 
Q 666 556 975 473 
Q 1284 391 1588 391 
Q 1994 391 2212 530 
Q 2431 669 2431 922 
Q 2431 1156 2273 1281 
Q 2116 1406 1581 1522 
L 1381 1569 
Q 847 1681 609 1914 
Q 372 2147 372 2553 
Q 372 3047 722 3315 
Q 1072 3584 1716 3584 
Q 2034 3584 2315 3537 
Q 2597 3491 2834 3397 
z
" transform="scale(0.015625)"/>
     </defs>
     <use xlink:href="#DejaVuSans-42"/>
     <use xlink:href="#DejaVuSans-69" x="68.603516"/>
     <use xlink:href="#DejaVuSans-73" x="96.386719"/>
     <use xlink:href="#DejaVuSans-65" x="148.486328"/>
     <use xlink:href="#DejaVuSans-63" x="210.009766"/>
     <use xlink:href="#DejaVuSans-74" x="264.990234"/>
     <use xlink:href="#DejaVuSans-69" x="304.199219"/>
     <use xlink:href="#DejaVuSans-6f" x="331.982422"/>
     <use xlink:href="#DejaVuSans-6e" x="393.164062"/>
    </g>
   </g>
   <g id="text_54">
    <g clip-path="url(#p0e66a76bca)">
     <!-- −0.8 -->
     <g style="fill: #472c7a" transform="translate(749.743739 274.718366)rotate(-308.711423)scale(0.1 -0.1)">
      <use xlink:href="#DejaVuSans-2212"/>
      <use xlink:href="#DejaVuSans-30" x="83.789062"/>
      <use xlink:href="#DejaVuSans-2e" x="147.412109"/>
      <use xlink:href="#DejaVuSans-38" x="179.199219"/>
     </g>
    </g>
   </g>
   <g id="text_55">
    <g clip-path="url(#p0e66a76bca)">
     <!-- −0.6 -->
     <g style="fill: #3b528b" transform="translate(762.091621 221.842546)rotate(-327.049932)scale(0.1 -0.1)">
      <use xlink:href="#DejaVuSans-2212"/>
      <use xlink:href="#DejaVuSans-30" x="83.789062"/>
      <use xlink:href="#DejaVuSans-2e" x="147.412109"/>
      <use xlink:href="#DejaVuSans-36" x="179.199219"/>
     </g>
    </g>
   </g>
   <g id="text_56">
    <g clip-path="url(#p0e66a76bca)">
     <!-- −0.4 -->
     <g style="fill: #2c728e" transform="translate(835.874455 206.497116)rotate(-307.30769)scale(0.1 -0.1)">
      <use xlink:href="#DejaVuSans-2212"/>
      <use xlink:href="#DejaVuSans-30" x="83.789062"/>
      <use xlink:href="#DejaVuSans-2e" x="147.412109"/>
      <use xlink:href="#DejaVuSans-34" x="179.199219"/>
     </g>
    </g>
   </g>
   <g id="text_57">
    <g clip-path="url(#p0e66a76bca)">
     <!-- −0.2 -->
     <g style="fill: #21918c" transform="translate(899.41083 196.093661)rotate(-299.120588)scale(0.1 -0.1)">
      <use xlink:href="#DejaVuSans-2212"/>
      <use xlink:href="#DejaVuSans-30" x="83.789062"/>
      <use xlink:href="#DejaVuSans-2e" x="147.412109"/>
      <use xlink:href="#DejaVuSans-32" x="179.199219"/>
     </g>
    </g>
   </g>
   <g id="text_58">
    <g clip-path="url(#p0e66a76bca)">
     <!-- 0.0 -->
     <g style="fill: #28ae80" transform="translate(959.7931 188.304835)rotate(-295.116226)scale(0.1 -0.1)">
      <use xlink:href="#DejaVuSans-30"/>
      <use xlink:href="#DejaVuSans-2e" x="63.623047"/>
      <use xlink:href="#DejaVuSans-30" x="95.410156"/>
     </g>
    </g>
   </g>
   <g id="text_59">
    <g clip-path="url(#p0e66a76bca)">
     <!-- 0.2 -->
     <g style="fill: #5ec962" transform="translate(953.433004 94.002749)rotate(-310.382846)scale(0.1 -0.1)">
      <use xlink:href="#DejaVuSans-30"/>
      <use xlink:href="#DejaVuSans-2e" x="63.623047"/>
      <use xlink:href="#DejaVuSans-32" x="95.410156"/>
     </g>
    </g>
   </g>
   <g id="text_60">
    <g clip-path="url(#p0e66a76bca)">
     <!-- 0.4 -->
     <g style="fill: #addc30" transform="translate(1005.958529 69.302023)rotate(-307.875545)scale(0.1 -0.1)">
      <use xlink:href="#DejaVuSans-30"/>
      <use xlink:href="#DejaVuSans-2e" x="63.623047"/>
      <use xlink:href="#DejaVuSans-34" x="95.410156"/>
     </g>
    </g>
   </g>
  </g>
 </g>
 <defs>
  <clipPath id="pc6181a244b">
   <rect x="33.64" y="26.88" width="308.394563" height="290.84"/>
  </clipPath>
  <clipPath id="p704fe78d6f">
   <rect x="375.674563" y="26.88" width="308.394563" height="290.84"/>
  </clipPath>
  <clipPath id="p0e66a76bca">
   <rect x="717.709127" y="26.88" width="308.394563" height="290.84"/>
  </clipPath>
 </defs>
</svg>
