<?xml version="1.0" encoding="utf-8" standalone="no"?>
<!DOCTYPE svg PUBLIC "-//W3C//DTD SVG 1.1//EN"
  "http://www.w3.org/Graphics/SVG/1.1/DTD/svg11.dtd">
<svg xmlns:xlink="http://www.w3.org/1999/xlink" width="345.6pt" height="345.6pt" viewBox="0 0 345.6 345.6" xmlns="http://www.w3.org/2000/svg" version="1.1">
 <metadata>
  <rdf:RDF xmlns:dc="http://purl.org/dc/elements/1.1/" xmlns:cc="http://creativecommons.org/ns#" xmlns:rdf="http://www.w3.org/1999/02/22-rdf-syntax-ns#">
   <cc:Work>
    <dc:type rdf:resource="http://purl.org/dc/dcmitype/StillImage"/>
    <dc:date>2022-06-13T19:14:00.149098</dc:date>
    <dc:format>image/svg+xml</dc:format>
    <dc:creator>
     <cc:Agent>
      <dc:title>Matplotlib v3.5.2, https://matplotlib.org/</dc:title>
     </cc:Agent>
    </dc:creator>
   </cc:Work>
  </rdf:RDF>
 </metadata>
 <defs>
  <style type="text/css">*{stroke-linejoin: round; stroke-linecap: butt}</style>
 </defs>
 <g id="figure_1">
  <g id="patch_1">
   <path d="M 0 345.6 
L 345.6 345.6 
L 345.6 0 
L 0 0 
z
" style="fill: #ffffff"/>
  </g>
  <g id="patch_2">
   <path d="M 10.8 334.8 
L 334.8 334.8 
L 334.8 10.8 
L 10.8 10.8 
z
" style="fill: #ffffff"/>
  </g>
  <g id="pane3d_1">
   <g id="patch_3">
    <path d="M 300.666738 279.795573 
L 234.761946 168.316564 
L 234.761946 16.472629 
L 300.666738 127.951638 
" style="fill: none; opacity: 0"/>
   </g>
  </g>
  <g id="pane3d_2">
   <g id="patch_4">
    <path d="M 53.690019 208.891605 
L 234.761946 168.316564 
L 234.761946 16.472629 
L 53.690019 57.04767 
" style="fill: none; opacity: 0"/>
   </g>
  </g>
  <g id="pane3d_3">
   <g id="patch_5">
    <path d="M 119.594811 320.370615 
L 300.666738 279.795573 
L 234.761946 168.316564 
L 53.690019 208.891605 
" style="fill: none; opacity: 0"/>
   </g>
  </g>
  <g id="axis3d_1">
   <g id="line2d_1">
    <path d="M 300.666738 279.795573 
L 119.594811 320.370615 
" style="fill: none; stroke: #000000; stroke-width: 0.8; stroke-linecap: square"/>
   </g>
   <g id="text_1">
    <!-- x -->
    <g transform="translate(216.935072 341.853276)scale(0.1 -0.1)">
     <defs>
      <path id="DejaVuSans-78" d="M 3513 3500 
L 2247 1797 
L 3578 0 
L 2900 0 
L 1881 1375 
L 863 0 
L 184 0 
L 1544 1831 
L 300 3500 
L 978 3500 
L 1906 2253 
L 2834 3500 
L 3513 3500 
z
" transform="scale(0.015625)"/>
     </defs>
     <use xlink:href="#DejaVuSans-78"/>
    </g>
   </g>
   <g id="Line3DCollection_1">
    <path d="M 152.187758 313.067107 
L 86.282966 201.588098 
L 86.282966 49.744162 
" style="fill: none; stroke: #b0b0b0; stroke-width: 0.8"/>
    <path d="M 210.130774 300.083094 
L 144.225983 188.604084 
L 144.225983 36.760149 
" style="fill: none; stroke: #b0b0b0; stroke-width: 0.8"/>
    <path d="M 268.073791 287.099081 
L 202.168999 175.620071 
L 202.168999 23.776136 
" style="fill: none; stroke: #b0b0b0; stroke-width: 0.8"/>
   </g>
   <g id="xtick_1">
    <g id="line2d_2">
     <path d="M 151.660519 312.175275 
L 153.242234 314.850771 
" style="fill: none; stroke: #000000; stroke-width: 0.8; stroke-linecap: square"/>
    </g>
    <g id="text_2">
     <!-- 0 -->
     <g transform="translate(153.497797 338.610516)scale(0.1 -0.1)">
      <defs>
       <path id="DejaVuSans-30" d="M 2034 4250 
Q 1547 4250 1301 3770 
Q 1056 3291 1056 2328 
Q 1056 1369 1301 889 
Q 1547 409 2034 409 
Q 2525 409 2770 889 
Q 3016 1369 3016 2328 
Q 3016 3291 2770 3770 
Q 2525 4250 2034 4250 
z
M 2034 4750 
Q 2819 4750 3233 4129 
Q 3647 3509 3647 2328 
Q 3647 1150 3233 529 
Q 2819 -91 2034 -91 
Q 1250 -91 836 529 
Q 422 1150 422 2328 
Q 422 3509 836 4129 
Q 1250 4750 2034 4750 
z
" transform="scale(0.015625)"/>
      </defs>
      <use xlink:href="#DejaVuSans-30"/>
     </g>
    </g>
   </g>
   <g id="xtick_2">
    <g id="line2d_3">
     <path d="M 209.603536 299.191262 
L 211.185251 301.866758 
" style="fill: none; stroke: #000000; stroke-width: 0.8; stroke-linecap: square"/>
    </g>
    <g id="text_3">
     <!-- 1 -->
     <g transform="translate(211.440814 325.626503)scale(0.1 -0.1)">
      <defs>
       <path id="DejaVuSans-31" d="M 794 531 
L 1825 531 
L 1825 4091 
L 703 3866 
L 703 4441 
L 1819 4666 
L 2450 4666 
L 2450 531 
L 3481 531 
L 3481 0 
L 794 0 
L 794 531 
z
" transform="scale(0.015625)"/>
      </defs>
      <use xlink:href="#DejaVuSans-31"/>
     </g>
    </g>
   </g>
   <g id="xtick_3">
    <g id="line2d_4">
     <path d="M 267.546552 286.207249 
L 269.128267 288.882745 
" style="fill: none; stroke: #000000; stroke-width: 0.8; stroke-linecap: square"/>
    </g>
    <g id="text_4">
     <!-- 2 -->
     <g transform="translate(269.38383 312.642489)scale(0.1 -0.1)">
      <defs>
       <path id="DejaVuSans-32" d="M 1228 531 
L 3431 531 
L 3431 0 
L 469 0 
L 469 531 
Q 828 903 1448 1529 
Q 2069 2156 2228 2338 
Q 2531 2678 2651 2914 
Q 2772 3150 2772 3378 
Q 2772 3750 2511 3984 
Q 2250 4219 1831 4219 
Q 1534 4219 1204 4116 
Q 875 4013 500 3803 
L 500 4441 
Q 881 4594 1212 4672 
Q 1544 4750 1819 4750 
Q 2544 4750 2975 4387 
Q 3406 4025 3406 3419 
Q 3406 3131 3298 2873 
Q 3191 2616 2906 2266 
Q 2828 2175 2409 1742 
Q 1991 1309 1228 531 
z
" transform="scale(0.015625)"/>
      </defs>
      <use xlink:href="#DejaVuSans-32"/>
     </g>
    </g>
   </g>
  </g>
  <g id="axis3d_2">
   <g id="line2d_5">
    <path d="M 53.690019 208.891605 
L 119.594811 320.370615 
" style="fill: none; stroke: #000000; stroke-width: 0.8; stroke-linecap: square"/>
   </g>
   <g id="text_5">
    <!-- y -->
    <g transform="translate(56.857569 295.897)scale(0.1 -0.1)">
     <defs>
      <path id="DejaVuSans-79" d="M 2059 -325 
Q 1816 -950 1584 -1140 
Q 1353 -1331 966 -1331 
L 506 -1331 
L 506 -850 
L 844 -850 
Q 1081 -850 1212 -737 
Q 1344 -625 1503 -206 
L 1606 56 
L 191 3500 
L 800 3500 
L 1894 763 
L 2988 3500 
L 3597 3500 
L 2059 -325 
z
" transform="scale(0.015625)"/>
     </defs>
     <use xlink:href="#DejaVuSans-79"/>
    </g>
   </g>
   <g id="Line3DCollection_2">
    <path d="M 288.803875 107.885416 
L 288.803875 259.729352 
L 107.731948 300.304393 
" style="fill: none; stroke: #b0b0b0; stroke-width: 0.8"/>
    <path d="M 267.714342 72.212133 
L 267.714342 224.056069 
L 86.642415 264.63111 
" style="fill: none; stroke: #b0b0b0; stroke-width: 0.8"/>
    <path d="M 246.624808 36.53885 
L 246.624808 188.382786 
L 65.552882 228.957827 
" style="fill: none; stroke: #b0b0b0; stroke-width: 0.8"/>
   </g>
   <g id="xtick_4">
    <g id="line2d_6">
     <path d="M 109.180524 299.979793 
L 104.834797 300.953594 
" style="fill: none; stroke: #000000; stroke-width: 0.8; stroke-linecap: square"/>
    </g>
    <g id="text_6">
     <!-- 0 -->
     <g transform="translate(92.210982 321.015827)scale(0.1 -0.1)">
      <use xlink:href="#DejaVuSans-30"/>
     </g>
    </g>
   </g>
   <g id="xtick_5">
    <g id="line2d_7">
     <path d="M 88.09099 264.30651 
L 83.745264 265.280311 
" style="fill: none; stroke: #000000; stroke-width: 0.8; stroke-linecap: square"/>
    </g>
    <g id="text_7">
     <!-- 1 -->
     <g transform="translate(71.121449 285.342544)scale(0.1 -0.1)">
      <use xlink:href="#DejaVuSans-31"/>
     </g>
    </g>
   </g>
   <g id="xtick_6">
    <g id="line2d_8">
     <path d="M 67.001457 228.633226 
L 62.655731 229.607027 
" style="fill: none; stroke: #000000; stroke-width: 0.8; stroke-linecap: square"/>
    </g>
    <g id="text_8">
     <!-- 2 -->
     <g transform="translate(50.031915 249.669261)scale(0.1 -0.1)">
      <use xlink:href="#DejaVuSans-32"/>
     </g>
    </g>
   </g>
  </g>
  <g id="axis3d_3">
   <g id="line2d_9">
    <path d="M 53.690019 208.891605 
L 53.690019 57.04767 
" style="fill: none; stroke: #000000; stroke-width: 0.8; stroke-linecap: square"/>
   </g>
   <g id="text_9">
    <!-- z -->
    <g transform="translate(14.476657 125.224721)scale(0.1 -0.1)">
     <defs>
      <path id="DejaVuSans-7a" d="M 353 3500 
L 3084 3500 
L 3084 2975 
L 922 459 
L 3084 459 
L 3084 0 
L 275 0 
L 275 525 
L 2438 3041 
L 353 3041 
L 353 3500 
z
" transform="scale(0.015625)"/>
     </defs>
     <use xlink:href="#DejaVuSans-7a"/>
    </g>
   </g>
   <g id="Line3DCollection_3">
    <path d="M 53.690019 181.559697 
L 234.761946 140.984656 
L 300.666738 252.463665 
" style="fill: none; stroke: #b0b0b0; stroke-width: 0.8"/>
    <path d="M 53.690019 132.969637 
L 234.761946 92.394596 
L 300.666738 203.873606 
" style="fill: none; stroke: #b0b0b0; stroke-width: 0.8"/>
    <path d="M 53.690019 84.379578 
L 234.761946 43.804537 
L 300.666738 155.283547 
" style="fill: none; stroke: #b0b0b0; stroke-width: 0.8"/>
   </g>
   <g id="xtick_7">
    <g id="line2d_10">
     <path d="M 55.138595 181.235096 
L 50.792868 182.208897 
" style="fill: none; stroke: #000000; stroke-width: 0.8; stroke-linecap: square"/>
    </g>
    <g id="text_10">
     <!-- 0 -->
     <g transform="translate(33.677763 184.32616)scale(0.1 -0.1)">
      <use xlink:href="#DejaVuSans-30"/>
     </g>
    </g>
   </g>
   <g id="xtick_8">
    <g id="line2d_11">
     <path d="M 55.138595 132.645037 
L 50.792868 133.618838 
" style="fill: none; stroke: #000000; stroke-width: 0.8; stroke-linecap: square"/>
    </g>
    <g id="text_11">
     <!-- 1 -->
     <g transform="translate(33.677763 135.736101)scale(0.1 -0.1)">
      <use xlink:href="#DejaVuSans-31"/>
     </g>
    </g>
   </g>
   <g id="xtick_9">
    <g id="line2d_12">
     <path d="M 55.138595 84.054978 
L 50.792868 85.028779 
" style="fill: none; stroke: #000000; stroke-width: 0.8; stroke-linecap: square"/>
    </g>
    <g id="text_12">
     <!-- 2 -->
     <g transform="translate(33.677763 87.146042)scale(0.1 -0.1)">
      <use xlink:href="#DejaVuSans-32"/>
     </g>
    </g>
   </g>
  </g>
  <g id="axes_1">
   <g id="Path3DCollection_1">
    <defs>
     <path id="C0_0_aef6ee7f25" d="M 0 2.236068 
C 0.593012 2.236068 1.161816 2.000462 1.581139 1.581139 
C 2.000462 1.161816 2.236068 0.593012 2.236068 -0 
C 2.236068 -0.593012 2.000462 -1.161816 1.581139 -1.581139 
C 1.161816 -2.000462 0.593012 -2.236068 0 -2.236068 
C -0.593012 -2.236068 -1.161816 -2.000462 -1.581139 -1.581139 
C -2.000462 -1.161816 -2.236068 -0.593012 -2.236068 0 
C -2.236068 0.593012 -2.000462 1.161816 -1.581139 1.581139 
C -1.161816 2.000462 -0.593012 2.236068 0 2.236068 
z
"/>
    </defs>
    <g clip-path="url(#pab90b94978)">
     <use xlink:href="#C0_0_aef6ee7f25" x="214.031862" y="168.354385" style="fill: #1f77b4; fill-opacity: 0.3; stroke: #1f77b4; stroke-opacity: 0.3"/>
    </g>
    <g clip-path="url(#pab90b94978)">
     <use xlink:href="#C0_0_aef6ee7f25" x="156.088845" y="181.338398" style="fill: #1f77b4; fill-opacity: 0.358026; stroke: #1f77b4; stroke-opacity: 0.358026"/>
    </g>
    <g clip-path="url(#pab90b94978)">
     <use xlink:href="#C0_0_aef6ee7f25" x="98.145829" y="194.322411" style="fill: #1f77b4; fill-opacity: 0.416052; stroke: #1f77b4; stroke-opacity: 0.416052"/>
    </g>
    <g clip-path="url(#pab90b94978)">
     <use xlink:href="#C0_0_aef6ee7f25" x="214.031862" y="119.764325" style="fill: #1f77b4; fill-opacity: 0.43255; stroke: #1f77b4; stroke-opacity: 0.43255"/>
    </g>
    <g clip-path="url(#pab90b94978)">
     <use xlink:href="#C0_0_aef6ee7f25" x="235.121395" y="204.027668" style="fill: #1f77b4; fill-opacity: 0.459424; stroke: #1f77b4; stroke-opacity: 0.459424"/>
    </g>
    <g clip-path="url(#pab90b94978)">
     <use xlink:href="#C0_0_aef6ee7f25" x="156.088845" y="132.748339" style="fill: #1f77b4; fill-opacity: 0.490576; stroke: #1f77b4; stroke-opacity: 0.490576"/>
    </g>
    <g clip-path="url(#pab90b94978)">
     <use xlink:href="#C0_0_aef6ee7f25" x="177.178378" y="217.011681" style="fill: #1f77b4; fill-opacity: 0.51745; stroke: #1f77b4; stroke-opacity: 0.51745"/>
    </g>
    <g clip-path="url(#pab90b94978)">
     <use xlink:href="#C0_0_aef6ee7f25" x="98.145829" y="145.732352" style="fill: #1f77b4; fill-opacity: 0.548601; stroke: #1f77b4; stroke-opacity: 0.548601"/>
    </g>
    <g clip-path="url(#pab90b94978)">
     <use xlink:href="#C0_0_aef6ee7f25" x="214.031862" y="71.174266" style="fill: #1f77b4; fill-opacity: 0.5651; stroke: #1f77b4; stroke-opacity: 0.5651"/>
    </g>
    <g clip-path="url(#pab90b94978)">
     <use xlink:href="#C0_0_aef6ee7f25" x="119.235362" y="229.995694" style="fill: #1f77b4; fill-opacity: 0.575476; stroke: #1f77b4; stroke-opacity: 0.575476"/>
    </g>
    <g clip-path="url(#pab90b94978)">
     <use xlink:href="#C0_0_aef6ee7f25" x="235.121395" y="155.437608" style="fill: #1f77b4; fill-opacity: 0.591974; stroke: #1f77b4; stroke-opacity: 0.591974"/>
    </g>
    <g clip-path="url(#pab90b94978)">
     <use xlink:href="#C0_0_aef6ee7f25" x="256.210928" y="239.700951" style="fill: #1f77b4; fill-opacity: 0.618849; stroke: #1f77b4; stroke-opacity: 0.618849"/>
    </g>
    <g clip-path="url(#pab90b94978)">
     <use xlink:href="#C0_0_aef6ee7f25" x="156.088845" y="84.158279" style="fill: #1f77b4; fill-opacity: 0.623125; stroke: #1f77b4; stroke-opacity: 0.623125"/>
    </g>
    <g clip-path="url(#pab90b94978)">
     <use xlink:href="#C0_0_aef6ee7f25" x="177.178378" y="168.421622" style="fill: #1f77b4; fill-opacity: 0.65; stroke: #1f77b4; stroke-opacity: 0.65"/>
    </g>
    <g clip-path="url(#pab90b94978)">
     <use xlink:href="#C0_0_aef6ee7f25" x="198.267912" y="252.684964" style="fill: #1f77b4; fill-opacity: 0.676875; stroke: #1f77b4; stroke-opacity: 0.676875"/>
    </g>
    <g clip-path="url(#pab90b94978)">
     <use xlink:href="#C0_0_aef6ee7f25" x="98.145829" y="97.142292" style="fill: #1f77b4; fill-opacity: 0.681151; stroke: #1f77b4; stroke-opacity: 0.681151"/>
    </g>
    <g clip-path="url(#pab90b94978)">
     <use xlink:href="#C0_0_aef6ee7f25" x="119.235362" y="181.405635" style="fill: #1f77b4; fill-opacity: 0.708026; stroke: #1f77b4; stroke-opacity: 0.708026"/>
    </g>
    <g clip-path="url(#pab90b94978)">
     <use xlink:href="#C0_0_aef6ee7f25" x="235.121395" y="106.847549" style="fill: #1f77b4; fill-opacity: 0.724524; stroke: #1f77b4; stroke-opacity: 0.724524"/>
    </g>
    <g clip-path="url(#pab90b94978)">
     <use xlink:href="#C0_0_aef6ee7f25" x="140.324895" y="265.668977" style="fill: #1f77b4; fill-opacity: 0.7349; stroke: #1f77b4; stroke-opacity: 0.7349"/>
    </g>
    <g clip-path="url(#pab90b94978)">
     <use xlink:href="#C0_0_aef6ee7f25" x="256.210928" y="191.110891" style="fill: #1f77b4; fill-opacity: 0.751399; stroke: #1f77b4; stroke-opacity: 0.751399"/>
    </g>
    <g clip-path="url(#pab90b94978)">
     <use xlink:href="#C0_0_aef6ee7f25" x="177.178378" y="119.831562" style="fill: #1f77b4; fill-opacity: 0.78255; stroke: #1f77b4; stroke-opacity: 0.78255"/>
    </g>
    <g clip-path="url(#pab90b94978)">
     <use xlink:href="#C0_0_aef6ee7f25" x="198.267912" y="204.094905" style="fill: #1f77b4; fill-opacity: 0.809424; stroke: #1f77b4; stroke-opacity: 0.809424"/>
    </g>
    <g clip-path="url(#pab90b94978)">
     <use xlink:href="#C0_0_aef6ee7f25" x="119.235362" y="132.815576" style="fill: #1f77b4; fill-opacity: 0.840576; stroke: #1f77b4; stroke-opacity: 0.840576"/>
    </g>
    <g clip-path="url(#pab90b94978)">
     <use xlink:href="#C0_0_aef6ee7f25" x="140.324895" y="217.078918" style="fill: #1f77b4; fill-opacity: 0.86745; stroke: #1f77b4; stroke-opacity: 0.86745"/>
    </g>
    <g clip-path="url(#pab90b94978)">
     <use xlink:href="#C0_0_aef6ee7f25" x="256.210928" y="142.520832" style="fill: #1f77b4; fill-opacity: 0.883948; stroke: #1f77b4; stroke-opacity: 0.883948"/>
    </g>
    <g clip-path="url(#pab90b94978)">
     <use xlink:href="#C0_0_aef6ee7f25" x="198.267912" y="155.504845" style="fill: #1f77b4; fill-opacity: 0.941974; stroke: #1f77b4; stroke-opacity: 0.941974"/>
    </g>
    <g clip-path="url(#pab90b94978)">
     <use xlink:href="#C0_0_aef6ee7f25" x="140.324895" y="168.488859" style="fill: #1f77b4; stroke: #1f77b4"/>
    </g>
   </g>
   <g id="Line3DCollection_4">
    <path d="M 256.210928 239.700951 
L 198.267912 252.684964 
" clip-path="url(#pab90b94978)" style="fill: none; stroke: #800080; stroke-width: 1.5"/>
    <path d="M 256.210928 239.700951 
L 250.614063 242.212713 
" clip-path="url(#pab90b94978)" style="fill: none; stroke: #800080; stroke-width: 1.5"/>
    <path d="M 256.210928 239.700951 
L 250.614063 239.697507 
" clip-path="url(#pab90b94978)" style="fill: none; stroke: #800080; stroke-width: 1.5"/>
   </g>
   <g id="Line3DCollection_5">
    <path d="M 119.235362 132.815576 
L 119.235362 181.405635 
" clip-path="url(#pab90b94978)" style="fill: none; stroke: #800080; stroke-width: 1.5"/>
    <path d="M 119.235362 132.815576 
L 117.735686 137.845066 
" clip-path="url(#pab90b94978)" style="fill: none; stroke: #800080; stroke-width: 1.5"/>
    <path d="M 119.235362 132.815576 
L 120.735037 137.172964 
" clip-path="url(#pab90b94978)" style="fill: none; stroke: #800080; stroke-width: 1.5"/>
   </g>
   <g id="Line3DCollection_6">
    <path d="M 235.121395 106.847549 
L 256.210928 142.520832 
" clip-path="url(#pab90b94978)" style="fill: none; stroke: #800080; stroke-width: 1.5"/>
    <path d="M 235.121395 106.847549 
L 237.158487 111.550927 
" clip-path="url(#pab90b94978)" style="fill: none; stroke: #800080; stroke-width: 1.5"/>
    <path d="M 235.121395 106.847549 
L 237.158487 109.03572 
" clip-path="url(#pab90b94978)" style="fill: none; stroke: #800080; stroke-width: 1.5"/>
   </g>
   <g id="text_13">
    <!-- (1,0,0,0) -->
    <g transform="translate(229.348373 254.619292)scale(0.1 -0.1)">
     <defs>
      <path id="DejaVuSans-28" d="M 1984 4856 
Q 1566 4138 1362 3434 
Q 1159 2731 1159 2009 
Q 1159 1288 1364 580 
Q 1569 -128 1984 -844 
L 1484 -844 
Q 1016 -109 783 600 
Q 550 1309 550 2009 
Q 550 2706 781 3412 
Q 1013 4119 1484 4856 
L 1984 4856 
z
" transform="scale(0.015625)"/>
      <path id="DejaVuSans-2c" d="M 750 794 
L 1409 794 
L 1409 256 
L 897 -744 
L 494 -744 
L 750 256 
L 750 794 
z
" transform="scale(0.015625)"/>
      <path id="DejaVuSans-29" d="M 513 4856 
L 1013 4856 
Q 1481 4119 1714 3412 
Q 1947 2706 1947 2009 
Q 1947 1309 1714 600 
Q 1481 -109 1013 -844 
L 513 -844 
Q 928 -128 1133 580 
Q 1338 1288 1338 2009 
Q 1338 2731 1133 3434 
Q 928 4138 513 4856 
z
" transform="scale(0.015625)"/>
     </defs>
     <use xlink:href="#DejaVuSans-28"/>
     <use xlink:href="#DejaVuSans-31" x="39.013672"/>
     <use xlink:href="#DejaVuSans-2c" x="102.636719"/>
     <use xlink:href="#DejaVuSans-30" x="134.423828"/>
     <use xlink:href="#DejaVuSans-2c" x="198.046875"/>
     <use xlink:href="#DejaVuSans-30" x="229.833984"/>
     <use xlink:href="#DejaVuSans-2c" x="293.457031"/>
     <use xlink:href="#DejaVuSans-30" x="325.244141"/>
     <use xlink:href="#DejaVuSans-29" x="388.867188"/>
    </g>
   </g>
   <g id="text_14">
    <!-- (0,1,1,2) -->
    <g transform="translate(96.036875 117.869994)scale(0.1 -0.1)">
     <use xlink:href="#DejaVuSans-28"/>
     <use xlink:href="#DejaVuSans-30" x="39.013672"/>
     <use xlink:href="#DejaVuSans-2c" x="102.636719"/>
     <use xlink:href="#DejaVuSans-31" x="134.423828"/>
     <use xlink:href="#DejaVuSans-2c" x="198.046875"/>
     <use xlink:href="#DejaVuSans-31" x="229.833984"/>
     <use xlink:href="#DejaVuSans-2c" x="293.457031"/>
     <use xlink:href="#DejaVuSans-32" x="325.244141"/>
     <use xlink:href="#DejaVuSans-29" x="388.867188"/>
    </g>
   </g>
   <g id="text_15">
    <!-- (2,0,2,1) -->
    <g transform="translate(245.666162 119.825185)scale(0.1 -0.1)">
     <use xlink:href="#DejaVuSans-28"/>
     <use xlink:href="#DejaVuSans-32" x="39.013672"/>
     <use xlink:href="#DejaVuSans-2c" x="102.636719"/>
     <use xlink:href="#DejaVuSans-30" x="134.423828"/>
     <use xlink:href="#DejaVuSans-2c" x="198.046875"/>
     <use xlink:href="#DejaVuSans-32" x="229.833984"/>
     <use xlink:href="#DejaVuSans-2c" x="293.457031"/>
     <use xlink:href="#DejaVuSans-31" x="325.244141"/>
     <use xlink:href="#DejaVuSans-29" x="388.867188"/>
    </g>
   </g>
   <g id="legend_1">
    <g id="patch_6">
     <path d="M 223.034375 33.478125 
L 327.8 33.478125 
Q 329.8 33.478125 329.8 31.478125 
L 329.8 17.8 
Q 329.8 15.8 327.8 15.8 
L 223.034375 15.8 
Q 221.034375 15.8 221.034375 17.8 
L 221.034375 31.478125 
Q 221.034375 33.478125 223.034375 33.478125 
z
" style="fill: #ffffff; opacity: 0.8; stroke: #cccccc; stroke-linejoin: miter"/>
    </g>
    <g id="Path3DCollection_2">
     <defs>
      <path id="m636e849ff4" d="M 0 2.236068 
C 0.593012 2.236068 1.161816 2.000462 1.581139 1.581139 
C 2.000462 1.161816 2.236068 0.593012 2.236068 0 
C 2.236068 -0.593012 2.000462 -1.161816 1.581139 -1.581139 
C 1.161816 -2.000462 0.593012 -2.236068 0 -2.236068 
C -0.593012 -2.236068 -1.161816 -2.000462 -1.581139 -1.581139 
C -2.000462 -1.161816 -2.236068 -0.593012 -2.236068 0 
C -2.236068 0.593012 -2.000462 1.161816 -1.581139 1.581139 
C -1.161816 2.000462 -0.593012 2.236068 0 2.236068 
z
" style="stroke: #1f77b4"/>
     </defs>
     <g>
      <use xlink:href="#m636e849ff4" x="235.034375" y="24.773438" style="fill: #1f77b4; stroke: #1f77b4"/>
     </g>
    </g>
    <g id="text_16">
     <!-- sample coords -->
     <g transform="translate(253.034375 27.398438)scale(0.1 -0.1)">
      <defs>
       <path id="DejaVuSans-73" d="M 2834 3397 
L 2834 2853 
Q 2591 2978 2328 3040 
Q 2066 3103 1784 3103 
Q 1356 3103 1142 2972 
Q 928 2841 928 2578 
Q 928 2378 1081 2264 
Q 1234 2150 1697 2047 
L 1894 2003 
Q 2506 1872 2764 1633 
Q 3022 1394 3022 966 
Q 3022 478 2636 193 
Q 2250 -91 1575 -91 
Q 1294 -91 989 -36 
Q 684 19 347 128 
L 347 722 
Q 666 556 975 473 
Q 1284 391 1588 391 
Q 1994 391 2212 530 
Q 2431 669 2431 922 
Q 2431 1156 2273 1281 
Q 2116 1406 1581 1522 
L 1381 1569 
Q 847 1681 609 1914 
Q 372 2147 372 2553 
Q 372 3047 722 3315 
Q 1072 3584 1716 3584 
Q 2034 3584 2315 3537 
Q 2597 3491 2834 3397 
z
" transform="scale(0.015625)"/>
       <path id="DejaVuSans-61" d="M 2194 1759 
Q 1497 1759 1228 1600 
Q 959 1441 959 1056 
Q 959 750 1161 570 
Q 1363 391 1709 391 
Q 2188 391 2477 730 
Q 2766 1069 2766 1631 
L 2766 1759 
L 2194 1759 
z
M 3341 1997 
L 3341 0 
L 2766 0 
L 2766 531 
Q 2569 213 2275 61 
Q 1981 -91 1556 -91 
Q 1019 -91 701 211 
Q 384 513 384 1019 
Q 384 1609 779 1909 
Q 1175 2209 1959 2209 
L 2766 2209 
L 2766 2266 
Q 2766 2663 2505 2880 
Q 2244 3097 1772 3097 
Q 1472 3097 1187 3025 
Q 903 2953 641 2809 
L 641 3341 
Q 956 3463 1253 3523 
Q 1550 3584 1831 3584 
Q 2591 3584 2966 3190 
Q 3341 2797 3341 1997 
z
" transform="scale(0.015625)"/>
       <path id="DejaVuSans-6d" d="M 3328 2828 
Q 3544 3216 3844 3400 
Q 4144 3584 4550 3584 
Q 5097 3584 5394 3201 
Q 5691 2819 5691 2113 
L 5691 0 
L 5113 0 
L 5113 2094 
Q 5113 2597 4934 2840 
Q 4756 3084 4391 3084 
Q 3944 3084 3684 2787 
Q 3425 2491 3425 1978 
L 3425 0 
L 2847 0 
L 2847 2094 
Q 2847 2600 2669 2842 
Q 2491 3084 2119 3084 
Q 1678 3084 1418 2786 
Q 1159 2488 1159 1978 
L 1159 0 
L 581 0 
L 581 3500 
L 1159 3500 
L 1159 2956 
Q 1356 3278 1631 3431 
Q 1906 3584 2284 3584 
Q 2666 3584 2933 3390 
Q 3200 3197 3328 2828 
z
" transform="scale(0.015625)"/>
       <path id="DejaVuSans-70" d="M 1159 525 
L 1159 -1331 
L 581 -1331 
L 581 3500 
L 1159 3500 
L 1159 2969 
Q 1341 3281 1617 3432 
Q 1894 3584 2278 3584 
Q 2916 3584 3314 3078 
Q 3713 2572 3713 1747 
Q 3713 922 3314 415 
Q 2916 -91 2278 -91 
Q 1894 -91 1617 61 
Q 1341 213 1159 525 
z
M 3116 1747 
Q 3116 2381 2855 2742 
Q 2594 3103 2138 3103 
Q 1681 3103 1420 2742 
Q 1159 2381 1159 1747 
Q 1159 1113 1420 752 
Q 1681 391 2138 391 
Q 2594 391 2855 752 
Q 3116 1113 3116 1747 
z
" transform="scale(0.015625)"/>
       <path id="DejaVuSans-6c" d="M 603 4863 
L 1178 4863 
L 1178 0 
L 603 0 
L 603 4863 
z
" transform="scale(0.015625)"/>
       <path id="DejaVuSans-65" d="M 3597 1894 
L 3597 1613 
L 953 1613 
Q 991 1019 1311 708 
Q 1631 397 2203 397 
Q 2534 397 2845 478 
Q 3156 559 3463 722 
L 3463 178 
Q 3153 47 2828 -22 
Q 2503 -91 2169 -91 
Q 1331 -91 842 396 
Q 353 884 353 1716 
Q 353 2575 817 3079 
Q 1281 3584 2069 3584 
Q 2775 3584 3186 3129 
Q 3597 2675 3597 1894 
z
M 3022 2063 
Q 3016 2534 2758 2815 
Q 2500 3097 2075 3097 
Q 1594 3097 1305 2825 
Q 1016 2553 972 2059 
L 3022 2063 
z
" transform="scale(0.015625)"/>
       <path id="DejaVuSans-20" transform="scale(0.015625)"/>
       <path id="DejaVuSans-63" d="M 3122 3366 
L 3122 2828 
Q 2878 2963 2633 3030 
Q 2388 3097 2138 3097 
Q 1578 3097 1268 2742 
Q 959 2388 959 1747 
Q 959 1106 1268 751 
Q 1578 397 2138 397 
Q 2388 397 2633 464 
Q 2878 531 3122 666 
L 3122 134 
Q 2881 22 2623 -34 
Q 2366 -91 2075 -91 
Q 1284 -91 818 406 
Q 353 903 353 1747 
Q 353 2603 823 3093 
Q 1294 3584 2113 3584 
Q 2378 3584 2631 3529 
Q 2884 3475 3122 3366 
z
" transform="scale(0.015625)"/>
       <path id="DejaVuSans-6f" d="M 1959 3097 
Q 1497 3097 1228 2736 
Q 959 2375 959 1747 
Q 959 1119 1226 758 
Q 1494 397 1959 397 
Q 2419 397 2687 759 
Q 2956 1122 2956 1747 
Q 2956 2369 2687 2733 
Q 2419 3097 1959 3097 
z
M 1959 3584 
Q 2709 3584 3137 3096 
Q 3566 2609 3566 1747 
Q 3566 888 3137 398 
Q 2709 -91 1959 -91 
Q 1206 -91 779 398 
Q 353 888 353 1747 
Q 353 2609 779 3096 
Q 1206 3584 1959 3584 
z
" transform="scale(0.015625)"/>
       <path id="DejaVuSans-72" d="M 2631 2963 
Q 2534 3019 2420 3045 
Q 2306 3072 2169 3072 
Q 1681 3072 1420 2755 
Q 1159 2438 1159 1844 
L 1159 0 
L 581 0 
L 581 3500 
L 1159 3500 
L 1159 2956 
Q 1341 3275 1631 3429 
Q 1922 3584 2338 3584 
Q 2397 3584 2469 3576 
Q 2541 3569 2628 3553 
L 2631 2963 
z
" transform="scale(0.015625)"/>
       <path id="DejaVuSans-64" d="M 2906 2969 
L 2906 4863 
L 3481 4863 
L 3481 0 
L 2906 0 
L 2906 525 
Q 2725 213 2448 61 
Q 2172 -91 1784 -91 
Q 1150 -91 751 415 
Q 353 922 353 1747 
Q 353 2572 751 3078 
Q 1150 3584 1784 3584 
Q 2172 3584 2448 3432 
Q 2725 3281 2906 2969 
z
M 947 1747 
Q 947 1113 1208 752 
Q 1469 391 1925 391 
Q 2381 391 2643 752 
Q 2906 1113 2906 1747 
Q 2906 2381 2643 2742 
Q 2381 3103 1925 3103 
Q 1469 3103 1208 2742 
Q 947 2381 947 1747 
z
" transform="scale(0.015625)"/>
      </defs>
      <use xlink:href="#DejaVuSans-73"/>
      <use xlink:href="#DejaVuSans-61" x="52.099609"/>
      <use xlink:href="#DejaVuSans-6d" x="113.378906"/>
      <use xlink:href="#DejaVuSans-70" x="210.791016"/>
      <use xlink:href="#DejaVuSans-6c" x="274.267578"/>
      <use xlink:href="#DejaVuSans-65" x="302.050781"/>
      <use xlink:href="#DejaVuSans-20" x="363.574219"/>
      <use xlink:href="#DejaVuSans-63" x="395.361328"/>
      <use xlink:href="#DejaVuSans-6f" x="450.341797"/>
      <use xlink:href="#DejaVuSans-6f" x="511.523438"/>
      <use xlink:href="#DejaVuSans-72" x="572.705078"/>
      <use xlink:href="#DejaVuSans-64" x="612.068359"/>
      <use xlink:href="#DejaVuSans-73" x="675.544922"/>
     </g>
    </g>
   </g>
  </g>
 </g>
 <defs>
  <clipPath id="pab90b94978">
   <rect x="10.8" y="10.8" width="324" height="324"/>
  </clipPath>
 </defs>
</svg>
